<svg version="1.1" xmlns="http://www.w3.org/2000/svg" xmlns:xlink="http://www.w3.org/1999/xlink" width="328.52108" height="25.54025" viewBox="0,0,328.52108,25.54025"><g transform="translate(-75.61447,-167.10488)"><g fill="#ffffff" fill-rule="evenodd" stroke="none" stroke-width="0" stroke-linecap="round" stroke-miterlimit="10"><path d="M151.79184,171.26049v3.62016h-12.41589c-0.05099,0.8669 -0.14445,1.83571 -0.28038,2.90641h9.91726c-0.01688,0.74786 -0.05082,1.28321 -0.10181,1.60606c-0.22103,3.46726 -0.48453,6.03795 -0.7905,7.71206c-0.30579,1.67411 -0.73063,2.8086 -1.27451,3.40348c-0.71392,0.78197 -1.75069,1.24945 -3.1103,1.40243c-0.98595,0.10181 -2.51569,0.11878 -4.58923,0.05091c-0.06788,-1.29174 -0.51821,-2.53248 -1.351,-3.72224c1.18975,0.10199 2.65988,0.15298 4.4104,0.15298c0.57782,0 1.01127,-0.11052 1.30035,-0.33155c0.64587,-0.50977 1.11326,-2.74473 1.40217,-6.70488h-6.39917c-0.56094,2.36245 -1.49998,4.46148 -2.81713,6.2971c-1.31715,1.83562 -3.1995,3.38224 -5.64705,4.63987c-0.28891,-0.52683 -0.68407,-1.09194 -1.18549,-1.69534c-0.50141,-0.6034 -0.99857,-1.109 -1.49145,-1.51678c0.96889,-0.45895 1.83571,-0.97733 2.60045,-1.55515c0.76491,-0.57799 1.40652,-1.1559 1.92482,-1.73372c0.51847,-0.57782 0.97316,-1.24492 1.36405,-2.00131c0.3909,-0.75639 0.6926,-1.45325 0.90511,-2.09059c0.21233,-0.63734 0.39072,-1.38938 0.53518,-2.25611c0.14445,-0.8669 0.24218,-1.61476 0.29317,-2.24357c0.05099,-0.62881 0.10199,-1.40217 0.15298,-2.32007h-7.21474v-3.62016h9.78986v-4.1556h3.95145v4.1556zM182.00283,174.90623l-0.10208,-3.64574l4.84402,-0.22947c-0.08511,-0.74786 -0.17865,-1.50416 -0.28064,-2.2689l4.0282,-0.17857c0.05099,0.74786 0.11052,1.48719 0.17857,2.21799l10.07024,-0.56076v3.54367l-9.68778,0.61193c0.05082,0.62881 0.11878,1.21516 0.20389,1.75904c1.73363,-0.23792 3.45447,-0.10199 5.16252,0.40778c1.70822,0.50994 3.12745,1.46178 4.25768,2.85551c1.13023,1.39373 1.71231,2.99987 1.74625,4.81844c0.03411,2.48149 -0.65422,4.71654 -2.06501,6.70514l-5.02233,-2.06527c0.59488,-0.6457 1.07923,-1.37223 1.45308,-2.17961c0.37402,-0.80738 0.56947,-1.65296 0.58635,-2.53675c-0.01688,-0.96872 -0.26759,-1.86103 -0.75212,-2.67694c-0.48436,-0.81573 -1.16843,-1.41905 -2.05222,-1.80995l1.0453,4.00262l-11.01372,7.36772c-0.83279,-1.13876 -1.49137,-2.37524 -1.97572,-3.70944c-0.48436,-1.33421 -0.61611,-2.71514 -0.39525,-4.14281c0.22103,-1.42767 0.83296,-2.66415 1.83579,-3.70944c1.00266,-1.0453 2.15838,-1.82283 3.46718,-2.3326c-0.10199,-0.83296 -0.21251,-1.67428 -0.33155,-2.52396zM295.07049,175.79855l-0.20389,-3.97729l6.78137,-0.35687l1.45334,-3.51808l3.97703,0.50986l-1.30009,2.77875l4.63987,-0.2548l-0.20389,3.97703l-6.34827,0.33155l-1.07062,2.2689c1.34273,0.27203 2.55798,0.84141 3.64574,1.70813c1.4616,-0.59488 2.97003,-0.93904 4.52526,-1.0325c1.55506,-0.09346 3.11448,-0.0382 4.67825,0.16577l-0.10208,3.54367c-2.15847,-0.27203 -4.283,-0.18701 -6.37359,0.25506c0.7308,0.90067 1.4616,1.80995 2.19241,2.72785l-4.1556,1.68255c-0.52683,-0.86673 -1.11317,-1.69952 -1.75904,-2.49837c-0.37384,0.37384 -0.65431,0.80294 -0.84141,1.2873c-0.18692,0.48453 -0.19963,0.97742 -0.03812,1.47866c0.16151,0.50141 0.47165,0.87961 0.93043,1.13458c0.50994,0.22103 1.04112,0.35278 1.59353,0.39525c0.55241,0.04247 1.10482,0.05517 1.65723,0.03812c0.55224,-0.01688 1.10882,-0.05935 1.66976,-0.1274l-0.10208,4.07911c-2.10747,0.3909 -4.19798,0.32293 -6.27151,-0.20389c-1.4616,-0.3909 -2.44311,-1.25771 -2.94453,-2.60045c-0.50141,-1.34273 -0.55667,-2.68973 -0.16577,-4.04099c0.3909,-1.35109 1.04521,-2.56207 1.96293,-3.63295c-1.68246,-0.74786 -3.44151,-1.05374 -5.27713,-0.91764l2.29448,-5.48128zM208.59339,174.14132l-0.81582,-4.38507l13.25704,-1.68255l1.24919,2.82992l-5.43011,6.47541c1.22369,-0.66275 2.5451,-0.98986 3.96424,-0.98134c1.41914,0.00853 2.70661,0.43763 3.86243,1.2873c1.78463,1.42767 2.65997,3.22926 2.62603,5.40479c-0.03411,2.17552 -0.73098,4.09616 -2.09059,5.76192c-0.76491,0.83279 -1.63599,1.4871 -2.61324,1.96293c-0.97725,0.476 -1.99278,0.83296 -3.0466,1.07088c-0.84985,0.13593 -1.70387,0.1274 -2.56207,-0.02558c-0.85837,-0.15298 -1.61894,-0.52265 -2.28169,-1.109c-0.66293,-0.58635 -1.06235,-1.32141 -1.19828,-2.2052c-0.17004,-1.00283 0.02115,-1.91211 0.57356,-2.72785c0.55241,-0.81591 1.26624,-1.43628 2.1415,-1.86112c0.87526,-0.42501 1.8143,-0.60349 2.81713,-0.53544c1.27468,0.13593 2.5069,0.44189 3.69665,0.9179c0.13593,-0.57799 0.15716,-1.17287 0.0637,-1.78463c-0.09346,-0.61193 -0.35687,-1.14311 -0.79024,-1.59353c-0.43336,-0.45042 -0.97298,-0.70957 -1.61885,-0.77745c-1.07071,-0.08511 -2.08624,0.08911 -3.0466,0.52265c-0.96036,0.43336 -1.83571,0.98995 -2.62603,1.66976c-0.79032,0.67981 -1.52113,1.41487 -2.19241,2.2052c-0.67145,0.79032 -1.28756,1.62747 -1.84833,2.51143l-3.33978,-2.932l8.15822,-11.06463zM107.81396,181.86617l6.37359,-7.215l3.00823,3.33978l-10.86048,11.19203c-1.47866,-1.39355 -2.54945,-3.05914 -3.21238,-4.99674c-0.66275,-1.93761 -0.74351,-3.90072 -0.24227,-5.88932c0.50141,-1.9886 1.49145,-3.68821 2.97011,-5.09882c1.47866,-1.41078 3.21229,-2.37959 5.2009,-2.90641c1.6487,-0.44189 3.34413,-0.55659 5.08629,-0.34408c1.74199,0.21233 3.30984,0.8582 4.70357,1.93761c1.39373,1.07923 2.4305,2.42188 3.1103,4.02794c0.67998,1.60623 1.04538,3.26764 1.0962,4.98421c0.01706,1.54671 -0.15707,3.06792 -0.52239,4.56364c-0.36549,1.49554 -0.95619,2.88066 -1.7721,4.15534l-5.02233,-2.11592c0.62881,-1.00283 1.12596,-2.08206 1.49145,-3.2377c0.36549,-1.15581 0.5652,-2.33712 0.59914,-3.54393c-0.05099,-1.05365 -0.26341,-2.0691 -0.63725,-3.04634c-0.37402,-0.97742 -0.9179,-1.8485 -1.63164,-2.61324c-0.56094,-0.59488 -1.22804,-1.0198 -2.00131,-1.27477c-0.77344,-0.25497 -1.56385,-0.31023 -2.37123,-0.16577c-0.80721,0.14445 -1.55071,0.40369 -2.23052,0.77771c-0.9179,0.47583 -1.75078,1.08768 -2.49863,1.83553c-0.74786,0.74786 -1.18549,1.64444 -1.31289,2.68973c-0.1274,1.0453 0.09781,2.02681 0.67563,2.94453zM88.8715,178.60288v8.33678h10.83516v3.82405h-24.09219v-3.82405h9.15261v-19.37583h4.10443v7.18941h8.97404v3.84963zM372.21668,175.87504l-0.35687,-4.38507c3.97703,-0.47583 8.04761,-0.88379 12.21174,-1.22386c2.70235,-0.11887 5.35379,-0.11887 7.95433,0l0.1274,4.48715c-0.56094,-0.05099 -1.21533,-0.10199 -1.96319,-0.15298c-1.78445,1.08776 -3.44151,2.28595 -4.97116,3.59458c-0.56094,0.49306 -1.09211,1.01997 -1.59353,1.58074c-0.50141,0.56094 -0.93478,1.18131 -1.30009,1.86112c-0.36549,0.67981 -0.55676,1.41914 -0.57382,2.21799c0.03411,0.476 0.21259,0.8669 0.53544,1.17269c0.32302,0.30597 0.66719,0.54823 1.0325,0.7268c0.36549,0.17839 0.73515,0.33555 1.109,0.47148c0.37402,0.13593 0.75647,0.26341 1.14737,0.38246c1.18975,0.32302 2.31145,0.54397 3.3651,0.66284l-2.60045,4.43598c-1.44455,-0.35679 -2.89771,-0.84967 -4.35949,-1.47866c-0.69686,-0.32285 -1.37249,-0.68398 -2.02689,-1.08341c-0.65422,-0.39943 -1.24057,-0.87534 -1.75904,-1.42775c-0.5183,-0.55241 -0.83697,-1.21098 -0.95601,-1.97572c-0.16986,-1.49572 0.05108,-2.92347 0.66284,-4.28326c0.61193,-1.35962 1.42349,-2.58757 2.43467,-3.68386c1.01136,-1.09629 2.29883,-2.21381 3.86243,-3.35257c-2.3795,0.06805 -4.52953,0.23383 -6.45008,0.49732c-1.92055,0.26333 -3.76461,0.582 -5.53218,0.95601zM231.10485,176.63969l-0.48427,-4.283l15.67918,-0.73933l1.96293,2.06501l-0.94322,14.2261l-15.80658,0.94322l-0.28038,-4.48715l11.57449,-0.53518l0.1274,-7.95433zM327.80544,184.39013v-15.67918h14.58271v15.67918h-3.87522v-1.12179h-1.65697v8.79547h-3.59484v-8.79547h-1.75904v1.12179zM348.60876,170.47025l5.43037,0.30597c-0.40795,1.66558 -0.79041,3.42462 -1.14737,5.27713c-0.35679,1.85268 -0.6202,3.71379 -0.79024,5.58335c-0.06805,0.64587 0.02541,1.27477 0.28038,1.8867c0.25497,0.61176 0.66719,1.08341 1.23666,1.41496c0.56929,0.33138 1.16834,0.50559 1.79716,0.52265c0.62899,0.01688 1.24936,-0.06814 1.86112,-0.25506c0.84985,-0.32302 1.6487,-0.71392 2.39656,-1.17269c0.74786,-0.45895 1.48719,-0.93913 2.21799,-1.44055c0.7308,-0.50141 1.44464,-1.0198 2.1415,-1.55515c0.69686,-0.53535 1.31724,-1.02398 1.86112,-1.46587l2.34539,4.81844c-1.03677,0.67981 -2.13724,1.35544 -3.3014,2.02689c-1.16417,0.67128 -2.34539,1.29165 -3.54367,1.86112c-1.19828,0.56929 -2.43476,1.00692 -3.70944,1.31289c-1.13876,0.23792 -2.27325,0.3399 -3.40348,0.30597c-1.13023,-0.03411 -2.23078,-0.24662 -3.30166,-0.63752c-0.76474,-0.30597 -1.43611,-0.75212 -2.0141,-1.33847c-0.57782,-0.58635 -0.98995,-1.27042 -1.23639,-2.05222c-0.24644,-0.7818 -0.36114,-1.59762 -0.34408,-2.44747c0.03394,-4.38499 0.44181,-8.70201 1.2236,-12.95107zM324.94993,178.80677l1.8867,-0.43336l0.48427,3.46718l-2.37097,0.58635v5.60894c0,0.86673 -0.08493,1.52957 -0.2548,1.98852c-0.17004,0.45895 -0.48453,0.82435 -0.94348,1.0962c-0.7308,0.45895 -2.05648,0.68842 -3.97703,0.68842c-0.10199,-0.95184 -0.43345,-2.07362 -0.99439,-3.36536c0.54388,0.01706 1.24075,0.02558 2.09059,0.02558c0.17004,0 0.28473,-0.02976 0.34408,-0.08928c0.05952,-0.05952 0.08928,-0.17422 0.08928,-0.34408v-4.69104l-2.06501,0.50986l-0.91764,-3.64574c0.76474,-0.13593 1.75896,-0.33138 2.98264,-0.58635v-4.05352h-2.65136v-3.49276h2.65136v-4.81844h3.64574v4.81844h2.29448v3.49276h-2.29448zM276.1792,190.53424l0.20389,-21.10929h4.89493l-0.10208,6.57748l9.81544,5.22648l-1.65723,4.07911l-8.20912,-4.69104l-0.15298,9.91726zM155.97303,170.39376l4.15534,0.28038c-0.37384,2.24357 -0.63725,4.49559 -0.79024,6.75605c-0.15298,2.26046 -0.11052,4.51247 0.1274,6.75605l1.86112,-0.94348l1.30035,3.62042l-6.34827,3.39069c-0.54388,-2.14159 -0.89649,-4.32564 -1.05783,-6.55216c-0.16151,-2.22652 -0.18274,-4.45304 -0.0637,-6.67956c0.11887,-2.22652 0.39081,-4.43598 0.81582,-6.62839zM252.18882,182.32512l0.10208,-4.69104l17.9734,-0.40778l-0.1274,4.79285zM163.97826,176.48697l-0.30597,-4.46157c1.17269,-0.23809 2.36245,-0.44633 3.56925,-0.62472c1.20663,-0.17839 2.41762,-0.29309 3.63295,-0.34408c1.21516,-0.05099 2.43459,0.03394 3.65827,0.2548l0.45895,3.44185l-4.94584,4.38507l-1.98852,-1.81021l1.83553,-1.80995c-2.02254,0.05099 -3.99409,0.37393 -5.91464,0.9688zM163.62113,188.08678l0.20415,-4.35949c1.81856,0.57782 3.6796,0.85829 5.58309,0.84141c1.29174,-0.03411 2.57495,-0.17865 3.84963,-0.43363c1.27486,-0.2548 2.53266,-0.55224 3.7734,-0.89231l0.15298,4.66572c-2.65153,0.54388 -5.32847,0.84976 -8.03082,0.91764c-1.88661,-0.01706 -3.73076,-0.2635 -5.53245,-0.73933zM404.13554,188.67313l-3.3651,2.90641c-1.63164,-2.00549 -3.47579,-3.90907 -5.53245,-5.71075l3.31446,-2.85525c0.88379,0.71375 1.88226,1.64426 2.99544,2.79155c1.11335,1.14728 1.9759,2.1033 2.58766,2.86804zM291.24644,173.68237l-2.03968,0.63752l-1.50424,-4.23209l1.91229,-0.68842zM287.93199,174.75325l-1.96293,0.63725l-1.52983,-4.10443l1.83579,-0.68842zM186.10726,185.43542l2.54954,-1.73372c-0.20398,-1.01971 -0.39943,-2.04795 -0.58635,-3.08472c-0.7818,0.54388 -1.34273,1.25345 -1.68281,2.12871c-0.3399,0.87526 -0.43336,1.77183 -0.28038,2.68973zM218.20469,186.14917c-0.37384,0.05099 -0.70095,0.21251 -0.98134,0.48453c-0.28056,0.27185 -0.39534,0.60323 -0.34434,0.99413c0.11904,0.35696 0.34852,0.57791 0.68842,0.66284c0.3399,0.08511 0.67554,0.10634 1.00692,0.0637c0.33155,-0.04247 0.65875,-0.11469 0.9816,-0.21668c0.84985,-0.2548 1.53818,-0.75613 2.06501,-1.50398c-1.10464,-0.42501 -2.2434,-0.58652 -3.41627,-0.48453zM196.62366,181.48371c-0.48436,-0.81573 -1.16843,-1.41905 -2.05222,-1.80995c-0.88379,-0.34008 -1.78454,-0.45912 -2.70226,-0.35713c0.16986,0.64587 0.32276,1.27477 0.45869,1.8867l2.24357,-1.52957M331.50209,177.68499v2.16708h1.75904v-2.16708zM333.26113,174.26872v-2.11592h-1.75904v2.11592zM336.85596,177.68499v2.16708h1.65697v-2.16708zM336.85596,174.26872h1.65697v-2.11592h-1.65697z"/></g></g></svg>