<svg version="1.1" xmlns="http://www.w3.org/2000/svg" xmlns:xlink="http://www.w3.org/1999/xlink" width="256.79638" height="28.02287" viewBox="0.13586,0.16089,256.79638,28.02287"><g transform="translate(-111.46595,-165.82768)"><g fill="#ffffff" fill-rule="evenodd" stroke="none" stroke-width="0" stroke-linecap="round" stroke-miterlimit="10"><path d="M285.31536,167.31231v21.57346h1.77421v3.74569h-17.01074v-3.52045l-1.29547,0.45047c-0.169,-0.91998 -0.55391,-2.30938 -1.15474,-4.16819v7.94213h-3.68945v-8.92787c-0.28167,2.89146 -0.79799,5.20093 -1.54897,6.92842c-1.03284,-0.63851 -2.08433,-1.14551 -3.15447,-1.521c0.676,-1.46447 1.11725,-3.68003 1.32374,-6.64666l3.37971,0.5915v-1.88697l-4.05571,0.28176l-0.36597,-3.60495l2.28121,-0.0845l1.01371,-1.352c-0.82597,-1.2203 -1.92427,-2.50645 -3.29492,-3.85845l1.94321,-2.92895l0.5915,0.507c0.78847,-1.67116 1.40804,-3.28589 1.85871,-4.84419l3.68945,1.2675c-1.53965,2.89146 -2.63805,4.85351 -3.29521,5.88616c0.05633,0.07498 0.15958,0.20168 0.30974,0.38011c0.15035,0.17842 0.25369,0.30512 0.31003,0.38011c0.90114,-1.46447 1.70846,-2.94769 2.42195,-4.44966l3.52045,1.46447c-1.48332,2.21546 -2.76947,4.06484 -3.85845,5.54816l2.67574,-1.18271c1.35181,2.38446 2.20604,4.44976 2.56269,6.1959l-3.15419,1.46447c-0.11267,-0.58198 -0.22533,-1.07014 -0.338,-1.46447l-1.12647,0.0845v2.22497l2.56269,-0.81674c0.845,1.99012 1.45525,3.7926 1.83074,5.40742l-1.32374,0.507h1.83074v-21.57346zM290.35652,173.67721l-0.0845,-4.53416l11.68811,-0.0845c-0.169,2.4033 -0.35684,4.78776 -0.56353,7.15337c0.60082,0 1.22049,0.02817 1.859,0.0845c1.05149,0.09382 2.0654,0.20649 3.04171,0.338l1.54897,-10.47685l4.50619,0.338l-1.54897,10.95558c1.78363,0.41318 3.54852,0.91075 5.29466,1.49274l-1.57724,4.39342c-1.44563,-0.54449 -2.90069,-1.03265 -4.36516,-1.46447l-1.69,11.96958l-4.64692,-0.5915l1.85871,-12.53282c-0.93882,-0.20649 -1.86823,-0.37549 -2.78821,-0.507c-0.67581,-0.07498 -1.31412,-0.13132 -1.91495,-0.169c-0.20668,1.42698 -0.43202,2.83522 -0.676,4.22471c-0.18784,1.07014 -0.58689,2.0652 -1.19713,2.98519c-0.61005,0.92018 -1.42208,1.6055 -2.43608,2.05597c-1.01381,0.45067 -2.05588,0.61034 -3.12621,0.47903c-0.76982,-0.03768 -1.49264,-0.23014 -2.16845,-0.57737c-0.676,-0.34742 -1.19232,-0.85442 -1.54897,-1.521c-0.35684,-0.66658 -0.56343,-1.37065 -0.61976,-2.11221c-0.05633,-0.74156 -0.03749,-1.47851 0.05653,-2.21084c0.13132,-1.33316 0.61947,-2.50193 1.46447,-3.50632c0.84481,-1.00458 1.86333,-1.76969 3.05555,-2.29534c1.19242,-0.52584 2.42695,-0.89201 3.70358,-1.0985c0.07518,-1.05149 0.13151,-2.12173 0.169,-3.21071zM320.60435,180.23937l-0.2535,-3.66119l7.32266,-0.30974l-0.28176,-2.56297l-8.30811,0.19697l-0.19726,-3.77395l8.1394,-0.39424l-0.2535,-2.45021l4.67519,-0.30974l0.19697,2.53471l7.66066,-0.36597l0.14074,4.19616l-7.49137,0.2535l0.19697,2.53471l6.33692,-0.28147l0.19697,3.68945l-6.25213,0.22524c0.07498,0.82616 0.15006,1.77431 0.22524,2.84445c2.62863,0.54449 5.26659,1.3519 7.91387,2.42224l-2.11221,4.61866c-1.95263,-1.29547 -3.85835,-2.27179 -5.71716,-2.92895c-0.01884,1.01381 -0.06575,1.8963 -0.14074,2.64747c-0.22533,1.25798 -0.87788,2.24372 -1.95763,2.95721c-1.07956,0.71349 -2.22949,1.08898 -3.44979,1.12647c-0.90133,0.05633 -1.79796,0 -2.68987,-0.169c-0.89172,-0.169 -1.7272,-0.49758 -2.50645,-0.98574c-0.77925,-0.48816 -1.38949,-1.14061 -1.83074,-1.95734c-0.44125,-0.81674 -0.65245,-1.6851 -0.63361,-2.60508c-0.07518,-1.42698 0.41298,-2.54884 1.46447,-3.36558c1.05149,-0.81674 2.21565,-1.37536 3.49247,-1.67587c1.27663,-0.30032 2.54394,-0.48806 3.80192,-0.56324c-0.05633,-0.80732 -0.13141,-1.53955 -0.22524,-2.19671zM233.91658,175.36721l-0.22524,-4.39371l7.49137,-0.39424l1.6055,-3.88671l4.39342,0.56353l-1.43621,3.06969l5.12566,-0.28147l-0.22524,4.39342l-7.01263,0.36597l-1.183,2.50674c1.48332,0.30032 2.8258,0.92931 4.02745,1.88697c1.61463,-0.65716 3.28098,-1.03736 4.99905,-1.14061c1.71788,-0.10325 3.44056,-0.0423 5.16805,0.18284l-0.11276,3.91497c-2.38446,-0.30051 -4.73142,-0.20668 -7.0409,0.28147c0.80732,0.99516 1.61463,1.99964 2.42195,3.01345l-4.59069,1.859c-0.58198,-0.95767 -1.22972,-1.87775 -1.94321,-2.76024c-0.41298,0.41318 -0.72272,0.8873 -0.92921,1.42237c-0.20668,0.53507 -0.22082,1.07956 -0.04239,1.63347c0.17842,0.55391 0.52113,0.9717 1.02813,1.25337c0.56314,0.24398 1.14983,0.38953 1.76008,0.43663c0.61025,0.04691 1.22049,0.06095 1.83074,0.04211c0.61025,-0.01884 1.22511,-0.06575 1.84458,-0.14074l-0.11247,4.50619c-2.32832,0.43182 -4.63779,0.35675 -6.92842,-0.22524c-1.61463,-0.43202 -2.69891,-1.38959 -3.25282,-2.87271c-0.55391,-1.48332 -0.61496,-2.97134 -0.18313,-4.46408c0.43182,-1.49274 1.15474,-2.83051 2.16874,-4.01332c-1.85881,-0.82616 -3.80212,-1.16416 -5.82992,-1.014l2.53471,-6.05516zM140.04717,182.07011l7.0409,-7.9704l3.32319,3.68945l-11.99756,12.36382c-1.63347,-1.53965 -2.81638,-3.37971 -3.54871,-5.52019c-0.73233,-2.14028 -0.82154,-4.30883 -0.26763,-6.50563c0.55391,-2.19681 1.64761,-4.07436 3.28108,-5.63266c1.63347,-1.55849 3.54862,-2.62873 5.74542,-3.21071c1.82132,-0.48816 3.69426,-0.61496 5.61882,-0.38039c1.92437,0.23475 3.65638,0.94825 5.19603,2.14047c1.53965,1.19223 2.68497,2.67554 3.43595,4.44995c0.75098,1.7744 1.15464,3.60976 1.21097,5.50605c0.01884,1.70865 -0.17361,3.38904 -0.57737,5.04116c-0.40356,1.65232 -1.05601,3.18254 -1.95734,4.59069l-5.54816,-2.33745c0.69465,-1.10782 1.24385,-2.30015 1.64761,-3.57697c0.40375,-1.27663 0.62438,-2.58153 0.66187,-3.91469c-0.05633,-1.16397 -0.29099,-2.28583 -0.70397,-3.36558c-0.41318,-1.07956 -1.014,-2.04175 -1.80247,-2.88655c-0.61967,-0.65716 -1.35671,-1.12657 -2.21113,-1.40824c-0.85423,-0.28167 -1.7273,-0.34271 -2.61921,-0.18313c-0.89172,0.15958 -1.71307,0.44586 -2.46405,0.85884c-1.014,0.52584 -1.93408,1.20184 -2.76024,2.028c-0.82616,0.82616 -1.30961,1.81651 -1.45034,2.97105c-0.14074,1.15474 0.10805,2.23911 0.74637,3.25311zM343.47328,175.67695l-0.22524,-4.64721c4.41227,-0.37549 8.8527,-0.6759 13.3213,-0.90124c-0.09382,-0.93863 -0.18765,-1.88678 -0.28147,-2.84445l5.15392,-0.30974l0.05624,3.04171c2.25314,0 4.51561,0.01875 6.7874,0.05624l0.11276,4.64692c-2.30947,-0.07498 -4.60953,-0.1219 -6.90016,-0.14074c0,1.72749 -0.0845,3.45489 -0.2535,5.18219c0.35665,0.84481 0.60073,1.84929 0.73224,3.01345c0.09382,1.27682 0.07508,2.54423 -0.05624,3.80221c-0.13151,1.25798 -0.32396,2.50654 -0.57737,3.74569c-0.2536,1.23914 -0.5493,2.46896 -0.88711,3.68945l-5.35119,-0.45076c0.58198,-1.42679 1.10773,-2.90069 1.57724,-4.42169c-0.65716,0.46951 -1.36132,0.77934 -2.1125,0.9295c-0.86365,0.24418 -1.69442,0.20197 -2.49232,-0.12661c-0.7979,-0.32858 -1.44102,-0.8449 -1.92937,-1.54897c-0.48816,-0.70426 -0.84481,-1.46005 -1.06995,-2.26737c-0.22533,-0.80732 -0.31925,-1.6428 -0.28176,-2.50645c-0.01884,-1.183 0.22053,-2.32832 0.71811,-3.43595c0.49758,-1.10782 1.24866,-1.99974 2.25324,-2.67574c1.00439,-0.67581 2.11683,-1.04188 3.33732,-1.09821c0.69465,-0.01884 1.33306,0.01865 1.91524,0.11247l-0.11276,-1.85871c-4.48744,0.22533 -8.96546,0.56333 -13.43406,1.014zM163.2541,176.29642l-0.53526,-4.73142l17.32077,-0.81674l2.16845,2.28121l-1.04197,15.71527l-17.46151,1.04226l-0.30974,-4.95695l12.78632,-0.5915l0.14074,-8.78685zM213.04738,191.64572l0.22524,-23.31969h5.40742l-0.11276,7.26642l10.84311,5.7734l-1.83074,4.50619l-9.06861,-5.1819l-0.169,10.95558zM112.08055,175.53592l-0.47874,-4.90042c1.78363,-0.28167 3.58611,-0.51632 5.40742,-0.70397c1.82132,-0.18784 3.64725,-0.30993 5.47779,-0.36626c1.83074,-0.05633 3.65667,0.02817 5.47779,0.2535l0.73224,3.80221l-7.40687,6.1114l-3.06997,-3.23869l2.73197,-2.02771c-2.98528,0.05633 -5.94249,0.41298 -8.87163,1.06995zM186.54524,182.57711l0.11276,-5.18219l19.85548,-0.45076l-0.14103,5.29495zM111.68632,190.54722l0.30974,-4.81592c2.7413,0.43182 5.52009,0.63832 8.33637,0.61947c3.13563,-0.05614 6.27127,-0.36588 9.4069,-0.92921l0.19697,5.18219c-3.28579,0.52565 -6.58091,0.77905 -9.88535,0.76021c-2.83512,0 -5.62334,-0.27225 -8.36463,-0.81674zM355.35836,186.06929c0.43182,-0.01884 0.77444,-0.20659 1.02784,-0.56324c0.2536,-0.35684 0.40856,-0.74175 0.46489,-1.15474c0.22533,-1.35181 0.30983,-2.71304 0.2535,-4.08369c-0.20668,-0.26282 -0.47893,-0.45057 -0.81674,-0.56324c-0.97651,-0.24418 -1.7745,-0.00481 -2.39397,0.71811c-0.61967,0.72291 -0.90133,1.54436 -0.845,2.46434c0,0.39433 0.01875,0.77925 0.05624,1.15474c0.03768,0.37549 0.14103,0.73685 0.31003,1.08408c0.16881,0.34742 0.43634,0.59621 0.80261,0.74637c0.36607,0.15035 0.74627,0.2161 1.14061,0.19726zM281.06267,185.28082h-4.47821v3.60495h4.47821zM276.58446,181.50687h4.47821v-3.40797h-4.47821zM281.06267,174.32495v-3.26695h-4.47821v3.26695zM296.27094,184.26682c0.26282,-0.63832 0.44586,-1.29076 0.54911,-1.95734c0.10325,-0.66658 0.2112,-1.34719 0.32387,-2.04184c-0.99497,0.169 -1.92437,0.53036 -2.78821,1.08408c-0.86365,0.55391 -1.3893,1.34719 -1.57695,2.37984c-0.11267,0.95767 0.30041,1.51158 1.23924,1.66174c0.99497,0.09382 1.74595,-0.28167 2.25295,-1.12647zM229.69215,173.02947l-2.25324,0.70397l-1.66174,-4.6749l2.1125,-0.7605zM328.49025,188.40674c0.07498,-0.84481 0.10315,-1.70846 0.0845,-2.59095c-0.09402,-0.01884 -0.17852,-0.02826 -0.2535,-0.02826c-0.54449,0.01884 -1.10311,0.04701 -1.67587,0.0845c-0.57256,0.03768 -1.11234,0.20197 -1.61934,0.49287c-0.507,0.29109 -0.7605,0.75579 -0.7605,1.39411c-0.09382,0.676 0.09863,1.22991 0.57737,1.66174c0.47893,0.43182 1.04697,0.5914 1.70413,0.47874c0.28147,-0.03749 0.57718,-0.08911 0.88711,-0.15487c0.30974,-0.06575 0.55853,-0.22533 0.74637,-0.47874c0.18765,-0.2534 0.2909,-0.53978 0.30974,-0.85913zM226.03068,174.21247l-2.16845,0.70397l-1.69,-4.53445l2.028,-0.76021zM265.54438,178.32413l1.99974,-0.0845c-0.338,-0.80732 -0.57275,-1.33297 -0.70426,-1.57695c-0.52565,0.71349 -0.95747,1.26731 -1.29547,1.66145z"/></g></g></svg>