<svg version="1.1" xmlns="http://www.w3.org/2000/svg" xmlns:xlink="http://www.w3.org/1999/xlink" width="384.204" height="26.99302" viewBox="0,0,384.204,26.99302"><g transform="translate(-47.898,-166.50349)"><g fill="#ffffff" fill-rule="evenodd" stroke="none" stroke-width="0" stroke-linecap="round" stroke-miterlimit="10"><path d="M75.75653,175.13142l-0.02714,-7.51897l4.48984,-0.24345l-0.08115,9.11483l6.6266,-5.3282l3.59719,1.21697c-0.34251,1.91141 -0.66702,3.81829 -0.97352,5.72066c-0.3065,1.90218 -0.54995,3.79992 -0.73035,5.69324c-0.0541,0.3606 0,0.69425 0.1623,1.00094c0.1623,0.3065 0.44175,0.45071 0.83836,0.43262c0.39679,-0.01809 0.78445,-0.10377 1.16296,-0.25702c0.3787,-0.15325 0.74835,-0.31998 1.10896,-0.50019c1.1902,-0.6311 2.3623,-1.29831 3.51631,-2.00161l0.89237,4.65214c-1.60472,1.0639 -3.32669,1.83931 -5.1659,2.32621c-1.13591,0.32442 -2.27645,0.31537 -3.42159,-0.02714c-1.14496,-0.34269 -2.04647,-1.00537 -2.70454,-1.98804c-0.65825,-0.98266 -0.90622,-2.0871 -0.74392,-3.3133c0.18039,-2.27183 0.43289,-4.56175 0.75749,-6.86977l-4.94959,4.32754l-0.10829,11.65706l-4.19238,0.10829l-0.02687,-8.24932c-1.42451,1.73101 -2.76787,3.51613 -4.03008,5.35534l-3.00227,-3.21858c2.19982,-2.57852 4.48984,-5.09389 6.87005,-7.54611l-6.76176,-3.65147l1.21697,-4.08409zM386.20298,180.27045l-0.24345,-3.51604l7.03235,-0.29746l-0.27032,-2.46136l-7.97901,0.18917l-0.18944,-3.62433l7.81671,-0.37861l-0.24345,-2.35307l4.48984,-0.29746l0.18944,2.43422l7.35667,-0.35174l0.13516,4.03008l-7.19437,0.24345l0.18917,2.43422l6.08569,-0.27032l0.18944,3.54318l-6.00454,0.21631c0.07219,0.7934 0.1443,1.70396 0.21631,2.73168c2.52442,0.5229 5.05788,1.29831 7.6004,2.32621l-2.02875,4.43555c-1.87522,-1.24411 -3.70539,-2.18172 -5.4905,-2.81283c-0.01791,0.97361 -0.06296,1.82112 -0.13516,2.54251c-0.2164,1.20811 -0.84298,2.15477 -1.87974,2.83997c-1.03676,0.6852 -2.1412,1.04581 -3.3133,1.08181c-0.8656,0.0541 -1.72658,0 -2.58295,-0.1623c-0.85655,-0.1623 -1.659,-0.47785 -2.40736,-0.94666c-0.74817,-0.4688 -1.33413,-1.09539 -1.75788,-1.87974c-0.42375,-0.78436 -0.62667,-1.61829 -0.60876,-2.5018c-0.07201,-1.37041 0.39689,-2.44779 1.40669,-3.23215c1.00962,-0.78436 2.12753,-1.32083 3.35374,-1.60943c1.2262,-0.28841 2.44336,-0.46871 3.65147,-0.54091c-0.0541,-0.77531 -0.12629,-1.47852 -0.21658,-2.10962zM98.368,175.59145l-0.21658,-4.21952l7.19465,-0.37861l1.54157,-3.73262l4.21952,0.54118l-1.37955,2.94799l4.92273,-0.27059l-0.21658,4.21952l-6.73461,0.35147l-1.1361,2.40736c1.42451,0.28841 2.71377,0.89246 3.86778,1.81216c1.5508,-0.6311 3.15109,-0.99623 4.80086,-1.09539c1.64996,-0.09915 3.30434,-0.04062 4.96316,0.17559l-0.10802,3.75976c-2.29011,-0.28859 -4.54412,-0.19849 -6.76203,0.27032c0.77549,0.9557 1.5509,1.92036 2.32621,2.89398l-4.40869,1.7853c-0.55891,-0.9197 -1.18097,-1.8033 -1.86617,-2.65081c-0.39679,0.39679 -0.69434,0.85212 -0.89265,1.36598c-0.1983,0.51386 -0.21178,1.03676 -0.04044,1.56871c0.17116,0.53195 0.50019,0.93318 0.98709,1.20368c0.541,0.23431 1.10443,0.37408 1.6903,0.41932c0.58605,0.04505 1.1721,0.05853 1.75816,0.04044c0.58605,-0.01809 1.17663,-0.06315 1.77173,-0.13516l-0.10829,4.32754c-2.23582,0.4147 -4.45365,0.34251 -6.65346,-0.21658c-1.5508,-0.4147 -2.59218,-1.33422 -3.12413,-2.75854c-0.53195,-1.42451 -0.59048,-2.85354 -0.17559,-4.2871c0.4147,-1.43356 1.10886,-2.71829 2.08248,-3.85421c-1.78511,-0.7934 -3.65138,-1.118 -5.59879,-0.9738l2.43422,-5.8151zM359.1831,175.59145v-4.08436c1.87522,0 3.75044,-0.018 5.62566,-0.05401c0.07219,-1.35231 0.16239,-2.72272 0.27059,-4.11123l4.48984,0.10829c-0.09011,1.3344 -0.17126,2.65967 -0.24345,3.97579c2.66862,-0.12611 5.34629,-0.30641 8.03301,-0.54091v4.16524c-2.75891,0.25259 -5.50869,0.43298 -8.24932,0.54118c-0.07219,1.56871 -0.13534,3.14638 -0.18944,4.73301c1.76702,-0.43262 3.55213,-0.63092 5.35534,-0.59491c0.86541,0.01809 1.7084,0.20744 2.52894,0.56805c0.82036,0.3606 1.50104,0.90151 2.04204,1.62272c0.541,0.72121 0.87908,1.51914 1.01424,2.39378c0.13516,0.87446 0.08558,1.7444 -0.14873,2.60982c-0.39679,1.0098 -0.94223,1.91593 -1.63629,2.71838c-0.69425,0.80245 -1.46965,1.51923 -2.32621,2.15034c-0.85637,0.6311 -1.7444,1.18106 -2.6641,1.64986l-3.75949,-3.32687c0.50481,-0.1623 1.00066,-0.35617 1.48756,-0.58162c0.4869,-0.22526 0.96475,-0.46419 1.43356,-0.71678c0.4688,-0.2524 0.91961,-0.54534 1.35241,-0.8788c0.43262,-0.33365 0.77522,-0.74392 1.02781,-1.23082c0.16212,-0.45071 0.23422,-0.94204 0.21631,-1.47399c-0.01809,-0.53195 -0.22102,-0.96918 -0.60876,-1.31169c-0.38756,-0.34269 -0.8428,-0.48699 -1.3657,-0.43289c-1.0098,0.09011 -1.99708,0.27493 -2.96183,0.55448c-0.96457,0.27955 -1.91113,0.5951 -2.83969,0.94666c-0.92875,0.35156 -1.84392,0.70764 -2.74553,1.06824v-2.59652c-0.01791,-0.54081 -0.01791,-1.24402 0,-2.10962c0.0541,-1.91122 0.1443,-3.81349 0.27059,-5.70681c-1.82112,0 -3.62424,-0.018 -5.40935,-0.05401zM408.16526,175.88891l-0.21631,-4.46297c4.23734,-0.3606 8.50173,-0.64911 12.79316,-0.86551c-0.09011,-0.90142 -0.18021,-1.81198 -0.27032,-2.73168l4.94959,-0.29746l0.05401,2.92112c2.16381,0 4.33658,0.018 6.51831,0.05401l0.10829,4.46269c-2.21791,-0.07201 -4.42678,-0.11706 -6.6266,-0.13516c0,1.659 -0.08115,3.31792 -0.24345,4.97673c0.34269,0.81131 0.5771,1.77597 0.70321,2.89398c0.09029,1.2262 0.07229,2.44336 -0.05401,3.65147c-0.12611,1.20811 -0.31094,2.40717 -0.55448,3.59719c-0.24336,1.19001 -0.52734,2.37107 -0.85194,3.54318l-5.13903,-0.43289c0.55909,-1.37022 1.064,-2.78569 1.51471,-4.24639c-0.6311,0.45089 -1.30726,0.74844 -2.02847,0.89265c-0.82941,0.23449 -1.62734,0.19397 -2.39378,-0.12159c-0.76626,-0.31555 -1.3838,-0.81141 -1.8526,-1.48756c-0.4688,-0.67634 -0.81141,-1.40217 -1.02781,-2.17748c-0.2164,-0.77531 -0.3066,-1.57767 -0.27059,-2.40708c-0.01791,-1.1361 0.21206,-2.23601 0.68991,-3.29973c0.47767,-1.0639 1.19888,-1.92046 2.16363,-2.56966c0.96475,-0.64901 2.03309,-1.00057 3.20501,-1.05467c0.66729,-0.01809 1.2804,0.01791 1.83931,0.10802l-0.10829,-1.78502c-4.30953,0.2164 -8.61002,0.541 -12.90146,0.9738zM207.50305,174.91511v-4.5167l15.93059,-0.78463l2.10962,3.21886c-1.69482,2.50632 -3.48889,4.92245 -5.38221,7.24838l7.70841,5.49078l-3.19171,4.1921l-7.41096,-6.43716l-0.35147,0.35174c-2.66862,2.66862 -5.3643,5.2922 -8.08702,7.87071l-3.21858,-4.00294c2.65053,-2.07371 5.20191,-4.28258 7.65413,-6.6266c2.12781,-2.03752 4.12028,-4.21934 5.9774,-6.54545zM306.79291,170.72273l3.8675,-3.21858c1.2803,1.98342 2.57861,3.93988 3.89492,5.86938c1.04581,1.46051 2.25392,2.77682 3.62433,3.94893c2.10971,-1.3525 4.29153,-2.58766 6.54545,-3.70548l3.21858,4.30039c-1.85731,0.6852 -3.68748,1.44251 -5.4905,2.27192c-1.80321,0.82941 -3.51622,1.81216 -5.13903,2.94826c-0.34269,0.27032 -0.67625,0.54977 -1.00066,0.83836c-0.3246,0.28841 -0.61763,0.60849 -0.87908,0.96023c-0.26145,0.35156 -0.38322,0.75269 -0.36531,1.2034c0.0541,0.30669 0.20292,0.55014 0.44646,0.73035c0.24336,0.18039 0.50933,0.31112 0.79793,0.39218c0.28841,0.08124 0.58587,0.14891 0.89237,0.20301c2.77682,0.39661 5.43649,-0.00914 7.97901,-1.21725l0.43262,4.86844c-2.77682,0.66711 -5.5807,0.91961 -8.41162,0.75749c-0.88351,-0.0541 -1.75354,-0.17135 -2.61009,-0.35174c-0.85637,-0.18039 -1.68125,-0.4689 -2.47466,-0.86551c-0.7934,-0.39661 -1.42903,-0.96909 -1.90689,-1.71744c-0.47785,-0.74835 -0.69868,-1.57333 -0.66249,-2.47493c0.03601,-0.72121 0.22979,-1.39284 0.58134,-2.0149c0.35156,-0.62206 0.76183,-1.19454 1.23082,-1.71744c0.4688,-0.5229 0.96909,-1.01876 1.50086,-1.48756c0.53195,-0.4688 1.08643,-0.92865 1.66344,-1.37955c-0.99171,-0.93761 -1.94732,-1.92027 -2.86684,-2.94799c-1.73101,-1.96551 -3.35383,-4.03017 -4.86844,-6.19398zM180.21229,175.67233l-0.37861,-4.65186c4.21943,-0.50499 8.53801,-0.93779 12.95574,-1.2984c2.86693,-0.12611 5.67976,-0.12611 8.43849,0l0.13543,4.76043c-0.5951,-0.0541 -1.28935,-0.1082 -2.08276,-0.1623c-1.89331,1.15401 -3.65138,2.42517 -5.27419,3.81349c-0.5951,0.5229 -1.15853,1.08191 -1.6903,1.67701c-0.53195,0.5951 -0.9918,1.25325 -1.37955,1.97446c-0.38775,0.72121 -0.59058,1.50557 -0.60849,2.35307c0.03601,0.50481 0.22535,0.91951 0.56805,1.24411c0.34251,0.3246 0.70764,0.58153 1.09539,0.77079c0.38756,0.18944 0.77974,0.35627 1.17654,0.50047c0.39661,0.14421 0.80227,0.27945 1.21697,0.40575c1.26221,0.34251 2.45232,0.57691 3.57032,0.70321l-2.75882,4.70614c-1.53271,-0.3787 -3.07437,-0.9016 -4.62499,-1.56871c-0.7393,-0.34269 -1.45608,-0.72583 -2.15034,-1.14939c-0.69425,-0.42375 -1.31631,-0.92865 -1.86617,-1.51471c-0.55005,-0.58605 -0.88813,-1.28483 -1.01424,-2.09633c-0.18039,-1.58662 0.05401,-3.10124 0.70321,-4.54384c0.64901,-1.44242 1.51,-2.74516 2.58295,-3.90821c1.07277,-1.16306 2.43865,-2.34864 4.09766,-3.55675c-2.52442,0.07219 -4.80539,0.24797 -6.84291,0.52734c-2.03752,0.27955 -3.99398,0.61763 -5.86938,1.01424zM279.66446,175.64546l-0.05401,-4.76043l18.50025,-0.1623c-0.07219,-0.27032 -0.10829,-0.54977 -0.10829,-0.83836c0,-0.9557 0.3426,-1.75363 1.02781,-2.39378c0.6852,-0.63997 1.50566,-0.969 2.46136,-0.98709c0.93761,0.01809 1.74902,0.34713 2.43422,0.98709c0.6852,0.64015 1.03685,1.43808 1.05495,2.39378c-0.01809,0.9557 -0.36974,1.75806 -1.05495,2.40708c-0.6852,0.6492 -1.49661,0.9738 -2.43422,0.9738c-0.6311,-0.01809 -1.21716,-0.1623 -1.75816,-0.43262l0.1623,0.81122c-0.3065,2.27201 -0.78426,4.48993 -1.43328,6.65374c-0.6492,2.16363 -1.4066,4.29135 -2.2722,6.38315c-0.86541,2.09162 -1.81207,4.13819 -2.83997,6.1397l-4.92245,-1.51471c1.4967,-2.41622 2.73186,-4.96316 3.70548,-7.64084c0.97361,-2.67767 1.71292,-5.42292 2.21791,-8.23575zM338.30263,178.64773l2.78596,-0.6492l0.4869,3.86778c-1.4426,0.3606 -2.53356,0.63101 -3.27286,0.81122v5.73423c0,0.97361 -0.10368,1.72187 -0.31103,2.24478c-0.20735,0.5229 -0.57248,0.93761 -1.09539,1.24411c-0.8475,0.50499 -2.37117,0.75749 -4.57099,0.75749c-0.1082,-1.1361 -0.48681,-2.39831 -1.13582,-3.78663c0.64901,0.03601 1.47842,0.05401 2.48823,0.05401c0.3606,0 0.54091,-0.1803 0.54091,-0.54091v-4.70614l-2.51537,0.62206l-1.05495,-4.03008c0.8475,-0.1623 2.03761,-0.3967 3.57032,-0.70321v-4.13809h-3.27259v-3.78663h3.27259v-5.11189h4.08409v5.11189h2.75882v3.78663h-2.75882zM133.0963,184.70628v-16.63408h15.47111v16.63408h-4.11123v-1.19011h-1.75816v9.33114h-3.81349v-9.33114h-1.86645v1.19011zM341.65665,168.5051h15.09223v4.05694h-4.13837v15.25453c0,1.118 -0.14421,1.98804 -0.43262,2.61009c-0.28859,0.62206 -0.77549,1.10443 -1.4607,1.44713c-1.04581,0.54081 -3.01123,0.81122 -5.89625,0.81122c-0.09011,-0.61301 -0.29746,-1.35675 -0.62206,-2.23121c-0.3246,-0.87465 -0.64911,-1.60047 -0.97352,-2.17748c0.82941,0.07219 2.23582,0.10829 4.21924,0.10829c0.5229,0 0.78436,-0.2164 0.78436,-0.6492v-15.17338h-6.57231zM155.16687,169.93838l5.76082,0.3246c-0.43262,1.7672 -0.83827,3.63347 -1.21697,5.59879c-0.3787,1.96551 -0.65815,3.93997 -0.83836,5.92339c-0.07219,0.6852 0.02696,1.35231 0.29746,2.00133c0.2705,0.6492 0.70773,1.14958 1.31169,1.50114c0.60415,0.35174 1.23978,0.53657 1.90689,0.55448c0.66711,0.01809 1.32526,-0.07201 1.97446,-0.27032c0.9016,-0.34269 1.74911,-0.75749 2.54251,-1.24439c0.79322,-0.48672 1.57758,-0.99605 2.35307,-1.528c0.77531,-0.53195 1.53262,-1.08191 2.27192,-1.64986c0.7393,-0.56796 1.39746,-1.08634 1.97446,-1.55514l2.48823,5.11189c-1.09991,0.72121 -2.2674,1.4379 -3.50246,2.15006c-1.23525,0.71235 -2.48851,1.3705 -3.75976,1.97446c-1.27107,0.60415 -2.58286,1.06852 -3.93536,1.39312c-1.20811,0.2524 -2.4117,0.36051 -3.61076,0.32432c-1.19906,-0.03601 -2.36655,-0.26136 -3.50246,-0.67606c-0.8115,-0.3246 -1.52375,-0.79793 -2.13676,-1.41999c-0.61301,-0.62206 -1.05024,-1.34779 -1.31169,-2.1772c-0.26145,-0.82941 -0.38322,-1.69492 -0.36531,-2.59652c0.03619,-4.65223 0.46899,-9.23226 1.2984,-13.7401zM130.06717,178.78289l2.00133,-0.45976l0.51404,3.67834l-2.51537,0.62206v5.95053c0,0.91951 -0.0902,1.62272 -0.27059,2.10962c-0.18021,0.48672 -0.51377,0.87437 -1.00066,1.16296c-0.77531,0.4869 -2.18182,0.73035 -4.21952,0.73035c-0.10802,-1.0098 -0.45957,-2.19991 -1.05467,-3.57032c0.577,0.01809 1.31631,0.02714 2.21791,0.02714c0.18021,0 0.30189,-0.03157 0.36504,-0.09472c0.06315,-0.06315 0.09472,-0.18483 0.09472,-0.36504v-4.97673l-2.19077,0.54091l-0.9738,-3.86778c0.8115,-0.14421 1.86636,-0.35156 3.16457,-0.62206v-4.30039h-2.81283v-3.70548h2.81283v-5.11189h3.86778v5.11189h2.43422v3.70548h-2.43422zM234.33377,191.22459l0.21631,-22.39517h5.19304l-0.10829,6.97834l10.41323,5.54451l-1.75816,4.32754l-8.70908,-4.97646l-0.1623,10.52124zM48.35776,175.75348l-0.45976,-4.70614c1.71292,-0.2705 3.44393,-0.49585 5.19304,-0.67606c1.74911,-0.18039 3.50265,-0.29764 5.26062,-0.35174c1.75816,-0.0541 3.5117,0.02705 5.26062,0.24345l0.70321,3.65147l-7.11322,5.86911l-2.94826,-3.11029l2.62366,-1.94732c-2.86693,0.05392 -5.7069,0.39643 -8.51991,1.02753zM271.8749,175.13142l4.21952,1.75816c-0.3065,0.8115 -0.64006,1.50575 -1.00066,2.08276c-0.36079,0.577 -0.73949,1.16296 -1.1361,1.75788c-1.24411,1.7672 -2.53337,3.50727 -3.86778,5.22018c-1.78511,2.27201 -3.62433,4.56203 -5.51764,6.87005l-3.81349,-2.32621c2.12762,-2.50632 4.10652,-4.99917 5.93669,-7.47854c1.83017,-2.47937 3.55666,-5.10746 5.17947,-7.88428zM47.97915,190.16964l0.29746,-4.62499c2.63262,0.4147 5.30124,0.61301 8.00587,0.59491c3.01132,-0.0541 6.02264,-0.35156 9.03396,-0.89237l0.18917,4.97673c-3.15552,0.50481 -6.32,0.74817 -9.49344,0.73007c-2.72272,0 -5.40039,-0.26145 -8.03301,-0.78436zM258.10793,184.02994l-4.21924,-6.1397l3.27259,-2.10962l4.30067,6.27486zM262.78721,181.35227l-2.75882,-6.65346l3.70548,-1.51471l2.83997,6.89691zM419.57915,185.86925c0.4147,-0.01809 0.74383,-0.1984 0.98737,-0.54091c0.24336,-0.34269 0.39209,-0.71235 0.44619,-1.10896c0.2164,-1.29821 0.29755,-2.60548 0.24345,-3.92179c-0.1983,-0.2524 -0.45976,-0.43271 -0.78436,-0.54091c-0.93761,-0.23449 -1.70396,-0.00462 -2.29906,0.68964c-0.5951,0.69425 -0.8656,1.48313 -0.8115,2.36664c0,0.3787 0.01809,0.74835 0.05428,1.10896c0.03601,0.3606 0.13516,0.70764 0.29746,1.0411c0.1623,0.33365 0.41923,0.57257 0.77079,0.71678c0.35156,0.14439 0.71669,0.20754 1.09539,0.18944zM393.77624,188.11403c0.07219,-0.81131 0.09924,-1.64072 0.08115,-2.48823c-0.09011,-0.01809 -0.17126,-0.02714 -0.24345,-0.02714c-0.5229,0.01809 -1.05929,0.04514 -1.60915,0.08115c-0.55005,0.03619 -1.06852,0.19397 -1.55542,0.47333c-0.48672,0.27955 -0.73007,0.72583 -0.73007,1.33884c-0.09029,0.6492 0.09454,1.18115 0.55448,1.59586c0.45976,0.4147 1.00519,0.56796 1.63629,0.45976c0.2705,-0.03601 0.55448,-0.08558 0.85194,-0.14873c0.29746,-0.06315 0.53638,-0.2164 0.71678,-0.45976c0.18021,-0.24336 0.27936,-0.51838 0.29746,-0.82507zM299.32795,169.93838c0,0.61319 0.21631,1.1181 0.64892,1.51471c0.4328,0.39679 0.94675,0.59519 1.54185,0.59519c0.59491,0 1.09972,-0.1984 1.51443,-0.59519c0.41489,-0.39661 0.64034,-0.90151 0.67634,-1.51471c-0.03601,-0.577 -0.26145,-1.06834 -0.67634,-1.47399c-0.4147,-0.40566 -0.91951,-0.61753 -1.51443,-0.63563c-0.5951,0.01809 -1.10453,0.22997 -1.52828,0.63563c-0.42375,0.40566 -0.64458,0.89699 -0.66249,1.47399zM137.01809,177.59278v2.29906h1.86645v-2.29906zM138.88454,173.96845v-2.24478h-1.86645v2.24478zM142.69803,177.59278v2.29906h1.75816v-2.29906zM142.69803,173.96845h1.75816v-2.24478h-1.75816z"/></g></g></svg>