<svg version="1.1" xmlns="http://www.w3.org/2000/svg" xmlns:xlink="http://www.w3.org/1999/xlink" width="248.48299" height="27.97686" viewBox="0,0,248.48299,27.97686"><g transform="translate(-115.75851,-166.01157)"><g fill="#ffffff" fill-rule="evenodd" stroke="none" stroke-width="0" stroke-linecap="round" stroke-miterlimit="10"><path d="M322.69311,189.53883h3.11487c0.50044,0 0.8249,-0.12976 0.97336,-0.38929c0.14828,-0.25953 0.25953,-0.89913 0.33376,-1.91882c0.8156,0.61169 2.02987,1.08442 3.64284,1.41818c-0.22231,1.77984 -0.65792,2.98036 -1.30683,3.60155c-0.64891,0.621 -1.73352,0.9315 -3.25384,0.9315h-4.03242c-2.00235,0 -3.33728,-0.3198 -4.00479,-0.95941c-0.66732,-0.63961 -1.00099,-1.82152 -1.00099,-3.54573v-3.28174h3.83763c-0.27813,-0.2039 -0.60258,-0.4263 -0.97336,-0.66723l1.94672,-1.61297h-5.75673v-6.28527h8.31515v4.00479c0.68612,-0.42641 1.39065,-0.97336 2.1136,-1.64087c-0.87122,-2.00235 -1.52013,-4.31984 -1.94672,-6.9525h-8.78787v1.16814c0,5.41357 -1.11243,9.43668 -3.33728,12.06934c-0.31515,-0.37078 -0.80183,-0.82964 -1.46004,-1.3766c-0.65802,-0.54677 -1.18172,-0.9222 -1.5711,-1.12629c1.05671,-1.24219 1.74728,-2.67442 2.07174,-4.29669c0.32445,-1.62208 0.48668,-3.39727 0.48668,-5.32558v-4.33826h12.20859c-0.07404,-1.11233 -0.12036,-1.95593 -0.13897,-2.53079h3.86554c0.03702,1.13094 0.08334,1.97454 0.13897,2.53079h1.61325c-0.44501,-0.22251 -0.89932,-0.4265 -1.36294,-0.61198l2.03016,-2.25257c1.65018,0.51924 2.95729,1.14963 3.92135,1.89119l-0.83439,0.97336h2.33601v3.22593h-7.28626c0.18548,1.01968 0.46362,2.17844 0.83439,3.47625c0.6303,-1.09391 1.10303,-2.13211 1.41818,-3.11458l3.83791,0.88992c-0.83439,2.2989 -1.97463,4.38458 -3.42072,6.25708c0.55626,0.72314 1.10322,1.08471 1.64087,1.08471c0.29674,0 0.51459,-0.25031 0.65356,-0.75095c0.13897,-0.50064 0.24557,-1.35344 0.3198,-2.55842c0.92704,0.8342 1.94672,1.42748 3.05905,1.77984c-0.25953,2.07639 -0.69988,3.46685 -1.32107,4.17138c-0.621,0.70453 -1.59892,1.0568 -2.93375,1.0568c-1.4833,0 -2.81823,-0.66741 -4.00479,-2.00225c-0.81578,0.72295 -1.56664,1.29772 -2.25257,1.72432c-0.42641,-0.55626 -1.0568,-1.23298 -1.89119,-2.03016v0.88992h-0.88992c1.42767,0.98248 2.49378,1.89091 3.19831,2.72529l-2.89217,2.41945c-0.48203,-0.70453 -1.38125,-1.58515 -2.69767,-2.64186v3.00352c0,0.4078 0.08344,0.66267 0.25031,0.76462c0.16688,0.10195 0.56547,0.15292 1.19577,0.15292zM165.62204,175.60593l4.19929,1.00127c-1.22377,3.78219 -2.85535,7.10087 -4.89471,9.95602c0.68612,1.72422 1.36284,2.58632 2.03016,2.58632c0.55626,0 0.89923,-1.64078 1.02889,-4.92234c1.0755,1.09391 2.24355,1.88189 3.50416,2.36392c-0.2039,1.83547 -0.50984,3.24444 -0.91783,4.22692c-0.4078,0.98266 -0.91299,1.65018 -1.51557,2.00254c-0.60258,0.35217 -1.42292,0.52826 -2.46102,0.52826c-1.79845,0 -3.34658,-1.09382 -4.6444,-3.28146c-1.27921,1.27921 -2.67897,2.41015 -4.19929,3.39281c-0.31515,-0.44501 -0.78332,-1.02908 -1.40451,-1.75222c-0.621,-0.72295 -1.154,-1.27912 -1.59901,-1.66849c2.07658,-1.13094 3.88423,-2.55852 5.42297,-4.28273c-0.90843,-3.00342 -1.54804,-6.7485 -1.91882,-11.23523h-7.3976v2.72529h6.9804c-0.0186,0.66751 -0.02791,1.14954 -0.02791,1.44609c-0.03702,3.11487 -0.11581,5.33972 -0.23636,6.67455c-0.12055,1.33484 -0.34761,2.22476 -0.68118,2.66977c-0.51924,0.68593 -1.23308,1.11233 -2.14151,1.27921c-0.6303,0.11125 -1.71492,0.16688 -3.25384,0.16688c-0.05563,-1.31642 -0.4079,-2.56791 -1.0568,-3.75447c-0.44482,3.48564 -1.33474,6.23885 -2.66977,8.25961c-0.37078,-0.42641 -0.93625,-0.95476 -1.6964,-1.58506c-0.76016,-0.63049 -1.37195,-1.05689 -1.83537,-1.27921c0.64891,-1.03829 1.1541,-2.34075 1.51557,-3.9074c0.36166,-1.56664 0.57487,-2.92473 0.63961,-4.07427c0.06493,-1.14935 0.09739,-2.53061 0.09739,-4.14376v-8.53756h11.51345c-0.05563,-1.31642 -0.08344,-2.62353 -0.08344,-3.92135h4.36617c-0.03702,1.44628 -0.02772,2.75339 0.02791,3.92135h3.19802c-1.03829,-0.79718 -1.98383,-1.45539 -2.83664,-1.97463l2.50289,-2.47498c2.02095,1.09391 3.50416,2.08579 4.44961,2.97562l-1.41818,1.47399h3.00352v4.06032h-8.67681c0.1853,2.20625 0.49114,4.39398 0.91754,6.56321c0.89001,-1.65018 1.61316,-3.47644 2.16942,-5.47879zM203.9163,170.23877l4.53305,0.30585c-0.4078,2.44736 -0.69514,4.90392 -0.86202,7.36969c-0.16688,2.46577 -0.12055,4.92234 0.13897,7.36969l2.03016,-1.02889l0.97336,2.78083c0.2039,-1.09391 0.71374,-2.02086 1.52953,-2.78083c0.81578,-0.76016 1.74283,-1.32107 2.78112,-1.68274c1.03829,-0.36147 2.1136,-0.56072 3.22593,-0.59774c-0.12986,-1.50172 -0.27823,-3.01273 -0.4451,-4.53305l-6.42395,0.50064l-0.33376,-4.53305l6.31289,-0.50064l-0.75095,-5.20056l4.92234,-0.33376l0.22269,5.20056l5.33953,-0.41719l0.22241,4.53305l-5.31163,0.4451c0.12967,1.70561 0.23162,3.40201 0.30585,5.08921c2.28029,0.35217 4.52365,0.86202 6.73009,1.52953l-1.72432,4.44961c-1.63157,-0.61189 -3.28165,-1.17736 -4.95025,-1.6964c0,1.13094 -0.05563,2.11351 -0.16688,2.94771c-0.2039,1.24219 -0.76471,2.26187 -1.68245,3.05905c-0.91774,0.79737 -1.98839,1.22386 -3.21197,1.27949c-1.05689,0.07404 -2.09518,-0.07898 -3.11487,-0.45906c-1.01968,-0.38008 -1.83547,-1.01968 -2.44736,-1.91882c-0.61169,-0.89913 -0.94536,-1.89565 -1.00099,-2.98957l-6.50768,3.47625c-0.59328,-2.3361 -0.97801,-4.71853 -1.15419,-7.14728c-0.17599,-2.42875 -0.19915,-4.8575 -0.06949,-7.28626c0.12986,-2.42875 0.4265,-4.8389 0.88992,-7.23043zM135.89295,189.45539h2.19704c0.42641,0 0.70453,-0.19469 0.83439,-0.58407c0.12967,-0.38919 0.22231,-1.28832 0.27794,-2.69739c0.79718,0.61169 2.03016,1.13084 3.69895,1.55744c-0.20409,2.11341 -0.61663,3.5502 -1.23763,4.31035c-0.62119,0.76016 -1.67334,1.14024 -3.15645,1.14024h-3.25384c-1.81686,0 -3.03589,-0.33831 -3.65708,-1.01494c-0.621,-0.67681 -0.9315,-1.92365 -0.9315,-3.74052v-4.97815h-3.00352c-0.11125,1.03829 -0.26883,1.94682 -0.47273,2.72558c-0.2039,0.77857 -0.5237,1.5619 -0.95941,2.34997c-0.4357,0.78788 -0.98731,1.47845 -1.65483,2.07174c-0.66751,0.59328 -1.53893,1.14954 -2.61424,1.66878c-1.07531,0.51905 -2.34531,0.97327 -3.81,1.36265c-0.2039,-0.55626 -0.54222,-1.20517 -1.01494,-1.94672c-0.47273,-0.74175 -0.93159,-1.33502 -1.3766,-1.77984c1.50172,-0.29674 2.72995,-0.65365 3.6847,-1.07075c0.95495,-0.4171 1.68729,-0.91764 2.19704,-1.50162c0.50993,-0.58417 0.8622,-1.15894 1.0568,-1.72432c0.19479,-0.56556 0.34781,-1.28405 0.45906,-2.15546h-6.47977v-3.89316h25.66848v3.89316h-7.48076v4.92262c0,0.48203 0.05563,0.78322 0.16688,0.90359c0.11125,0.12055 0.39859,0.18083 0.86202,0.18083zM257.20055,169.32094l5.70091,0.58407c-0.59328,1.77984 -1.13094,3.55969 -1.61297,5.33953c-0.6303,2.41015 -1.23279,4.80178 -1.80747,7.17491c0.57467,-0.4078 1.21893,-0.67663 1.93277,-0.80649c0.71365,-0.12967 1.43204,-0.16669 2.15518,-0.11106c0.94545,0.16669 1.74728,0.58844 2.40549,1.26526c0.65821,0.67663 1.19121,1.43214 1.59901,2.26652c0.25971,0.53766 0.73719,0.98257 1.43241,1.33474c0.69523,0.35236 1.32098,0.45896 1.87724,0.3198c0.55607,-0.13897 1.07512,-0.34752 1.55715,-0.62565c0.66751,-0.4078 1.2701,-0.89913 1.80775,-1.47399c0.53766,-0.57467 1.03819,-1.18647 1.50162,-1.83537l5.14503,2.7532c-1.00127,1.31642 -2.15537,2.47052 -3.4623,3.4623c-1.30712,0.99197 -2.58177,1.76143 -3.82396,2.30839c-1.24219,0.54696 -2.69758,0.82964 -4.36617,0.84806c-1.00127,-0.05563 -1.90514,-0.35692 -2.71163,-0.90388c-0.80649,-0.54677 -1.52488,-1.19103 -2.15518,-1.93277c-0.6303,-0.74155 -1.4646,-1.96514 -2.50289,-3.67075c-1.00108,0.1853 -1.83537,0.80639 -2.50289,1.86328c-0.70453,1.13094 -1.15875,2.48429 -1.36265,4.06004l-4.56095,-1.13995c0.53766,-3.33737 1.06611,-6.68386 1.58534,-10.03946c0.55607,-3.68955 1.27912,-7.36978 2.16913,-11.04073zM342.82756,169.98846l5.9236,0.33376c-0.44501,1.81686 -0.86211,3.73577 -1.2513,5.75673c-0.38938,2.02076 -0.67681,4.05083 -0.8623,6.0902c-0.07404,0.70453 0.02791,1.39056 0.30585,2.05807c0.27813,0.66732 0.72779,1.18182 1.34898,1.54348c0.621,0.36147 1.27456,0.55151 1.96067,0.57012c0.68593,0.01842 1.36255,-0.07432 2.02987,-0.27823c0.92704,-0.35217 1.79845,-0.77857 2.61424,-1.27921c0.81578,-0.50064 1.62227,-1.02443 2.41945,-1.57139c0.79718,-0.54677 1.57585,-1.11224 2.33601,-1.6964c0.76016,-0.58398 1.43688,-1.11698 2.03016,-1.59901l2.5587,5.25609c-1.13094,0.74155 -2.33146,1.47855 -3.60155,2.21099c-1.2699,0.73225 -2.55842,1.40898 -3.86554,2.03016c-1.30712,0.621 -2.65591,1.09838 -4.04637,1.43214c-1.24219,0.25953 -2.47973,0.37078 -3.71261,0.33376c-1.23288,-0.03702 -2.4334,-0.26873 -3.60155,-0.69514c-0.8342,-0.33376 -1.56655,-0.82044 -2.19704,-1.46004c-0.6303,-0.63979 -1.07987,-1.3861 -1.34869,-2.2389c-0.26883,-0.8528 -0.39394,-1.74272 -0.37534,-2.66977c0.03702,-4.78327 0.48193,-9.4924 1.33474,-14.1274zM137.42247,172.99198h-16.10203v3.30937h-4.19929v-7.20281h10.06736v-2.5587h4.44961v2.5587h10.20634v7.20281h-4.42199zM281.92358,176.30135l-0.1945,-4.69992l5.97913,-0.11135l1.30683,-4.58858l4.6444,0.38929l-1.11233,4.08823l3.67075,-0.05581l-0.50035,4.81127l-4.39408,0.05553l-2.97562,12.8482l-4.8389,-0.47273l2.9198,-12.20859zM297.41392,176.82961l4.22692,0.11135l0.33376,5.284c2.26187,0.37078 4.50524,0.88983 6.73009,1.55715l-1.72432,4.42199c-1.63138,-0.61189 -3.28137,-1.17736 -4.94996,-1.6964c0,1.13094 -0.05563,2.11351 -0.16688,2.94771c-0.20409,1.24219 -0.765,2.26187 -1.68274,3.05905c-0.91774,0.79737 -1.98839,1.22386 -3.21197,1.27949c-0.87141,0.07404 -1.72887,-0.00475 -2.57237,-0.23636c-0.84351,-0.2318 -1.58971,-0.64435 -2.23862,-1.23763c-0.64891,-0.59328 -1.11243,-1.30712 -1.39056,-2.14151c-0.27813,-0.8342 -0.41719,-1.67771 -0.41719,-2.53051c0.03702,-1.22377 0.46808,-2.26206 1.29317,-3.11487c0.82509,-0.8528 1.7845,-1.47855 2.87822,-1.87724c1.09391,-0.3985 2.22485,-0.62556 3.39281,-0.68118c-0.14828,-1.7058 -0.31506,-3.42081 -0.50035,-5.14503zM177.80272,167.56901h17.46468v10.84594h-17.46468zM187.34154,193.54362v-13.12642h11.59689v13.01507h-4.17167v-1.2513h-3.47625v1.36265zM177.91406,193.54362h-3.89345v-13.12642h11.29076v13.01507h-4.11585v-1.2513h-3.28146zM232.33827,175.96759l-0.47273,-4.8389c1.76124,-0.27813 3.54108,-0.50993 5.33953,-0.69542c1.79845,-0.1853 3.60145,-0.30575 5.40902,-0.36138c1.80756,-0.05563 3.61056,0.02781 5.40902,0.25031l0.72304,3.75419l-7.31388,6.03495l-3.03143,-3.19831l2.69767,-2.00225c-2.94799,0.05563 -5.86808,0.4079 -8.76025,1.0568zM231.94898,190.79042l0.30585,-4.75546c2.70688,0.42641 5.45078,0.6303 8.23171,0.61169c3.09626,-0.05563 6.19244,-0.36157 9.28851,-0.91783l0.19479,5.11713c-3.24453,0.51905 -6.49828,0.76937 -9.76124,0.75095c-2.79953,0 -5.55274,-0.26883 -8.25961,-0.80649zM136.58836,174.46597v3.72628h-14.378v-3.72628zM181.7796,174.46597h9.2606v-2.92008h-9.2606zM329.14497,186.45187l3.47625,-1.6964c0.92704,0.92704 1.78915,1.94216 2.58632,3.04538c0.79737,1.10303 1.37214,2.10876 1.72432,3.01719l-3.7821,1.89119c-0.27813,-0.8528 -0.79262,-1.86784 -1.54348,-3.0451c-0.75086,-1.17745 -1.57129,-2.24821 -2.46131,-3.21226zM299.58305,174.77183l3.64312,-5.81226l4.08795,2.14122l-3.97688,5.56194zM313.26563,192.98746l-3.42072,-2.33629c1.57595,-1.24219 2.69758,-3.04054 3.3649,-5.39506l3.72657,1.30712c-0.8528,2.9664 -2.07639,5.10782 -3.67075,6.42424zM316.32468,173.2423h8.23171v2.55842h-8.23171zM355.45334,173.29782l-2.36392,0.58407l-1.33474,-5.31191l2.33601,-0.50035zM359.79188,172.49135l-2.47527,0.47273l-1.22368,-5.17265l2.33601,-0.52826zM153.74691,181.00128h-2.9198c-0.05563,1.63138 -0.17618,3.17021 -0.36166,4.61649c0.76016,0.07404 1.43688,0.11106 2.03016,0.11106c0.37078,0 0.65812,-0.12976 0.86202,-0.38929c0.2039,-0.31515 0.33366,-1.76124 0.38929,-4.33826zM191.29051,184.39408v3.83763h3.47625v-3.83763zM181.19553,188.23171v-3.83763h-3.28146v3.83763zM297.9977,188.45441c0.07423,-0.90862 0.10205,-1.82635 0.08344,-2.7532c-0.4078,0.01842 -0.79709,0.03693 -1.16787,0.05553c-0.37078,0.0186 -0.74155,0.09739 -1.11233,0.23636c-0.37097,0.13897 -0.65375,0.37534 -0.84834,0.70909c-0.19459,0.33376 -0.28269,0.68602 -0.26427,1.0568c-0.11125,0.57487 -0.0092,1.11252 0.30614,1.61297c0.31515,0.50064 0.77857,0.72314 1.39027,0.66751c0.27813,-0.03702 0.55161,-0.1065 0.82044,-0.20846c0.26883,-0.10214 0.45886,-0.28763 0.57012,-0.55645c0.11125,-0.26883 0.18539,-0.54222 0.22241,-0.82015zM218.34984,188.4265c0.07423,-0.89001 0.10205,-1.79845 0.08344,-2.72529c-0.38938,0 -0.76946,0.01386 -1.14024,0.04158c-0.37078,0.02791 -0.74155,0.1067 -1.11233,0.23636c-0.37078,0.12986 -0.65356,0.36166 -0.84834,0.69542c-0.19459,0.33356 -0.29189,0.69504 -0.29189,1.08442c-0.09265,0.55626 0.01396,1.08471 0.3198,1.58534c0.30585,0.50044 0.77402,0.73216 1.40451,0.69514c0.25953,-0.03702 0.5237,-0.1065 0.79253,-0.20846c0.26883,-0.10214 0.45886,-0.28763 0.57012,-0.55645c0.11125,-0.26883 0.18539,-0.55151 0.22241,-0.84806zM319.49508,180.55617h1.6964v-1.16787h-1.6964z"/></g></g></svg>