<svg version="1.1" xmlns="http://www.w3.org/2000/svg" xmlns:xlink="http://www.w3.org/1999/xlink" width="413.299" height="31.47103" viewBox="0,0,413.299,31.47103"><g transform="translate(-33.3505,-164.26448)"><g fill="#ffffff" fill-rule="evenodd" stroke="none" stroke-width="0" stroke-linecap="round" stroke-miterlimit="10"><path d="M324.03237,167.18542l0.72236,-0.15695l2.88942,1.60166c-1.21443,3.07811 -2.91043,5.77927 -5.08801,8.1035c1.9891,1.4237 4.25051,2.53339 6.78422,3.32908c-0.48178,0.46077 -1.01578,1.06274 -1.60198,1.80589c-0.5862,0.74337 -1.03636,1.40826 -1.35048,1.99468c-2.57552,-1.02618 -4.92066,-2.41868 -7.03541,-4.17751c-2.09395,1.65419 -4.42869,3.01528 -7.00421,4.08327c-0.20927,-0.41896 -0.61751,-1.04719 -1.22472,-1.88469l-2.85823,1.28776c-0.08362,-0.5862 -0.18825,-1.07828 -0.3139,-1.47623l-1.0681,0.09423v2.29282l2.73247,-0.87931c0.96336,2.34503 1.623,4.29232 1.97892,5.84188l-3.42363,1.22472c-0.16746,-0.85851 -0.59671,-2.37655 -1.28776,-4.55412v9.10856h-4.05143v-9.39127c-0.35614,3.01528 -0.91104,5.40234 -1.6647,7.16116c-1.15161,-0.71185 -2.32423,-1.27715 -3.51787,-1.6959c0.75387,-1.63339 1.24595,-4.10418 1.47623,-7.41235l3.70633,0.62812v-2.04164l-4.46021,0.2827l-0.40813,-4.02023l2.44977,-0.09423c0.41875,-0.54439 0.80608,-1.05738 1.16201,-1.53895c-0.94213,-1.42391 -2.14605,-2.84772 -3.61178,-4.27142l2.19859,-3.23516l0.5966,0.56541c0.90053,-1.84266 1.60198,-3.65391 2.10435,-5.43375l4.02023,1.47623c-1.67499,3.18274 -2.87892,5.34991 -3.61178,6.50152c0.23028,0.25129 0.45016,0.52349 0.65964,0.81659c0.94213,-1.54934 1.83194,-3.19303 2.66944,-4.93106l3.76905,1.72741c-1.48652,2.2404 -2.83711,4.18769 -4.05175,5.84188l2.48129,-1.03626c0.85851,1.52833 1.57046,3.14061 2.13587,4.83682c2.01012,-0.83771 3.78995,-1.82186 5.33951,-2.95246c-0.58642,-0.67004 -1.21465,-1.49714 -1.88469,-2.48129c-0.81648,0.87952 -1.67499,1.69611 -2.57552,2.44977c-0.35592,-0.52338 -0.85315,-1.09393 -1.49167,-1.71165c-0.63873,-0.61772 -1.19889,-1.07313 -1.68046,-1.36624c3.20354,-2.38705 5.53817,-5.46505 7.00389,-9.23399l4.52292,0.78507c-0.10463,0.25129 -0.43965,0.96325 -1.00506,2.13587zM240.89523,174.25235l-0.03152,-8.73163l5.21376,-0.2827l-0.09423,10.58479l7.69505,-6.18762l4.17718,1.41351c-0.39795,2.21938 -0.77489,4.43362 -1.13081,6.64271c-0.35592,2.20909 -0.63852,4.41293 -0.84779,6.61152c-0.06282,0.41875 -0.00011,0.80608 0.18815,1.16201c0.18847,0.35592 0.51309,0.52338 0.97386,0.50237c0.46056,-0.0208 0.91072,-0.12018 1.35048,-0.29814c0.43976,-0.17796 0.86901,-0.37168 1.28776,-0.58116c1.38189,-0.73286 2.74287,-1.50753 4.08295,-2.32402l1.03658,5.40191c-1.86346,1.23544 -3.86307,2.13587 -5.99883,2.70128c-1.31928,0.37694 -2.64371,0.36643 -3.97328,-0.03152c-1.32957,-0.39774 -2.37655,-1.16726 -3.14093,-2.30858c-0.76417,-1.1411 -1.05201,-2.4235 -0.86355,-3.8472c0.20927,-2.63835 0.50237,-5.2976 0.87931,-7.97775l-5.74765,5.02529l-0.12543,13.53693l-4.86834,0.12543l-0.03152,-9.57941c-1.65419,2.01012 -3.21415,4.08306 -4.67987,6.21882l-3.48603,-3.73753c2.55451,-2.99427 5.21365,-5.91521 7.97743,-8.76282l-7.852,-4.24022l1.41351,-4.74259zM393.34989,180.21967l-0.2827,-4.08295l8.16622,-0.34542l-0.31422,-2.85823l-9.26519,0.21999l-0.21999,-4.2087l9.07704,-0.43965l-0.2827,-2.73247l5.21376,-0.34574l0.21967,2.82671l8.54316,-0.40813l0.15695,4.67987l-8.35469,0.2827l0.21999,2.82671l7.06693,-0.31422l0.21967,4.11447l-6.97237,0.25118c0.08362,0.92133 0.16735,1.97881 0.25118,3.17245c2.93145,0.60722 5.87329,1.50753 8.82554,2.70095l-2.35554,5.15105c-2.17757,-1.44493 -4.30283,-2.53382 -6.37577,-3.26668c-0.02101,1.13081 -0.07333,2.11496 -0.15695,2.95246c-0.25129,1.4029 -0.97901,2.50219 -2.18315,3.29788c-1.20393,0.79568 -2.48633,1.21443 -3.8472,1.25624c-1.00517,0.06282 -2.00508,0 -2.99974,-0.18847c-0.99445,-0.18847 -1.92617,-0.5549 -2.79519,-1.09929c-0.86901,-0.54439 -1.54956,-1.272 -2.04164,-2.18283c-0.49208,-0.91082 -0.72761,-1.87922 -0.7066,-2.90518c-0.08384,-1.59137 0.46056,-2.84247 1.63318,-3.75329c1.17262,-0.91082 2.47089,-1.5338 3.8948,-1.86893c1.4237,-0.33491 2.837,-0.54429 4.2399,-0.62812c-0.06282,-0.90032 -0.14655,-1.71691 -0.25118,-2.44977zM338.35437,174.44082l-0.03152,-9.01433l5.02529,-0.2827l-0.09423,9.10856c0.08384,-0.04202 0.17807,-0.10485 0.2827,-0.18847c1.27726,-0.8375 2.6645,-1.49714 4.16175,-1.97892c1.49703,-0.48157 3.02032,-0.5653 4.56988,-0.25118c1.54934,0.31411 2.8475,1.09929 3.89448,2.35554c1.02596,1.17262 1.76408,2.5023 2.21434,3.98904c0.45005,1.48652 0.49186,2.98366 0.12543,4.49141c-0.36643,1.50753 -0.9789,2.88942 -1.83741,4.14566c-1.50753,2.17757 -3.31868,4.04114 -5.43343,5.5907l-4.74259,-3.45483c1.17262,-0.8167 2.27717,-1.73277 3.31364,-2.74823c1.03647,-1.01546 1.86871,-2.17232 2.49673,-3.47059c0.92133,-2.13576 0.52349,-3.94701 -1.19353,-5.43375c-0.77467,-0.52338 -1.60177,-0.70134 -2.48129,-0.53389c-0.87931,0.16746 -1.67488,0.50248 -2.38673,1.00506c-0.71206,0.50258 -1.3717,1.04698 -1.97892,1.63318c-0.33491,0.31411 -0.69084,0.62823 -1.06777,0.94234l-0.09423,14.91893l-4.67987,0.12543l-0.0312,-9.8306c-1.61238,1.92628 -3.12002,3.92589 -4.52292,5.99883l-3.3294,-3.61178c2.2196,-3.11992 4.64857,-6.09328 7.28691,-8.92009l-7.16116,-3.61178l1.35048,-4.55412zM418.85328,175.13166l-0.25118,-5.18224c4.92055,-0.41875 9.87251,-0.75377 14.85589,-1.00506c-0.10463,-1.04698 -0.20937,-2.10435 -0.31422,-3.17213l5.74797,-0.34574l0.06272,3.39211c2.5127,0 5.0358,0.02091 7.5693,0.06272l0.12575,5.18256c-2.57552,-0.08384 -5.14054,-0.13626 -7.69505,-0.15727c0,1.9265 -0.09423,3.85288 -0.2827,5.77917c0.39774,0.94234 0.66993,2.06254 0.81659,3.36059c0.10463,1.42391 0.08373,2.83732 -0.06272,4.24022c-0.14666,1.4029 -0.36129,2.7953 -0.64388,4.17718c-0.28281,1.3821 -0.61258,2.75359 -0.9893,4.11447l-5.96763,-0.50237c0.64903,-1.59137 1.23534,-3.23506 1.75893,-4.93106c-0.73286,0.52338 -1.51815,0.8688 -2.35586,1.03626c-0.96314,0.2723 -1.88962,0.22524 -2.77943,-0.14119c-0.89003,-0.36643 -1.60724,-0.94224 -2.15163,-1.72741c-0.54439,-0.78518 -0.94224,-1.62793 -1.19353,-2.52824c-0.25108,-0.90053 -0.35571,-1.83237 -0.3139,-2.79551c-0.02101,-1.31907 0.24593,-2.59632 0.80083,-3.83177c0.5549,-1.23544 1.3925,-2.23 2.51281,-2.98366c1.12009,-0.75387 2.36068,-1.16222 3.72177,-1.22505c0.77467,-0.02101 1.48652,0.02091 2.13555,0.12575l-0.12543,-2.07315c-5.00439,0.25129 -9.99827,0.62823 -14.98164,1.13081zM33.3505,169.13283l4.49141,-3.73753c1.48652,2.30322 2.99406,4.57503 4.5226,6.81542c1.21443,1.696 2.61733,3.22455 4.2087,4.58564c2.44988,-1.57036 4.98348,-3.00467 7.60081,-4.30294l3.73753,4.99377c-2.15656,0.79568 -4.28182,1.6751 -6.37577,2.63824c-2.09395,0.96336 -4.08316,2.10457 -5.96763,3.42363c-0.39774,0.31411 -0.78507,0.63863 -1.16201,0.97354c-0.37694,0.33513 -0.71721,0.70681 -1.02082,1.11505c-0.30361,0.40824 -0.44491,0.87416 -0.42389,1.39775c0.06282,0.35592 0.23553,0.63863 0.51813,0.84811c0.28281,0.20927 0.59167,0.36107 0.92658,0.45541c0.33513,0.09413 0.68065,0.1726 1.03658,0.23542c3.22455,0.46056 6.31295,-0.01061 9.26519,-1.41351l0.50269,5.65374c-3.22455,0.77467 -6.48051,1.06777 -9.76788,0.87931c-1.02596,-0.06282 -2.03628,-0.19897 -3.03093,-0.40846c-0.99466,-0.20927 -1.95265,-0.54429 -2.87398,-1.00506c-0.92133,-0.46056 -1.65934,-1.12534 -2.21402,-1.99436c-0.5549,-0.86901 -0.81144,-1.8269 -0.76963,-2.87366c0.04181,-0.83771 0.26694,-1.61774 0.6754,-2.3401c0.40824,-0.72236 0.88456,-1.38714 1.42895,-1.99436c0.54439,-0.60722 1.12545,-1.18302 1.74317,-1.72741c0.61772,-0.54439 1.2616,-1.07828 1.93164,-1.60166c-1.15161,-1.089 -2.26141,-2.23021 -3.3294,-3.42363c-2.01012,-2.28242 -3.89459,-4.67987 -5.65341,-7.19236zM146.60788,169.13283l4.49141,-3.73753c1.48674,2.30322 2.99438,4.57503 4.52292,6.81542c1.21443,1.696 2.61733,3.22455 4.2087,4.58564c2.44988,-1.57036 4.98348,-3.00467 7.60081,-4.30294l3.73753,4.99377c-2.15677,0.79568 -4.28214,1.6751 -6.37609,2.63824c-2.09374,0.96336 -4.08284,2.10457 -5.96731,3.42363c-0.39795,0.31411 -0.78539,0.63863 -1.16233,0.97354c-0.37672,0.33513 -0.71689,0.70681 -1.0205,1.11505c-0.30361,0.40824 -0.44501,0.87416 -0.42422,1.39775c0.06282,0.35592 0.23564,0.63863 0.51845,0.84811c0.2826,0.20927 0.59135,0.36107 0.92626,0.45541c0.33513,0.09413 0.68065,0.1726 1.03658,0.23542c3.22455,0.46056 6.31305,-0.01061 9.26551,-1.41351l0.50237,5.65374c-3.22455,0.77467 -6.48051,1.06777 -9.76788,0.87931c-1.02596,-0.06282 -2.03628,-0.19897 -3.03093,-0.40846c-0.99445,-0.20927 -1.95233,-0.54429 -2.87366,-1.00506c-0.92133,-0.46056 -1.65945,-1.12534 -2.21434,-1.99436c-0.5549,-0.86901 -0.81144,-1.8269 -0.76963,-2.87366c0.04202,-0.83771 0.26716,-1.61774 0.6754,-2.3401c0.40824,-0.72236 0.88456,-1.38714 1.42895,-1.99436c0.54439,-0.60722 1.12545,-1.18302 1.74317,-1.72741c0.61772,-0.54439 1.2616,-1.07828 1.93164,-1.60166c-1.15161,-1.089 -2.2613,-2.23021 -3.32908,-3.42363c-2.01012,-2.28242 -3.8947,-4.67987 -5.65374,-7.19236zM176.13151,174.88047l-0.43965,-5.40223c4.89975,-0.5862 9.91454,-1.08879 15.04436,-1.50775c3.3294,-0.14644 6.59586,-0.14644 9.7994,0l0.15727,5.52798c-0.69105,-0.06282 -1.49724,-0.12565 -2.41857,-0.18847c-2.19859,1.34008 -4.24011,2.81631 -6.12458,4.42869c-0.69105,0.60722 -1.34544,1.25624 -1.96316,1.94708c-0.61751,0.69105 -1.15139,1.45532 -1.60166,2.29282c-0.45027,0.8375 -0.6858,1.74832 -0.7066,2.73247c0.04181,0.58642 0.26169,1.06799 0.65964,1.44471c0.39774,0.37694 0.82174,0.6754 1.272,0.89539c0.45005,0.21977 0.90546,0.41339 1.36624,0.58084c0.46056,0.16767 0.93162,0.32473 1.41319,0.47117c1.46572,0.39795 2.84772,0.67015 4.14599,0.81659l-3.20364,5.46494c-1.77984,-0.43955 -3.57007,-1.04676 -5.37071,-1.82165c-0.85851,-0.39774 -1.69086,-0.84264 -2.49705,-1.33472c-0.80619,-0.49208 -1.52855,-1.07839 -2.16707,-1.75893c-0.63873,-0.68055 -1.03132,-1.49188 -1.17777,-2.43401c-0.20948,-1.84266 0.06272,-3.60149 0.81659,-5.27648c0.75366,-1.6752 1.75347,-3.1881 2.99942,-4.53868c1.24574,-1.35058 2.83185,-2.72733 4.75835,-4.13023c-2.93145,0.08384 -5.58019,0.28806 -7.94623,0.61268c-2.36604,0.32441 -4.63796,0.717 -6.81574,1.17777zM267.96877,174.88047l-0.43965,-5.40223c4.89975,-0.5862 9.91454,-1.08879 15.04436,-1.50775c3.3294,-0.14644 6.59586,-0.14644 9.7994,0l0.15695,5.52798c-0.69084,-0.06282 -1.49692,-0.12565 -2.41825,-0.18847c-2.19859,1.34008 -4.24011,2.81631 -6.12458,4.42869c-0.69105,0.60722 -1.34544,1.25624 -1.96316,1.94708c-0.61751,0.69105 -1.15139,1.45532 -1.60166,2.29282c-0.45027,0.8375 -0.6858,1.74832 -0.7066,2.73247c0.04181,0.58642 0.26158,1.06799 0.65932,1.44471c0.39795,0.37694 0.82195,0.6754 1.272,0.89539c0.45027,0.21977 0.90579,0.41339 1.36656,0.58084c0.46056,0.16767 0.93162,0.32473 1.41319,0.47117c1.46572,0.39795 2.84772,0.67015 4.14599,0.81659l-3.20364,5.46494c-1.77984,-0.43955 -3.57007,-1.04676 -5.37071,-1.82165c-0.85851,-0.39774 -1.69086,-0.84264 -2.49705,-1.33472c-0.80619,-0.49208 -1.52855,-1.07839 -2.16707,-1.75893c-0.63873,-0.68055 -1.03143,-1.49188 -1.17809,-2.43401c-0.20927,-1.84266 0.06304,-3.60149 0.81691,-5.27648c0.75366,-1.6752 1.75347,-3.1881 2.99942,-4.53868c1.24574,-1.35058 2.83185,-2.72733 4.75835,-4.13023c-2.93145,0.08384 -5.58019,0.28806 -7.94623,0.61268c-2.36626,0.32441 -4.63817,0.717 -6.81574,1.17777zM94.69058,178.46105l0.87931,5.46494c0.75387,-0.39795 1.5234,-0.76963 2.30858,-1.11505c0.78518,-0.34542 1.58601,-0.68569 2.40249,-1.02082c0.8167,-0.33491 1.62289,-0.65943 2.41857,-0.97354c0.79568,-0.31411 1.64369,-0.53399 2.544,-0.65964c0.54439,-0.04181 1.09929,0.03152 1.6647,0.21999c0.56541,0.18847 0.98941,0.53914 1.272,1.05201c0.2826,0.51309 0.38208,1.05223 0.29846,1.61742c-0.14666,1.04698 -0.45027,2.02588 -0.91082,2.9367c-0.46077,0.91082 -0.96336,1.80074 -1.50775,2.66976c-0.54439,0.86901 -1.1202,1.71176 -1.72741,2.52824c-0.60722,0.8167 -1.24584,1.62289 -1.91588,2.41857l5.71645,1.44471c1.08879,-1.06777 2.08334,-2.20888 2.98366,-3.42331c0.90032,-1.21443 1.68024,-2.51795 2.33978,-3.91056c0.65953,-1.39239 1.06263,-2.86326 1.20929,-4.41261c0.08384,-1.08879 0.02627,-2.19333 -0.17271,-3.31364c-0.19897,-1.12031 -0.66489,-2.12536 -1.39775,-3.01518c-0.73286,-0.88981 -1.64894,-1.50228 -2.74823,-1.83741c-1.09929,-0.33491 -2.19333,-0.48146 -3.28212,-0.43965c-1.46572,0.06282 -2.90004,0.2827 -4.30294,0.65964c-1.4029,0.37672 -2.77954,0.82688 -4.12991,1.35048c-1.35058,0.52338 -2.6645,1.10969 -3.94176,1.75893zM382.60846,195.73552l-5.81068,-0.25151l2.76399,-30.99954l5.68493,0.25118zM64.03614,171.07991l5.84188,0.81659c-0.64903,3.11992 -0.95263,6.61677 -0.91082,10.49056l2.48129,-3.58058l4.55412,2.44977l-7.63201,8.63739l-3.83177,-1.6647c-0.35592,-1.08879 -0.5758,-2.2404 -0.65964,-3.45483c-0.20948,-2.30343 -0.28281,-4.62766 -0.21999,-6.97269c0.06282,-2.34524 0.18847,-4.58575 0.37694,-6.72151zM122.32953,174.97471l-0.53389,-5.46494c1.9891,-0.31411 3.99922,-0.57591 6.03035,-0.78539c2.03113,-0.20927 4.0674,-0.34531 6.10883,-0.40813c2.04164,-0.06282 4.07791,0.03141 6.10883,0.2827l0.81659,4.2399l-8.26013,6.81574l-3.42363,-3.6121l3.04669,-2.2613c-3.32918,0.06282 -6.62706,0.46067 -9.89363,1.19353zM209.07877,174.97471l-0.53389,-5.46494c1.9891,-0.31411 3.99922,-0.57591 6.03035,-0.78539c2.03091,-0.20927 4.06719,-0.34531 6.10883,-0.40813c2.04142,-0.06282 4.0777,0.03141 6.10883,0.2827l0.81659,4.2399l-8.26045,6.81574l-3.42331,-3.6121l3.04637,-2.2613c-3.32918,0.06282 -6.62695,0.46067 -9.89331,1.19353zM365.27096,168.09625l5.90492,0.50269c-0.73286,3.76894 -0.90043,7.54828 -0.50269,11.33802l2.70128,-3.10909l2.2925,4.39685l-5.65341,6.40729l-3.86296,-1.00506c-0.48157,-1.48652 -0.80094,-3.00456 -0.9581,-4.55412c-0.15695,-1.54934 -0.25118,-3.0988 -0.2827,-4.64836c-0.0313,-1.54956 -0.01554,-3.10426 0.04728,-4.66411c0.06282,-1.55985 0.16746,-3.11456 0.3139,-4.66411zM121.88988,191.71528l0.34542,-5.37103c3.05709,0.48157 6.156,0.71196 9.29671,0.69116c3.49685,-0.06282 6.99371,-0.40835 10.49056,-1.03658l0.21967,5.77917c-3.66431,0.5862 -7.33902,0.86891 -11.02412,0.84811c-3.16173,0 -6.27114,-0.30361 -9.32823,-0.91082zM208.63912,191.71528l0.34542,-5.37103c3.05709,0.48157 6.156,0.71196 9.29671,0.69116c3.49685,-0.06282 6.9936,-0.40835 10.49024,-1.03658l0.21999,5.77917c-3.66431,0.5862 -7.33912,0.86891 -11.02445,0.84811c-3.16173,0 -6.27103,-0.30361 -9.32791,-0.91082zM82.22143,171.8653l5.33951,-1.06777c0.50237,2.40785 0.99445,4.85762 1.47623,7.34931c0.48157,2.82681 0.8584,5.56979 1.13049,8.22894l-5.81036,0.5966c-0.25129,-2.49169 -0.5445,-5.0671 -0.87963,-7.72625c-0.37672,-2.5127 -0.79547,-4.97298 -1.25624,-7.38083zM112.46741,166.96544l-13.91387,-1.35048l-0.84779,5.46494l14.07082,0.97386zM311.7832,190.05058l2.66944,-3.26636c4.04125,1.08879 8.04057,2.68005 11.99799,4.77379l-2.70095,3.6433c-1.4029,-0.87931 -3.2298,-1.80053 -5.4807,-2.76367c-2.2509,-0.96336 -4.41282,-1.75904 -6.48576,-2.38705zM315.23803,184.5226l2.57552,-2.95214c2.57531,0.92112 4.82621,2.08312 6.75271,3.48603l-2.63824,3.23516c-1.80085,-1.46572 -4.03085,-2.72207 -6.68999,-3.76905zM432.10751,186.72119c0.48157,-0.0208 0.86365,-0.23017 1.14625,-0.62812c0.28281,-0.39774 0.45563,-0.82699 0.51845,-1.28776c0.25108,-1.50753 0.3452,-3.02557 0.28238,-4.55412c-0.23028,-0.2931 -0.53389,-0.50248 -0.91082,-0.62812c-1.08879,-0.2723 -1.9786,-0.00536 -2.66944,0.80083c-0.69105,0.80619 -1.00517,1.72227 -0.94234,2.74823c0,0.43976 0.02091,0.86901 0.06272,1.28776c0.04202,0.41875 0.15716,0.82184 0.34542,1.20929c0.18847,0.38723 0.48693,0.66468 0.89539,0.83235c0.40824,0.16746 0.83224,0.24068 1.272,0.21967zM205.43548,179.65458l-2.51281,0.78507l-1.85317,-5.21376l2.32434,-0.84811zM297.27241,179.65458l-2.51249,0.78507l-1.85317,-5.21376l2.32434,-0.84811zM402.14423,189.32823c0.08362,-0.94234 0.11503,-1.90559 0.09423,-2.88974c-0.10485,-0.0208 -0.19908,-0.0312 -0.2827,-0.0312c-0.60722,0.0208 -1.23019,0.05221 -1.86893,0.09423c-0.63852,0.04181 -1.24048,0.22503 -1.80589,0.54965c-0.56541,0.32441 -0.84811,0.84264 -0.84811,1.5547c-0.10463,0.75366 0.10999,1.37127 0.64388,1.85285c0.53389,0.48157 1.16726,0.65953 1.90012,0.53389c0.31411,-0.04181 0.64399,-0.09938 0.98962,-0.17271c0.34542,-0.07311 0.62276,-0.25108 0.83203,-0.53389c0.20948,-0.2826 0.32473,-0.60186 0.34574,-0.95778zM201.35221,180.97354l-2.41825,0.78539l-1.88469,-5.05681l2.26162,-0.84811zM293.18946,180.97354l-2.41825,0.78539l-1.88469,-5.05681l2.26162,-0.84811zM321.55108,171.14294h-4.45989c0.60722,0.98415 1.35048,1.92639 2.22978,2.82671c0.87952,-0.90032 1.62289,-1.84255 2.2301,-2.82671zM304.49629,178.11531l2.19859,-0.09423c-0.48157,-1.08879 -0.74326,-1.67499 -0.78507,-1.75861c-0.50258,0.67004 -0.97375,1.28765 -1.41351,1.85285z"/></g></g></svg>