<svg version="1.1" xmlns="http://www.w3.org/2000/svg" xmlns:xlink="http://www.w3.org/1999/xlink" width="201.64434" height="23.11255" viewBox="0,0,201.64434,23.11255"><g transform="translate(-139.17782,-168.44372)"><g fill="#ffffff" fill-rule="evenodd" stroke="none" stroke-width="0" stroke-linecap="round" stroke-miterlimit="10"><path d="M301.52148,180.23157l-0.20845,-3.01058l6.0214,-0.2547l-0.23169,-2.10752l-6.83173,0.16197l-0.16221,-3.1033l6.693,-0.32418l-0.20845,-2.0148l3.84439,-0.2547l0.16221,2.08428l6.2991,-0.30118l0.11573,3.45072l-6.16013,0.20845l0.16197,2.08428l5.21083,-0.23146l0.16221,3.03382l-5.14134,0.18521c0.06182,0.67935 0.12355,1.45901 0.18521,2.33898c2.16151,0.44773 4.33078,1.11167 6.50779,1.9918l-1.7371,3.79791c-1.60564,-1.06526 -3.17271,-1.86809 -4.7012,-2.40846c-0.01534,0.83365 -0.05391,1.55932 -0.11573,2.17701c-0.18529,1.03443 -0.7218,1.845 -1.60952,2.4317c-0.88772,0.5867 -1.83338,0.89547 -2.83699,0.9263c-0.74116,0.04632 -1.47837,0 -2.21163,-0.13897c-0.73342,-0.13897 -1.42051,-0.40916 -2.06128,-0.81057c-0.64061,-0.40141 -1.14234,-0.93792 -1.50517,-1.60952c-0.36283,-0.6716 -0.53658,-1.38565 -0.52125,-2.14215c-0.06166,-1.1734 0.33983,-2.0959 1.20447,-2.7675c0.86448,-0.6716 1.82168,-1.13095 2.87161,-1.37806c1.04993,-0.24695 2.09203,-0.40133 3.12631,-0.46315c-0.04616,-0.66385 -0.1079,-1.26597 -0.18521,-1.80635zM184.54616,169.71743v3.24227h-9.28691l-0.53263,1.66738h8.77728v16.37333h-3.52021v-1.18099h-12.87637v1.18099h-3.31152v-16.37333h7.27187l0.13897,-0.83357c0.06166,-0.37058 0.10023,-0.64852 0.11573,-0.83381h-8.4531v-3.24227zM186.97787,176.22521l-0.18545,-3.61293l6.16037,-0.32418l1.31996,-3.19603l3.61293,0.46339l-1.18123,2.52419l4.21505,-0.23169l-0.18545,3.61293l-5.76646,0.30094l-0.97278,2.06128c1.21973,0.24695 2.32364,0.76417 3.31176,1.55165c1.32786,-0.54038 2.6981,-0.85302 4.1107,-0.93792c1.41276,-0.0849 2.82932,-0.03478 4.24967,0.15035l-0.09272,3.21927c-1.96073,-0.24711 -3.89063,-0.16996 -5.7897,0.23146c0.66401,0.81831 1.32794,1.6443 1.9918,2.47795l-3.7749,1.52865c-0.47856,-0.78749 -1.01119,-1.54406 -1.5979,-2.26973c-0.33975,0.33975 -0.59453,0.72962 -0.76432,1.16961c-0.1698,0.43999 -0.18142,0.88772 -0.03486,1.3432c0.14671,0.45548 0.42852,0.79903 0.84543,1.03064c0.46323,0.20063 0.94566,0.32031 1.44731,0.35904c0.5018,0.03858 1.00361,0.05012 1.50541,0.03462c0.5018,-0.01549 1.00748,-0.05407 1.51703,-0.11573l-0.09272,3.70542c-1.91441,0.35509 -3.8134,0.29327 -5.69698,-0.18545c-1.32786,-0.35509 -2.21954,-1.14242 -2.67502,-2.36198c-0.45548,-1.21973 -0.50568,-2.44332 -0.15059,-3.6708c0.35525,-1.22747 0.94969,-2.32752 1.78334,-3.30014c-1.52849,-0.67935 -3.12647,-0.95728 -4.79392,-0.83381l2.08428,-4.97914zM143.25391,186.41494h13.40876v-12.27425h3.335v16.85972h-3.335v-1.3432h-13.40876v1.3432h-3.335v-16.85972h3.335zM320.32652,176.47991l-0.18521,-3.82139c3.62819,-0.30877 7.27954,-0.55579 10.95405,-0.74108c-0.07715,-0.77183 -0.1543,-1.55149 -0.23146,-2.33898l4.23805,-0.2547l0.04624,2.50119c1.85275,0 3.71317,0.01541 5.58125,0.04624l0.09272,3.82115c-1.89907,-0.06166 -3.7904,-0.10023 -5.67398,-0.11573c0,1.42051 -0.06948,2.84094 -0.20845,4.26129c0.29343,0.69468 0.49414,1.52066 0.60212,2.47795c0.07731,1.04993 0.0619,2.09211 -0.04624,3.12654c-0.10814,1.03443 -0.2664,2.06112 -0.47477,3.08006c-0.20837,1.01894 -0.45153,2.03021 -0.72946,3.03382l-4.40026,-0.37066c0.47872,-1.17324 0.91104,-2.38522 1.29696,-3.63594c-0.54038,0.38608 -1.11933,0.64085 -1.73686,0.76432c-0.71018,0.20078 -1.3934,0.16608 -2.04966,-0.10411c-0.65611,-0.27019 -1.18486,-0.69476 -1.58628,-1.27372c-0.40141,-0.57911 -0.69476,-1.2006 -0.88005,-1.86445c-0.18529,-0.66385 -0.26252,-1.35087 -0.23169,-2.06104c-0.01534,-0.97278 0.1815,-1.91457 0.5905,-2.82537c0.40916,-0.91096 1.02677,-1.64438 1.85283,-2.20025c0.82606,-0.55571 1.74082,-0.85673 2.74426,-0.90306c0.57137,-0.01549 1.09633,0.01534 1.57489,0.09249l-0.09272,-1.52841c-3.69001,0.18529 -7.37226,0.46323 -11.04678,0.83381zM209.18715,181.45905l4.19181,-12.43646l4.4465,0.6716l-1.41268,3.89087l9.47188,-0.76432l1.71386,2.45494l-9.10146,16.23437l-3.70542,-1.80659l3.63594,-6.57703l-3.54345,-0.71784l1.04226,-2.94133c1.35869,0.27794 2.71731,0.54813 4.07584,0.81057l2.08428,-3.75166l-6.99394,0.48639l-1.92208,5.18759zM139.17782,173.02919v-3.19603h21.58416v3.19603h-9.14794v1.50541h3.98336v10.90781h-11.27823v-10.90781h3.79791v-1.50541zM252.67941,176.27146l-0.04624,-4.07608l15.8407,-0.13897c-0.06182,-0.23146 -0.09272,-0.47074 -0.09272,-0.71784c0,-0.81831 0.29335,-1.50154 0.88005,-2.04966c0.5867,-0.54797 1.28921,-0.8297 2.10752,-0.84519c0.80282,0.01549 1.49758,0.29722 2.08428,0.84519c0.5867,0.54813 0.8878,1.23135 0.90329,2.04966c-0.01549,0.81831 -0.31659,1.50533 -0.90329,2.06104c-0.5867,0.55587 -1.28146,0.83381 -2.08428,0.83381c-0.54038,-0.01549 -1.04218,-0.13897 -1.50541,-0.37042l0.13897,0.6946c-0.26244,1.9454 -0.6716,3.84447 -1.22747,5.69722c-0.55571,1.85259 -1.20415,3.67443 -1.94532,5.46552c-0.74101,1.79093 -1.55157,3.54329 -2.4317,5.25707l-4.21481,-1.29696c1.28138,-2.06887 2.33898,-4.24967 3.17279,-6.54241c0.83365,-2.29274 1.46667,-4.64334 1.89907,-7.0518zM278.87229,171.38481l4.93266,0.27794c-0.37042,1.51316 -0.71776,3.11113 -1.04202,4.79392c-0.32426,1.68295 -0.56362,3.37357 -0.71808,5.07186c-0.06166,0.5867 0.02332,1.15791 0.25493,1.71362c0.23146,0.55587 0.60583,0.98432 1.12313,1.28534c0.51714,0.30118 1.06139,0.45943 1.63276,0.47477c0.57121,0.01549 1.13475,-0.06166 1.69062,-0.23146c0.77183,-0.29343 1.49742,-0.6486 2.17677,-1.0655c0.67935,-0.41675 1.35095,-0.85286 2.0148,-1.30834c0.66401,-0.45548 1.31253,-0.92637 1.94555,-1.41268c0.63287,-0.48631 1.19633,-0.93017 1.69038,-1.33158l2.13076,4.37702c-0.94179,0.61753 -1.94152,1.23119 -2.9992,1.84097c-1.05752,0.60994 -2.13053,1.17348 -3.21903,1.69062c-1.0885,0.5173 -2.21171,0.91491 -3.36962,1.19285c-1.03443,0.21612 -2.065,0.30869 -3.09168,0.2777c-1.02669,-0.03083 -2.02634,-0.22379 -2.99896,-0.57888c-0.69484,-0.27794 -1.3047,-0.68322 -1.82959,-1.21585c-0.52504,-0.53263 -0.8995,-1.15404 -1.12336,-1.86421c-0.22387,-0.71018 -0.32805,-1.45126 -0.31256,-2.22325c0.03083,-3.98344 0.40141,-7.90505 1.11174,-11.76486zM246.00966,175.83131l3.61293,1.50541c-0.26244,0.69484 -0.54813,1.28929 -0.85705,1.78334c-0.30877,0.49406 -0.63295,0.99578 -0.97254,1.50517c-1.06526,1.51316 -2.16918,3.00307 -3.31176,4.46974c-1.52849,1.9454 -3.1033,3.9062 -4.72444,5.88243l-3.26528,-1.9918c1.82176,-2.14602 3.51618,-4.2805 5.08324,-6.40344c1.56707,-2.12294 3.04536,-4.37323 4.43488,-6.75086zM177.99213,186.66964h1.99156v-8.89301h-1.99156zM168.9834,177.77663h-1.87607v8.89301h1.87607zM234.2218,183.45061l-3.6127,-5.25707l2.80213,-1.80635l3.68242,5.3728zM238.22839,181.15787l-2.36222,-5.69698l3.17279,-1.29696l2.4317,5.90543zM330.09958,185.0255c0.35509,-0.01549 0.6369,-0.16988 0.84543,-0.46315c0.20837,-0.29343 0.33572,-0.60994 0.38204,-0.94954c0.18529,-1.11159 0.25477,-2.23092 0.20845,-3.358c-0.1698,-0.21612 -0.39366,-0.3705 -0.6716,-0.46315c-0.80282,-0.20078 -1.45901,-0.00395 -1.96856,0.5905c-0.50955,0.59445 -0.74116,1.26992 -0.69484,2.02642c0,0.32426 0.01549,0.64077 0.04648,0.94954c0.03083,0.30877 0.11573,0.60591 0.2547,0.89144c0.13897,0.28568 0.35896,0.49026 0.65998,0.61374c0.30102,0.12363 0.61366,0.1777 0.93792,0.16221zM308.00602,186.94757c0.06182,-0.69468 0.08498,-1.40486 0.06948,-2.13053c-0.07715,-0.01549 -0.14664,-0.02324 -0.20845,-0.02324c-0.44773,0.01549 -0.90701,0.03865 -1.37782,0.06948c-0.47097,0.03099 -0.91491,0.16608 -1.33182,0.40528c-0.41675,0.23936 -0.62512,0.62148 -0.62512,1.14637c-0.07731,0.55587 0.08095,1.01135 0.47477,1.36644c0.39366,0.35509 0.86069,0.48631 1.40106,0.39366c0.23161,-0.03083 0.47477,-0.07328 0.72946,-0.12735c0.2547,-0.05407 0.45927,-0.18529 0.61374,-0.39366c0.1543,-0.20837 0.2392,-0.44386 0.2547,-0.70646zM269.5159,171.38481c0,0.52504 0.18529,0.95736 0.55587,1.29696c0.37058,0.33975 0.81065,0.50963 1.3202,0.50963c0.50939,0 0.94163,-0.16988 1.29672,-0.50963c0.35509,-0.33959 0.54813,-0.77191 0.57911,-1.29696c-0.03099,-0.49406 -0.22402,-0.91475 -0.57911,-1.2621c-0.35509,-0.34734 -0.78733,-0.52876 -1.29672,-0.54425c-0.50955,0.01549 -0.94574,0.19691 -1.30858,0.54425c-0.36283,0.34734 -0.552,0.76804 -0.56749,1.2621zM172.04022,182.80225h2.87185v-1.25071h-2.87185zM174.91207,185.46541h-2.87185v1.20423h2.87185zM172.04022,178.88837h2.87185v-1.11174h-2.87185zM151.33635,182.66328h1.31996v-1.41268h-1.31996zM151.33635,178.67992h1.31996v-1.38944h-1.31996zM148.39501,181.25059h-1.27372v1.41268h1.27372zM148.39501,177.29048h-1.27372v1.38944h1.27372z"/></g></g></svg>