<svg version="1.1" xmlns="http://www.w3.org/2000/svg" xmlns:xlink="http://www.w3.org/1999/xlink" width="250.2552" height="28.78293" viewBox="0,0,250.2552,28.78293"><g transform="translate(-114.8724,-165.60854)"><g fill="#ffffff" fill-rule="evenodd" stroke="none" stroke-width="0" stroke-linecap="round" stroke-miterlimit="10"><path d="M198.63564,177.24237v4.19396h-7.32516c1.24483,1.43622 2.7242,2.78146 4.4381,4.03571c1.7139,1.25444 3.47094,2.26464 5.27112,3.0306c-0.51711,0.42122 -1.09158,1.0101 -1.72341,1.76665c-0.63203,0.75635 -1.13953,1.44093 -1.52251,2.05374c-3.15973,-1.74253 -6.06101,-4.27034 -8.70383,-7.58342v8.81884h-4.56723v-8.58911c-2.56614,3.23641 -5.46742,5.7547 -8.70383,7.55489c-0.99579,-1.49368 -2.05864,-2.75763 -3.18856,-3.79186c1.80018,-0.8042 3.57634,-1.85744 5.32848,-3.15973c1.75234,-1.30229 3.26043,-2.68106 4.52428,-4.1363h-7.2675v-4.19396h9.30712v-3.1312h-10.59961v-4.25132h10.59961v-4.25132h4.56723v4.25132h10.82963v4.25132h-10.82963v3.1312zM316.38087,180.2009l-0.25856,-3.7342l7.46841,-0.31591l-0.28709,-2.61409l-8.4741,0.2012l-0.2009,-3.84922l8.30143,-0.4021l-0.25856,-2.49908l4.76843,-0.31621l0.2012,2.58526l7.81315,-0.37327l0.14384,4.28014l-7.64107,0.25856l0.2012,2.58526l6.46301,-0.28738l0.2012,3.76303l-6.37712,0.22973c0.07667,0.84263 0.15325,1.80979 0.22973,2.90147c2.68106,0.55535 5.37172,1.37877 8.072,2.47025l-2.15434,4.71107c-1.99177,-1.32151 -3.9356,-2.31739 -5.83148,-2.98766c-0.01902,1.03422 -0.06687,1.93431 -0.14354,2.70027c-0.22983,1.28307 -0.89529,2.28847 -1.99638,3.01619c-1.10109,0.72772 -2.27406,1.1107 -3.51889,1.14894c-0.91911,0.05746 -1.83352,0 -2.74322,-0.17237c-0.9097,-0.17237 -1.76185,-0.5075 -2.55644,-1.0054c-0.79479,-0.49789 -1.4172,-1.16335 -1.86725,-1.99638c-0.45005,-0.83303 -0.66546,-1.7187 -0.64624,-2.65704c-0.07667,-1.45544 0.42122,-2.59968 1.49368,-3.4327c1.07246,-0.83303 2.25974,-1.40279 3.56183,-1.70929c1.30229,-0.30631 2.59497,-0.4978 3.87804,-0.57447c-0.05746,-0.82342 -0.13403,-1.57026 -0.22973,-2.24052zM240.80435,166.70012l6.08974,0.2012c-0.24885,1.16816 -0.46907,2.32671 -0.66066,3.47565l8.10053,-0.37357l0.14354,4.39515l-8.93356,0.34474c-0.13394,1.1107 -0.25836,2.2214 -0.37327,3.3321l9.2783,-0.34474l0.2009,4.25132l-9.70893,0.37357c0,0.55535 0.01912,1.08197 0.05736,1.57987c0.01902,0.59359 0.09079,1.18718 0.21532,1.78077c0.12452,0.59379 0.39269,1.12041 0.80449,1.57987c0.41161,0.45965 0.97177,0.66556 1.68047,0.61771c0.7085,-0.04785 1.4074,-0.20581 2.09668,-0.47387c0.68948,-0.26807 1.35504,-0.58408 1.99667,-0.94804c0.64144,-0.36376 1.26856,-0.77547 1.88137,-1.23513l1.60869,5.40026c-1.24483,0.74694 -2.54232,1.37896 -3.89246,1.89608c-1.34994,0.51692 -2.75263,0.83283 -4.20808,0.94774c-1.1107,0.05746 -2.16875,-0.14835 -3.17415,-0.61742c-1.0054,-0.46926 -1.80969,-1.16826 -2.41289,-2.09698c-0.60339,-0.92892 -1.03432,-1.92 -1.29278,-2.97324c-0.25846,-1.05324 -0.41641,-2.13522 -0.47387,-3.24592c-0.01922,-0.65105 -0.03844,-1.33082 -0.05765,-2.03933l-6.49184,0.22973l-0.08619,-4.19396l6.63568,-0.28738c0.05746,-1.1107 0.12442,-2.21179 0.2009,-3.30328l-6.95159,0.25856l-0.08589,-4.22278l7.38222,-0.34445c0.13413,-1.32151 0.27777,-2.64292 0.43093,-3.96423zM144.57455,180.86156l-1.52251,-4.82579c1.95334,-0.7085 3.94491,-1.33082 5.97473,-1.86695l-1.92461,-6.29093l4.71107,-1.37896l2.03962,6.52066c1.12972,-0.24885 2.26915,-0.45946 3.41829,-0.63183c0.05746,-0.01922 0.11491,-0.02883 0.17237,-0.02883l1.49368,-6.20475l4.79696,0.83332l-1.55104,4.96933c0.99579,-0.03824 1.98197,-0.00471 2.95854,0.1006c0.97677,0.1053 1.93912,0.33984 2.88706,0.7036c0.94794,0.36396 1.7187,0.95765 2.31229,1.78106c0.59379,0.82342 0.9098,1.75224 0.94804,2.78646c0,1.16816 -0.33994,2.21179 -1.01981,3.13091c-0.67987,0.91931 -1.46505,1.7141 -2.35553,2.38436c-0.89048,0.67026 -1.82401,1.28307 -2.80058,1.83842c-0.97677,0.55535 -1.98216,1.04364 -3.01619,1.46486l-2.35553,-3.99276c1.03422,-0.51711 2.05874,-1.08207 3.07355,-1.69488c0.28728,-0.17237 0.57937,-0.35906 0.87627,-0.56006c0.2967,-0.201 0.58388,-0.4069 0.86156,-0.61771c0.27787,-0.21061 0.54604,-0.44034 0.80449,-0.68919c0.25846,-0.24904 0.42602,-0.55545 0.5027,-0.91921c-0.01922,-0.36396 -0.18198,-0.64644 -0.48829,-0.84744c-0.3065,-0.2012 -0.63212,-0.33523 -0.97686,-0.4021c-0.34454,-0.06707 -0.6988,-0.11021 -1.06276,-0.12942c-2.06825,-0.03824 -4.12689,0.11501 -6.17592,0.45975c-0.68948,0.0957 -1.42681,0.23924 -2.21199,0.43063l4.5387,14.9374l-4.96933,1.14894l-4.30897,-14.62119c-1.9149,0.67026 -3.79156,1.4075 -5.62999,2.2117zM286.10425,170.34813v4.07894h-7.95699v2.44172h7.18132v3.87804h-7.18132v2.64262h7.55489v3.96423h-7.55489v6.20475h-4.42369v-19.13136h-0.54564c-1.22561,2.20238 -2.47045,4.02168 -3.7345,5.45791c-0.34474,-0.4022 -0.85695,-0.91441 -1.53663,-1.53663c-0.67987,-0.62242 -1.24964,-1.10599 -1.70929,-1.45074c1.26385,-1.26385 2.44162,-2.88686 3.5333,-4.86903c1.09148,-1.98197 1.96285,-4.0358 2.61409,-6.16151l4.1363,1.09158c-0.30631,0.93833 -0.74674,2.06815 -1.32131,3.38946zM339.70559,175.54749l-0.22973,-4.7396c4.50026,-0.38298 9.02935,-0.68938 13.58727,-0.91921c-0.09589,-0.95755 -0.19169,-1.92461 -0.28738,-2.90118l5.25671,-0.31621l0.05736,3.10237c2.29808,0 4.60576,0.01912 6.92306,0.05736l0.11472,4.73989c-2.35534,-0.07667 -4.70126,-0.12462 -7.03778,-0.14384c0,1.76194 -0.08609,3.52379 -0.25826,5.28554c0.36376,0.86185 0.61271,1.88637 0.74684,3.07355c0.0957,1.30229 0.07648,2.59497 -0.05765,3.87804c-0.13394,1.28307 -0.33023,2.55653 -0.58888,3.82039c-0.25846,1.26405 -0.56006,2.51839 -0.9048,3.76303l-5.45761,-0.45946c0.59359,-1.45544 1.12972,-2.95873 1.6084,-4.50987c-0.67026,0.47868 -1.38838,0.79459 -2.15434,0.94774c-0.88087,0.24904 -1.72831,0.206 -2.54232,-0.12913c-0.81381,-0.33513 -1.46966,-0.86175 -1.96755,-1.57987c-0.49789,-0.71811 -0.86175,-1.48888 -1.09158,-2.31229c-0.22983,-0.82361 -0.32552,-1.67586 -0.28709,-2.55673c-0.01922,-1.2064 0.22492,-2.37456 0.73243,-3.50447c0.5075,-1.12992 1.27346,-2.03952 2.29788,-2.72881c1.02461,-0.68948 2.15934,-1.06295 3.40417,-1.12041c0.7085,-0.01922 1.35955,0.01912 1.95314,0.11501l-0.11472,-1.89608c-4.57694,0.22983 -9.14436,0.57457 -13.70228,1.03422zM141.12743,168.94064v3.99276h-10.88699v2.61409h8.99121v4.05041h-22.37728v-4.05041h8.84737v-2.61409h-10.82934v-3.99276h10.82934v-3.3321h4.5387v3.3321zM229.37171,168.94064v3.99276h-10.88699v2.61409h8.99121v4.05041h-22.37728v-4.05041h8.84737v-2.61409h-10.82934v-3.99276h10.82934v-3.3321h4.5387v3.3321zM264.18673,165.75208l4.1366,1.32131c-0.78518,2.10669 -1.68527,4.09836 -2.70027,5.97502v20.4812h-4.3375v-13.87435c-0.24904,0.30631 -0.66075,0.76586 -1.23513,1.37867c-0.19159,-0.57437 -0.53152,-1.35945 -1.01981,-2.35524c-0.48829,-0.99598 -0.91441,-1.75243 -1.27837,-2.26935c1.28307,-1.28307 2.49918,-2.87735 3.64831,-4.78284c1.14894,-1.90549 2.07766,-3.86363 2.78617,-5.87442zM122.11108,193.52961h-4.42369v-12.06476h20.91213v12.06476h-4.71107v-0.86185h-11.77738zM210.35536,193.52961h-4.42369v-12.06476h20.91213v12.06476h-4.71107v-0.86185h-11.77738zM306.55663,194.39147l-5.31407,-0.23002l2.5279,-28.35171l5.19906,0.22973zM290.70031,169.11301l5.40026,0.45975c-0.67026,3.44702 -0.82342,6.90355 -0.45946,10.36959l2.47025,-2.84352l2.09698,4.02129l-5.17053,5.86001l-3.5333,-0.91921c-0.44044,-1.35955 -0.73243,-2.74793 -0.87597,-4.16513c-0.14374,-1.41701 -0.22993,-2.83411 -0.25856,-4.25132c-0.02883,-1.4172 -0.01451,-2.83911 0.04295,-4.26573c0.05746,-1.42662 0.15325,-2.84853 0.28738,-4.26573zM133.88846,188.73236v-3.44682h-11.77738v3.44682zM222.13274,188.73236v-3.44682h-11.77738v3.44682zM351.82771,186.1471c0.44063,-0.01902 0.79018,-0.21051 1.04864,-0.57447c0.25846,-0.36376 0.41641,-0.75635 0.47387,-1.17777c0.22983,-1.37877 0.31601,-2.76714 0.25856,-4.16513c-0.21061,-0.26807 -0.48829,-0.45956 -0.83303,-0.57447c-0.99579,-0.24904 -1.80969,-0.0049 -2.44172,0.73243c-0.63183,0.73733 -0.91902,1.57516 -0.86156,2.51349c0,0.4022 0.01912,0.79479 0.05736,1.17777c0.03824,0.38298 0.14354,0.75165 0.31591,1.10599c0.17237,0.35415 0.44524,0.60791 0.81861,0.76125c0.37357,0.15315 0.76135,0.22012 1.16335,0.2009zM324.42374,188.53146c0.07667,-0.86185 0.1054,-1.74282 0.08619,-2.64292c-0.0957,-0.01902 -0.18188,-0.02853 -0.25856,-0.02853c-0.55535,0.01902 -1.12502,0.04775 -1.709,0.08619c-0.58418,0.03824 -1.13472,0.20581 -1.65164,0.5027c-0.51711,0.2967 -0.77567,0.77067 -0.77567,1.42191c-0.0957,0.68929 0.1006,1.25415 0.58888,1.69458c0.48829,0.44044 1.06756,0.6032 1.73782,0.48829c0.28728,-0.03824 0.58888,-0.09089 0.9048,-0.15796c0.31611,-0.06687 0.56986,-0.22963 0.76125,-0.48829c0.19159,-0.25846 0.29689,-0.55045 0.31591,-0.87597z"/></g></g></svg>