<svg version="1.1" xmlns="http://www.w3.org/2000/svg" xmlns:xlink="http://www.w3.org/1999/xlink" width="285.10345" height="208" viewBox="0,0,285.10345,208"><defs><linearGradient x1="197.11515" y1="223.66991" x2="278.70136" y2="223.66991" gradientUnits="userSpaceOnUse" id="color-1"><stop offset="0.012" stop-color="#a7a9ac"/><stop offset="1" stop-color="#414042"/></linearGradient><linearGradient x1="200.17517" y1="223.66911" x2="275.64053" y2="223.66911" gradientUnits="userSpaceOnUse" id="color-2"><stop offset="0" stop-color="#d1d2d3"/><stop offset="1" stop-color="#a4a5a8"/></linearGradient></defs><g transform="translate(-97.44828,-76)"><g stroke="none" stroke-miterlimit="10"><path d="M97.44828,284v-208h285.10345v208z" fill="#ffffff" stroke-width="0"/><text transform="translate(172.8938,163.16406) scale(1.59913,1.59913)" font-size="40" xml:space="preserve" fill="#9966ff" stroke-width="1" font-family="Sans Serif" font-weight="400" text-anchor="start"><tspan x="0" dy="0">大吉</tspan></text><path d="M278.70144,240.46305c0,4.26041 -3.45531,7.71483 -7.71483,7.71483h-66.15834c-4.26041,0 -7.71393,-3.45531 -7.71393,-7.71483v-33.58752c0,-4.26041 3.45352,-7.71393 7.71393,-7.71393h66.15745c4.26221,0 7.71483,3.45352 7.71483,7.71393v33.58752z" fill="url(#color-1)" stroke-width="1"/><path d="M275.63972,206.87553v33.58662c0,2.56593 -2.08628,4.6531 -4.654,4.6531h-66.15745c-2.56503,0 -4.6531,-2.08717 -4.6531,-4.6531v-33.58752c0,-2.56593 2.08807,-4.6531 4.6531,-4.6531h66.15745c2.56772,0 4.654,2.08807 4.654,4.654z" fill="url(#color-2)" stroke-width="1"/><text transform="translate(207.5,230.2069) scale(0.50656,0.50656)" font-size="40" xml:space="preserve" fill="#000000" stroke-width="1" font-family="Sans Serif" font-weight="normal" text-anchor="start"><tspan x="0" dy="0">止める</tspan></text></g></g></svg>