<svg version="1.1" xmlns="http://www.w3.org/2000/svg" xmlns:xlink="http://www.w3.org/1999/xlink" width="450.48835" height="32.54841" viewBox="0,0,450.48835,32.54841"><g transform="translate(-14.75582,-163.7258)"><g fill="#ffffff" fill-rule="evenodd" stroke="none" stroke-width="0" stroke-linecap="round" stroke-miterlimit="10"><path d="M104.14184,182.88918v7.3128h8.97761v4.70125h-23.79912v-4.70125h9.79397v-7.3128h-6.03979v-1.9259c-2.19813,5.57166 -5.06007,9.90273 -8.58582,12.99322c-0.9142,-1.39291 -1.98072,-2.6988 -3.19958,-3.91766c4.04837,-3.43883 7.05194,-8.84724 9.01071,-16.22523h-7.63941v-4.70125h8.74929c0.28282,-1.41453 0.56575,-3.21006 0.84879,-5.38657l5.09272,0.65289c-0.2612,1.50167 -0.55494,3.07957 -0.88121,4.73368h16.15971v4.70125h-17.26991c-0.34812,1.30577 -0.7943,2.78572 -1.33854,4.43983h18.02109v4.63573zM282.06474,174.10747l-0.03243,-9.0759l5.41933,-0.29385l-0.09795,11.00213l7.99812,-6.43159l4.34222,1.46925c-0.41364,2.30689 -0.80544,4.60843 -1.1754,6.90462c-0.36996,2.29619 -0.66381,4.58692 -0.88155,6.8722c-0.0653,0.43526 0,0.83787 0.1959,1.20782c0.1959,0.36996 0.53332,0.54402 1.01226,0.52218c0.47872,-0.02162 0.94662,-0.12492 1.40372,-0.3099c0.4571,-0.18498 0.90328,-0.38634 1.33854,-0.60408c1.43637,-0.76176 2.85102,-1.56697 4.24393,-2.41565l1.07745,5.6149c-1.93715,1.28416 -4.01572,2.22008 -6.23569,2.80778c-1.37107,0.3918 -2.74761,0.38088 -4.1296,-0.03276c-1.38199,-0.41342 -2.47025,-1.21328 -3.26477,-2.3996c-0.7943,-1.18609 -1.09349,-2.51906 -0.89759,-3.99889c0.21752,-2.74237 0.52218,-5.50647 0.91397,-8.2923l-5.97427,5.22343l-0.13071,14.07067l-5.05996,0.13038l-0.03276,-9.95711c-1.71941,2.08937 -3.34088,4.24404 -4.86439,6.46402l-3.62381,-3.88489c2.65523,-3.11233 5.41933,-6.14844 8.2923,-9.10833l-8.16159,-4.40741l1.46925,-4.92958zM409.84305,180.31006l-0.29385,-4.24393l8.4882,-0.35904l-0.32661,-2.97092l-9.6305,0.22866l-0.22866,-4.37464l9.43494,-0.45699l-0.29385,-2.84021l5.41933,-0.35937l0.22833,2.93816l8.88,-0.42423l0.16314,4.86439l-8.6841,0.29385l0.22866,2.93816l7.34556,-0.32661l0.22833,4.27669l-7.24728,0.26109c0.08692,0.95766 0.17395,2.05683 0.26109,3.29753c3.04703,0.63116 6.10487,1.56697 9.17351,2.80745l-2.44841,5.35414c-2.26343,-1.5019 -4.47248,-2.63372 -6.62715,-3.39548c-0.02184,1.1754 -0.07622,2.19835 -0.16314,3.06887c-0.2612,1.45821 -1.01761,2.60085 -2.26923,3.42791c-1.25139,0.82706 -2.58436,1.26232 -3.99889,1.30577c-1.0448,0.0653 -2.08413,0 -3.11801,-0.1959c-1.03365,-0.1959 -2.00212,-0.57678 -2.9054,-1.14264c-0.90328,-0.56586 -1.61066,-1.32215 -2.12213,-2.26889c-0.51148,-0.94674 -0.7563,-1.95331 -0.73446,-3.01973c-0.08714,-1.65411 0.47872,-2.95454 1.69757,-3.90128c1.21886,-0.94674 2.56831,-1.59427 4.04837,-1.94261c1.47983,-0.34812 2.94886,-0.56575 4.40707,-0.65289c-0.0653,-0.93582 -0.15233,-1.7846 -0.26109,-2.54636zM40.41599,174.23785h-3.4931v2.93816c0,1.1101 0.16314,2.25273 0.48941,3.42791c0.3265,1.1754 0.8489,2.41052 1.5672,3.70538c0.7183,1.29508 1.76298,2.54112 3.13406,3.73814c1.37107,1.19702 2.98162,2.19813 4.83163,3.00335c-1.10987,1.39291 -2.16548,2.87297 -3.16682,4.44017c-2.45933,-1.13194 -4.53232,-2.76432 -6.21897,-4.89715c-1.68665,-2.13283 -2.74772,-4.08068 -3.1832,-5.84356c-0.54402,1.74103 -1.76276,3.66169 -3.65623,5.76199c-1.89347,2.10029 -4.21139,3.75987 -6.95376,4.97872c-0.2612,-0.54424 -0.70738,-1.25162 -1.33854,-2.12213c-0.63116,-0.87052 -1.16437,-1.53432 -1.59962,-1.99142c2.00223,-0.80522 3.74884,-1.81179 5.23981,-3.01973c1.49075,-1.20794 2.62793,-2.47571 3.41153,-3.80333c0.7836,-1.32761 1.36038,-2.60085 1.73033,-3.81971c0.36996,-1.21886 0.55494,-2.39414 0.55494,-3.52586v-2.97092h-1.86071c-1.0448,2.32895 -2.15478,4.25508 -3.32996,5.77837c-1.28416,-0.95743 -2.81859,-1.82795 -4.6033,-2.61155c1.39291,-1.45821 2.59539,-3.37888 3.60743,-5.76199c1.01204,-2.38333 1.76833,-4.95699 2.26889,-7.72098l5.06029,0.88155c-0.2612,1.28393 -0.653,2.81826 -1.1754,4.60297h10.38167l0.94674,-0.29385l3.59105,2.15489c-0.93582,3.19925 -2.25251,6.3333 -3.95008,9.40217c-2.13305,-1.1101 -3.50424,-1.7739 -4.11356,-1.99142c0.73992,-1.52351 1.34934,-3.00357 1.82828,-4.44017zM184.97446,173.51977l-0.13071,-4.66849l6.20293,-0.29385c-0.10898,-0.95766 -0.22866,-1.92612 -0.35904,-2.9054l5.15791,-0.22866c0.0653,0.95766 0.14152,1.90439 0.22866,2.84021l12.89527,-0.71808v4.53778l-12.40552,0.7836c0.0653,0.80522 0.15233,1.55605 0.26109,2.25251c2.21997,-0.30466 4.42356,-0.13049 6.61077,0.52251c2.18743,0.65278 4.0048,1.87152 5.45209,3.65623c1.44729,1.78471 2.19267,3.84144 2.23613,6.17017c0.04368,3.17763 -0.83775,6.03968 -2.64431,8.58615l-6.43125,-2.64431c0.76176,-0.82706 1.38199,-1.75752 1.86071,-2.7914c0.47894,-1.03388 0.72922,-2.11667 0.75084,-3.24839c-0.02162,-1.24047 -0.34255,-2.38311 -0.96278,-3.42791c-0.62046,-1.04457 -1.49655,-1.81714 -2.62826,-2.3177l1.33854,5.12548l-14.10309,9.4346c-1.06664,-1.45821 -1.91008,-3.04157 -2.53031,-4.75006c-0.62024,-1.70849 -0.78884,-3.47683 -0.5058,-5.305c0.28282,-1.82817 1.0663,-3.41153 2.35046,-4.75006c1.28416,-1.33854 2.7641,-2.33419 4.43983,-2.98697c-0.1306,-1.06664 -0.27201,-2.14397 -0.42423,-3.23201zM309.35729,174.66241l-0.26109,-5.09305l8.68376,-0.45699l1.86105,-4.50502l5.09272,0.65289l-1.66481,3.55828l5.94151,-0.32628l-0.26109,5.09272l-8.12916,0.42456l-1.37096,2.9054c1.71941,0.34834 3.27558,1.07745 4.66849,2.18732c1.87163,-0.76176 3.80321,-1.20248 5.79475,-1.32215c1.99131,-0.11968 3.98819,-0.04892 5.99065,0.21228l-0.13071,4.53778c-2.76399,-0.34812 -5.48452,-0.23925 -8.16159,0.32661c0.93582,1.15333 1.87163,2.3177 2.80745,3.4931l-5.32138,2.15456c-0.67462,-1.10987 -1.42545,-2.17629 -2.25251,-3.19925c-0.47872,0.47872 -0.83787,1.02819 -1.07745,1.64843c-0.23936,0.62046 -0.25563,1.25162 -0.04881,1.89347c0.20682,0.64208 0.60397,1.12637 1.19144,1.45287c0.653,0.28304 1.33319,0.45175 2.04056,0.50613c0.70738,0.05438 1.41476,0.07065 2.12213,0.04881c0.70715,-0.02162 1.41988,-0.076 2.13818,-0.16314l-0.13071,5.22343c-2.69869,0.50056 -5.37565,0.41353 -8.03088,-0.26109c-1.87163,-0.50056 -3.12849,-1.61054 -3.77056,-3.32996c-0.64208,-1.71941 -0.71284,-3.44429 -0.21228,-5.17462c0.50056,-1.73011 1.33842,-3.28082 2.5136,-4.65211c-2.15445,-0.95766 -4.40696,-1.34934 -6.75753,-1.17506l2.93816,-7.01895zM219.02454,172.54027l-1.04469,-5.61523l16.97606,-2.15456l1.59996,3.62381l-6.95376,8.2923c1.56697,-0.8489 3.25909,-1.26789 5.07634,-1.25697c1.81748,0.01092 3.46613,0.5604 4.94596,1.64843c2.28527,1.8284 3.40618,4.13551 3.36272,6.92134c-0.04346,2.78583 -0.93582,5.24516 -2.67707,7.37799c-0.97927,1.06642 -2.09472,1.90428 -3.34634,2.5136c-1.25139,0.60954 -2.55182,1.06664 -3.90128,1.3713c-1.08803,0.17406 -2.18164,0.16314 -3.28082,-0.03276c-1.09918,-0.1959 -2.0731,-0.66927 -2.92178,-1.4201c-0.8489,-0.75084 -1.36038,-1.69211 -1.53443,-2.82383c-0.21774,-1.28416 0.02708,-2.44852 0.73446,-3.4931c0.70738,-1.0448 1.62146,-1.8392 2.74226,-2.38322c1.12102,-0.54424 2.32349,-0.77279 3.60743,-0.68565c1.63227,0.17406 3.21017,0.56586 4.73368,1.1754c0.17428,-0.74014 0.20158,-1.5019 0.0819,-2.28527c-0.1199,-0.7836 -0.45732,-1.46379 -1.01226,-2.04056c-0.55494,-0.57678 -1.24593,-0.90863 -2.07299,-0.99554c-1.37107,-0.10898 -2.6715,0.11411 -3.90128,0.66927c-1.22955,0.55494 -2.35046,1.26766 -3.36272,2.13818c-1.01204,0.87052 -1.94785,1.81179 -2.80745,2.82383c-0.8596,1.01204 -1.64854,2.08402 -2.36684,3.21596l-4.27669,-3.75452l10.44686,-14.16862zM436.352,175.02144l-0.26109,-5.38657c5.11456,-0.43526 10.26177,-0.78349 15.44163,-1.04469c-0.10876,-1.08826 -0.21763,-2.18732 -0.32661,-3.2972l5.9746,-0.35937l0.06519,3.52586c2.61177,0 5.23435,0.02173 7.86774,0.06519l0.13071,5.3869c-2.67707,-0.08714 -5.34322,-0.14163 -7.99845,-0.16347c0,2.00245 -0.09795,4.0048 -0.29385,6.00703c0.41342,0.9795 0.69635,2.14386 0.84879,3.4931c0.10876,1.48006 0.08703,2.94919 -0.06519,4.40741c-0.15244,1.45821 -0.37553,2.90551 -0.66927,4.34188c-0.29396,1.4366 -0.63673,2.86216 -1.02831,4.27669l-6.20293,-0.52218c0.67462,-1.65411 1.28404,-3.36261 1.82828,-5.12548c-0.76176,0.54402 -1.57801,0.90305 -2.44874,1.07711c-1.00112,0.28304 -1.96412,0.23412 -2.88902,-0.14676c-0.92512,-0.38088 -1.67061,-0.97939 -2.23646,-1.79552c-0.56586,-0.81614 -0.97939,-1.69211 -1.24059,-2.62793c-0.26098,-0.93604 -0.36974,-1.90462 -0.32628,-2.90573c-0.02184,-1.37107 0.25563,-2.69869 0.83241,-3.98284c0.57678,-1.28416 1.44741,-2.31792 2.61188,-3.1013c1.16425,-0.7836 2.45376,-1.20805 3.86851,-1.27335c0.80522,-0.02184 1.54513,0.02173 2.21975,0.13071l-0.13038,-2.15489c-5.2017,0.2612 -10.39248,0.653 -15.57234,1.1754zM134.92748,165.74998v21.28552h-1.30611c1.41476,2.21997 2.35068,4.04814 2.80778,5.48452l-3.65657,2.18732c-0.36996,-1.3713 -1.20782,-3.24304 -2.5136,-5.61523c-1.19702,2.48117 -2.61166,4.59227 -4.24393,6.3333c-0.93604,-0.89236 -1.99165,-1.70849 -3.16682,-2.44841v2.48117h-4.6033v-15.63753c-0.41342,0.56586 -0.88133,1.16437 -1.40372,1.79552c-0.1959,-0.63116 -0.53321,-1.52351 -1.01192,-2.67707c-0.47894,-1.15356 -0.90339,-2.04591 -1.27335,-2.67707c1.28416,-1.50167 2.48663,-3.37342 3.60743,-5.61523c1.12079,-2.24159 2.02942,-4.54859 2.72588,-6.921l4.47259,1.33854l-0.22833,0.68565zM351.27545,185.6642v-20.0777h18.67364v20.0777h-4.96234v-1.43649h-2.1218v11.26322h-4.6033v-11.26322h-2.25251v1.43649zM377.91477,167.83935l6.95376,0.3918c-0.5224,2.13283 -1.01215,4.38534 -1.46925,6.75753c-0.45688,2.37241 -0.79418,4.75563 -1.01192,7.14966c-0.08714,0.82706 0.03254,1.63238 0.35904,2.41598c0.3265,0.78338 0.85436,1.38734 1.58358,1.8119c0.729,0.42434 1.4961,0.64743 2.30132,0.66927c0.80544,0.02162 1.59985,-0.08725 2.38322,-0.32661c1.08826,-0.41342 2.11121,-0.91397 3.06887,-1.50167c0.95766,-0.5877 1.90439,-1.20259 2.84021,-1.84466c0.93582,-0.64208 1.8499,-1.30589 2.74226,-1.99142c0.89236,-0.68554 1.68676,-1.31123 2.38322,-1.87709l3.00335,6.17017c-1.32761,0.87052 -2.7368,1.73568 -4.22755,2.5955c-1.49075,0.8596 -3.00335,1.654 -4.53778,2.38322c-1.53443,0.729 -3.11779,1.28939 -4.75006,1.68119c-1.45821,0.30466 -2.91097,0.43526 -4.35826,0.3918c-1.44729,-0.04368 -2.85659,-0.3158 -4.22789,-0.81636c-0.97927,-0.39158 -1.83898,-0.96289 -2.57912,-1.71395c-0.73992,-0.75084 -1.26766,-1.62681 -1.58324,-2.62793c-0.31558,-1.00112 -0.46245,-2.0458 -0.44061,-3.13406c0.04346,-5.61512 0.56575,-11.14321 1.56686,-16.58427zM347.61888,178.51454l2.41598,-0.55494l0.62013,4.43983l-3.03611,0.75084v7.18243c0,1.10987 -0.10876,1.95866 -0.32628,2.54636c-0.21774,0.5877 -0.62046,1.05561 -1.20816,1.40372c-0.93582,0.5877 -2.63339,0.88155 -5.09272,0.88155c-0.1306,-1.21886 -0.55505,-2.65534 -1.27335,-4.30946c0.69646,0.02184 1.58881,0.03276 2.67707,0.03276c0.21774,0 0.36461,-0.03811 0.44061,-0.11433c0.07622,-0.07622 0.11433,-0.22309 0.11433,-0.44061v-6.00703l-2.64431,0.65289l-1.17506,-4.66849c0.97927,-0.17406 2.2524,-0.42434 3.81937,-0.75084v-5.19067h-3.39515v-4.47259h3.39515v-6.17017h4.66849v6.17017h2.93816v4.47259h-2.93816zM141.5874,190.26751v-25.95401h4.37431v25.95401c0,1.17517 -0.11422,2.0838 -0.34266,2.72588c-0.22844,0.64208 -0.64743,1.1481 -1.25697,1.51805c-0.93582,0.60932 -2.74226,0.91397 -5.41933,0.91397c-0.15222,-1.45821 -0.58748,-2.99254 -1.30577,-4.60297c0.93582,0.04346 2.03488,0.06519 3.2972,0.06519c0.43548,0 0.65322,-0.20671 0.65322,-0.62013zM51.3526,167.7414l5.32138,0.35904c-0.47894,2.87297 -0.81636,5.75675 -1.01226,8.65134c-0.1959,2.89459 -0.14141,5.77837 0.16347,8.65134l2.38289,-1.20816l1.66515,4.63607l-8.12883,4.34188c-0.69646,-2.74237 -1.1481,-5.53912 -1.35492,-8.39025c-0.20682,-2.85113 -0.23401,-5.70226 -0.08157,-8.55339c0.15222,-2.85113 0.50045,-5.68042 1.04469,-8.48787zM151.64246,167.7414l5.32138,0.35904c-0.47894,2.87297 -0.81636,5.75675 -1.01226,8.65134c-0.1959,2.89459 -0.14141,5.77837 0.16347,8.65134l2.38289,-1.20816l1.66515,4.63607l-8.12883,4.34188c-0.69646,-2.74237 -1.1481,-5.53912 -1.35492,-8.39025c-0.20682,-2.85113 -0.23401,-5.70226 -0.08157,-8.55339c0.15222,-2.85113 0.50045,-5.68042 1.04469,-8.48787zM248.99416,174.85831l-0.55527,-5.68042c2.06775,-0.3265 4.15713,-0.59862 6.26812,-0.81636c2.11121,-0.21752 4.22789,-0.35893 6.35002,-0.42423c2.12191,-0.0653 4.23847,0.03265 6.34969,0.29385l0.84879,4.40707l-8.58615,7.08448l-3.55828,-3.75452l3.16649,-2.35046c-3.46045,0.0653 -6.88824,0.47883 -10.28339,1.24059zM122.84824,171.56111v21.08929c1.30577,-1.32761 2.50279,-3.19925 3.59105,-5.6149h-1.43649v-20.86129c-0.5877,1.74125 -1.30589,3.53689 -2.15456,5.3869zM248.53684,192.25893l0.35937,-5.5828c3.17741,0.50056 6.39849,0.74003 9.66326,0.71841c3.6345,-0.0653 7.26912,-0.42445 10.90385,-1.07745l0.22866,6.00703c-3.80879,0.60932 -7.62849,0.90317 -11.45912,0.88155c-3.28639,0 -6.5184,-0.31558 -9.69602,-0.94674zM136.20049,167.57793h4.14632v20.17565h-4.14632zM61.60356,175.54395l-0.3918,-5.71318c1.50167,-0.30466 3.02519,-0.57132 4.57054,-0.79998c1.54513,-0.22844 3.09584,-0.37531 4.65211,-0.44061c1.55605,-0.0653 3.11757,0.04346 4.68454,0.32628l0.5877,4.40741l-6.3333,5.61523l-2.54636,-2.31803l2.35046,-2.3177c-2.58993,0.0653 -5.11456,0.47883 -7.57389,1.24059zM161.89342,175.54395l-0.3918,-5.71318c1.50167,-0.30466 3.02519,-0.57132 4.57054,-0.79998c1.54513,-0.22844 3.09584,-0.37531 4.65211,-0.44061c1.55605,-0.0653 3.11757,0.04346 4.68454,0.32628l0.5877,4.40741l-6.3333,5.61523l-2.54636,-2.31803l2.35046,-2.3177c-2.58993,0.0653 -5.11456,0.47883 -7.57389,1.24059zM61.14657,190.39789l0.26109,-5.58247c2.32873,0.73992 4.71195,1.09907 7.14966,1.07745c1.65389,-0.04368 3.29708,-0.22877 4.92958,-0.55527c1.63227,-0.32628 3.24282,-0.70715 4.83163,-1.14264l0.1959,5.9746c-3.39537,0.69646 -6.82328,1.08814 -10.28372,1.17506c-2.41587,-0.02162 -4.77725,-0.3372 -7.08414,-0.94674zM161.43643,190.39789l0.26109,-5.58247c2.32873,0.73992 4.71195,1.09907 7.14966,1.07745c1.65389,-0.04368 3.29708,-0.22877 4.92958,-0.55527c1.63227,-0.32628 3.24282,-0.70715 4.83163,-1.14264l0.1959,5.9746c-3.39537,0.69646 -6.82328,1.08814 -10.28372,1.17506c-2.41587,-0.02162 -4.77725,-0.3372 -7.08414,-0.94674zM22.29729,178.64525l2.77469,4.17874c-2.15467,2.65523 -4.55962,5.33219 -7.21485,8.03088l-3.1013,-4.21117c2.15467,-2.11121 4.66849,-4.77736 7.54146,-7.99845zM25.00678,170.35295l-3.689,4.01561c-1.00112,-1.32761 -2.89459,-3.01438 -5.68042,-5.06029l3.46033,-3.59105c2.89481,1.91531 4.8645,3.46056 5.90908,4.63573zM450.12882,187.06793c0.50056,-0.02162 0.89771,-0.23925 1.19144,-0.65289c0.29396,-0.41342 0.47359,-0.8596 0.53889,-1.33854c0.26098,-1.56697 0.35881,-3.14487 0.29351,-4.73368c-0.23936,-0.30466 -0.55494,-0.52229 -0.94674,-0.65289c-1.13172,-0.28304 -2.05661,-0.00557 -2.77469,0.83241c-0.7183,0.83798 -1.0448,1.79017 -0.9795,2.85659c0,0.4571 0.02173,0.90328 0.06519,1.33854c0.04368,0.43526 0.16336,0.85425 0.35904,1.25697c0.1959,0.4025 0.50613,0.69089 0.93069,0.86517c0.42434,0.17406 0.86506,0.25017 1.32215,0.22833zM418.98414,189.77776c0.08692,-0.9795 0.11957,-1.98072 0.09795,-3.00368c-0.10898,-0.02162 -0.20693,-0.03243 -0.29385,-0.03243c-0.63116,0.02162 -1.2787,0.05427 -1.94261,0.09795c-0.6637,0.04346 -1.28939,0.2339 -1.87709,0.57132c-0.5877,0.3372 -0.88155,0.87586 -0.88155,1.616c-0.10876,0.78338 0.11433,1.42534 0.66927,1.9259c0.55494,0.50056 1.21328,0.68554 1.97504,0.55494c0.3265,-0.04346 0.66938,-0.1033 1.02864,-0.17952c0.35904,-0.076 0.64732,-0.26098 0.86483,-0.55494c0.21774,-0.29374 0.33753,-0.62559 0.35937,-0.99554zM190.23032,187.00274l3.26477,-2.22008c-0.2612,-1.30577 -0.51148,-2.62247 -0.75084,-3.95008c-1.00112,0.69646 -1.7193,1.60508 -2.15456,2.72588c-0.43548,1.12079 -0.55527,2.26889 -0.35937,3.44429zM231.33245,187.91671c-0.47894,0.0653 -0.89793,0.27212 -1.25697,0.62046c-0.35926,0.34812 -0.50624,0.77245 -0.44094,1.27301c0.15244,0.4571 0.44629,0.74003 0.88155,0.84879c0.43526,0.10898 0.86517,0.13628 1.28973,0.0819c0.42434,-0.0546 0.84321,-0.1472 1.25663,-0.2778c1.08826,-0.32628 1.9698,-0.96824 2.64464,-1.9259c-1.41476,-0.54424 -2.87297,-0.75106 -4.37464,-0.62046zM130.06309,188.7655v-0.03243l3.06887,-1.69757h-6.17017zM203.69724,181.94245c-0.62046,-1.04457 -1.49655,-1.81714 -2.62826,-2.3177c-1.13172,-0.43548 -2.28516,-0.58792 -3.46033,-0.45732c0.21752,0.82706 0.41331,1.63238 0.58736,2.41598l2.87297,-1.95866M356.00913,177.07805v2.77502h2.25251v-2.77502zM358.26164,172.70341v-2.7095h-2.25251v2.7095zM362.86494,177.07805v2.77502h2.1218v-2.77502zM362.86494,172.70341h2.1218v-2.7095h-2.1218zM130.71598,180.99571h-1.69757v2.22008h1.69757zM130.71598,175.28253h-1.69757v2.18732h1.69757zM130.71598,169.56935h-1.69757v2.15489h1.69757z"/></g></g></svg>