<svg version="1.1" xmlns="http://www.w3.org/2000/svg" xmlns:xlink="http://www.w3.org/1999/xlink" width="84.29654" height="85.00001" viewBox="0,0,84.29654,85.00001"><g transform="translate(-208.85173,-122.49999)"><g fill="#ffffff" fill-rule="evenodd" stroke="none" stroke-miterlimit="10"><path d="M285.17953,130.46875h3.98437c2.20051,0 3.98438,1.78387 3.98438,3.98438c0,2.20051 -1.78387,3.98437 -3.98438,3.98437h-3.98437v3.98438c0,2.20051 -1.78387,3.98437 -3.98438,3.98437c-2.20051,0 -3.98437,-1.78387 -3.98437,-3.98437v-3.98438h-3.98438c-2.20051,0 -3.98437,-1.78387 -3.98437,-3.98437c0,-2.20051 1.78387,-3.98438 3.98438,-3.98438h3.98438v-3.98438c0,-2.20051 1.78387,-3.98438 3.98437,-3.98438c2.20051,0 3.98438,1.78387 3.98438,3.98438zM271.48088,182.9938c0,17.2838 -14.0702,24.5062 -31.354,24.5062c-17.27723,0 -31.27514,-7.22239 -31.27514,-24.5062c0,-4.27166 0.71632,-7.88614 2.10297,-10.90917l-0.52574,-24.97279c-0.06572,-2.76015 3.02302,-4.33738 5.25743,-2.69443l13.34073,10.05483c3.08874,-1.64295 6.90038,-2.36584 11.09975,-2.36584c4.21252,0 8.08987,0.7229 11.17861,2.36584l13.34073,-10.05483c2.16869,-1.64295 5.25743,-0.06572 5.25743,2.69443l-0.52574,24.97279c1.38008,3.02302 2.10297,6.6375 2.10297,10.90917zM253.33749,193.76956c0.92662,-0.9792 0.78861,-2.563 -0.2563,-3.48305c-0.98577,-0.85433 -2.56957,-0.7229 -3.48305,0.33516c-0.72947,0.84776 -1.78095,1.30779 -2.89816,1.30779c-2.10297,0 -3.87735,-1.70867 -3.87735,-3.87735v-3.61448c3.81164,-1.05149 6.70322,-4.26509 6.70322,-6.37463c0,-2.62871 -4.14023,-2.62871 -9.13478,-2.62871c-5.0537,0 -9.12821,0 -9.12821,2.62871c0,2.10954 2.76015,5.32315 6.63093,6.30892v3.6802c0,2.16869 -1.70209,3.87735 -3.81164,3.87735c-1.17635,0 -2.23441,-0.46003 -2.9573,-1.30779c-0.85433,-1.05806 -2.43156,-1.18949 -3.48305,-0.33516c-1.04491,0.92005 -1.1172,2.50385 -0.2563,3.48305c1.64295,1.97154 4.06794,3.08874 6.69665,3.08874c2.43156,0 4.66597,-1.04491 6.30892,-2.68786c1.5838,1.64295 3.81164,2.68786 6.30892,2.68786c2.56957,0 4.99456,-1.1172 6.6375,-3.08874z"/></g></g></svg>