<svg version="1.1" xmlns="http://www.w3.org/2000/svg" xmlns:xlink="http://www.w3.org/1999/xlink" width="259.9412" height="23.86513" viewBox="0,0,259.9412,23.86513"><g transform="translate(-110.0294,-168.06743)"><g fill="#ffffff" fill-rule="evenodd" stroke="none" stroke-width="0" stroke-linecap="round" stroke-miterlimit="10"><path d="M312.37024,169.73634l3.52848,-1.38278c0.7311,1.4622 1.76818,2.98406 3.11125,4.56556c1.34307,1.5815 2.71396,2.93645 4.11269,4.06484c-0.47688,0.3815 -1.01731,0.89011 -1.6213,1.52584c-0.60399,0.63589 -1.07289,1.20017 -1.4067,1.69283c-0.47671,-0.47688 -0.83429,-0.84243 -1.07273,-1.09665c-0.11133,3.56029 -0.25439,6.11134 -0.42919,7.65313c-0.1748,1.54163 -0.46093,2.55885 -0.85838,3.05168c-0.5563,0.7311 -1.3748,1.18405 -2.4555,1.35885c-0.65168,0.11133 -1.85168,0.15104 -3.60001,0.11914c-0.06364,-1.23971 -0.46101,-2.43174 -1.19211,-3.57608c1.01723,0.07943 2.01061,0.11914 2.98015,0.11914c0.39729,0 0.72313,-0.12711 0.97751,-0.38134c0.39729,-0.44514 0.67544,-2.78159 0.83445,-7.00934h-4.00551c-0.12711,1.00128 -0.29394,1.90327 -0.50048,2.70599c-0.2067,0.80255 -0.52066,1.63302 -0.94187,2.49139c-0.42121,0.85821 -0.93381,1.62504 -1.5378,2.30048c-0.60399,0.6756 -1.38278,1.32728 -2.33637,1.95503c-0.95359,0.62791 -2.05822,1.18023 -3.31388,1.65694c-0.22249,-0.50861 -0.56029,-1.08868 -1.0134,-1.74019c-0.45295,-0.65168 -0.89394,-1.16826 -1.32296,-1.54977c1.2874,-0.42919 2.38007,-0.92592 3.27799,-1.4902c0.89809,-0.56411 1.60144,-1.19585 2.11005,-1.89522c0.50861,-0.69936 0.88613,-1.39075 1.13254,-2.07417c0.24625,-0.68358 0.43293,-1.47034 0.56004,-2.36029h-3.64761v-1.57369c-0.68341,0.68358 -1.25558,1.20017 -1.71651,1.54977c-0.85838,-1.00128 -1.8756,-1.96284 -3.05168,-2.88469c1.52584,-1.00144 2.92449,-2.31277 4.19594,-3.93398c1.27162,-1.62122 2.265,-3.35368 2.98015,-5.19738l3.86245,1.12058c-1.1445,2.68613 -2.67034,5.17353 -4.57752,7.46221h11.75361c-1.97082,-2.44769 -3.57608,-4.86357 -4.8158,-7.24762zM136.66008,171.38131l3.88613,0.2622c-0.3496,2.09809 -0.59593,4.20408 -0.739,6.31796c-0.14306,2.11404 -0.10335,4.22003 0.11914,6.31796l1.74043,-0.88206l0.83445,2.38422c0.1748,-0.9378 0.61188,-1.73254 1.31125,-2.38422c0.69936,-0.65168 1.4941,-1.13246 2.38422,-1.44235c0.88995,-0.31005 1.8118,-0.48094 2.76556,-0.51268c-0.11133,-1.2874 -0.23852,-2.58278 -0.38158,-3.88613l-5.50719,0.42919l-0.28613,-3.88613l5.41197,-0.42919l-0.64378,-4.45814l4.21986,-0.28613l0.19067,4.45814l4.57752,-0.35741l0.19091,3.88589l-4.55384,0.38158c0.11133,1.4622 0.19873,2.91651 0.2622,4.36293c1.95503,0.30208 3.87824,0.73916 5.76963,1.31125l-1.47799,3.8146c-1.39873,-0.5244 -2.81332,-1.00917 -4.24379,-1.45431c0,0.96954 -0.04769,1.81197 -0.14306,2.52728c-0.1748,1.06491 -0.65558,1.93908 -1.44235,2.62249c-0.78676,0.68341 -1.70471,1.04896 -2.75384,1.09665c-0.9059,0.06364 -1.79593,-0.06746 -2.6701,-0.3933c-0.87416,-0.32584 -1.57353,-0.87425 -2.09809,-1.64522c-0.52456,-0.77081 -0.81069,-1.62512 -0.85838,-2.56292l-5.57872,2.98015c-0.50861,-2.00255 -0.83844,-4.0449 -0.98948,-6.12704c-0.15104,-2.08214 -0.17089,-4.16428 -0.05957,-6.24642c0.11133,-2.08214 0.36563,-4.14841 0.76292,-6.19882zM128.76868,175.83969h-2.55096v2.1457c0,0.81053 0.11914,1.64498 0.35741,2.50335c0.23844,0.85821 0.61994,1.76021 1.1445,2.70599c0.52456,0.94561 1.28748,1.85558 2.28876,2.72991c1.00128,0.87416 2.17744,1.60527 3.52848,2.1933c-0.81053,1.01723 -1.58142,2.09801 -2.31269,3.24235c-1.79602,-0.82648 -3.30989,-2.0185 -4.54163,-3.57608c-1.23174,-1.55774 -2.00662,-2.98031 -2.32465,-4.26771c-0.39729,1.27162 -1.28732,2.67433 -2.6701,4.20815c-1.38278,1.53365 -3.07552,2.74554 -5.07824,3.63565c-0.19075,-0.39729 -0.51659,-0.9138 -0.97751,-1.54952c-0.46093,-0.63589 -0.85032,-1.12074 -1.16818,-1.45455c1.4622,-0.58804 2.73772,-1.32313 3.82656,-2.20527c1.08868,-0.88214 1.91914,-1.80798 2.49139,-2.77752c0.57225,-0.96954 0.99346,-1.89928 1.26364,-2.78924c0.27018,-0.89011 0.40526,-1.74841 0.40526,-2.57489v-2.16962h-1.35885c-0.763,1.70064 -1.57361,3.10726 -2.43182,4.21986c-0.9378,-0.69936 -2.05838,-1.33509 -3.36173,-1.90718c1.01723,-1.06491 1.89538,-2.46763 2.63446,-4.20815c0.73908,-1.74035 1.29139,-3.61978 1.65694,-5.63829l3.69546,0.64354c-0.19075,0.9378 -0.47688,2.05838 -0.85838,3.36173h7.5816l0.69139,-0.21459l2.62249,1.57345c-0.68341,2.33653 -1.64498,4.62529 -2.88469,6.86628c-1.55774,-0.81053 -2.5591,-1.2953 -3.00407,-1.45431c0.54035,-1.1126 0.98541,-2.19339 1.33517,-3.24235zM348.87103,176.41196l-0.19067,-3.93398c3.73509,-0.31786 7.49403,-0.57217 11.27682,-0.76292c-0.07943,-0.79458 -0.15885,-1.59721 -0.23828,-2.4079l4.36293,-0.2622l0.04761,2.57489c1.90734,0 3.82258,0.01587 5.7457,0.04761l0.09546,3.93374c-1.95503,-0.06347 -3.90208,-0.10319 -5.84116,-0.11914c0,1.4622 -0.07153,2.92449 -0.21459,4.38685c0.30208,0.71515 0.50869,1.56547 0.61986,2.55096c0.07959,1.08086 0.06372,2.15375 -0.04761,3.21867c-0.11116,1.06491 -0.27408,2.12185 -0.48876,3.17082c-0.21451,1.04896 -0.46483,2.09004 -0.75096,3.12321l-4.52992,-0.38158c0.49283,-1.20781 0.93788,-2.4555 1.33517,-3.74307c-0.5563,0.39745 -1.15231,0.65973 -1.78804,0.78685c-0.7311,0.2067 -1.43445,0.17098 -2.11005,-0.10718c-0.67544,-0.27815 -1.21978,-0.71531 -1.63302,-1.31149c-0.41324,-0.59601 -0.71523,-1.23573 -0.90598,-1.91914c-0.19075,-0.68341 -0.27026,-1.39067 -0.23852,-2.12177c-0.01579,-1.00144 0.18693,-1.97098 0.60814,-2.90862c0.42105,-0.9378 1.05678,-1.69283 1.90718,-2.26508c0.8504,-0.57209 1.79211,-0.88198 2.82512,-0.92966c0.5882,-0.01595 1.12863,0.01579 1.6213,0.09521l-0.09546,-1.57345c-3.79857,0.19075 -7.58933,0.47688 -11.37227,0.85838zM206.89634,181.63301l4.31532,-12.58806l4.57752,0.69139l-1.45431,3.93374l8.94045,-0.7866l-1.21579,-3.07561l1.74043,-0.64378l1.54952,3.8146l-1.62105,0.50072l1.33493,1.8835l-9.36939,16.42659l-3.8146,-1.83589l7.53375,-13.32706l-6.43709,0.50048l-1.95503,5.24523zM295.18049,169.54566l0.54857,-0.11938l2.59857,1.59737c-1.16029,3.43318 -2.03445,5.84116 -2.62249,7.22394c1.38278,1.62122 2.07417,3.49674 2.07417,5.62657c0,1.92329 -0.4689,3.21867 -1.4067,3.88613c-0.46093,0.34976 -1.04107,0.57225 -1.74043,0.66746c-0.3496,0.04769 -0.96148,0.07153 -1.83565,0.07153c-0.03174,-1.35088 -0.31786,-2.50319 -0.85838,-3.45694c0.54051,0.0319 0.90606,0.03988 1.09665,0.02393c0.34976,0 0.62002,-0.06356 0.81077,-0.19067c0.3496,-0.2067 0.5244,-0.70742 0.5244,-1.50216c0,-1.65295 -0.70726,-3.21851 -2.12177,-4.69666c0.50861,-1.39873 1.08078,-3.33781 1.71651,-5.81724h-2.07417v18.50075h-3.45694v-21.81464zM253.91127,184.80408l5.12609,-15.473l4.88733,0.47679l-5.00671,13.8517l6.41341,-1.45431l-1.6213,-2.93254l3.62393,-1.95478l6.43709,10.75241l-4.00527,2.1457l-2.43182,-4.38685l-14.66247,4.21986l-1.90718,-4.52992zM325.41142,176.22104l-0.33398,-4.10048c3.71931,-0.44514 7.52601,-0.82664 11.42012,-1.1445c2.52712,-0.11133 5.00655,-0.11133 7.43829,0l0.11938,4.19618c-0.52456,-0.04769 -1.13653,-0.09538 -1.83589,-0.14306c-1.6689,1.01723 -3.21859,2.13772 -4.64905,3.36149c-0.5244,0.46093 -1.02105,0.95367 -1.48995,1.47823c-0.4689,0.52456 -0.87425,1.10471 -1.21603,1.74043c-0.34163,0.63573 -0.52041,1.32711 -0.53636,2.07417c0.03174,0.44498 0.19864,0.81053 0.50072,1.09665c0.30191,0.28613 0.62376,0.5126 0.96555,0.67943c0.34163,0.16699 0.68732,0.31404 1.03708,0.44115c0.3496,0.12711 0.70718,0.24633 1.07273,0.35766c1.1126,0.30191 2.16165,0.50853 3.14714,0.61986l-2.43182,4.14833c-1.35104,-0.33381 -2.70997,-0.79474 -4.0768,-1.38278c-0.65168,-0.30208 -1.2835,-0.6398 -1.89546,-1.01316c-0.61196,-0.37353 -1.16029,-0.81858 -1.64498,-1.33517c-0.48485,-0.51659 -0.78286,-1.13254 -0.89402,-1.84785c-0.15901,-1.39856 0.04761,-2.73365 0.61986,-4.00527c0.57225,-1.27145 1.33118,-2.41978 2.2768,-3.44498c0.94578,-1.0252 2.14977,-2.07026 3.61197,-3.13517c-2.2252,0.06364 -4.23581,0.21858 -6.03183,0.46483c-1.79602,0.24641 -3.5205,0.54442 -5.17345,0.89402zM160.21515,176.19736l-0.04761,-4.19618l16.30745,-0.14306c-0.06364,-0.23828 -0.09546,-0.48461 -0.09546,-0.739c0,-0.84243 0.30199,-1.54578 0.90598,-2.11005c0.60399,-0.56411 1.3272,-0.85415 2.16962,-0.8701c0.82648,0.01595 1.54171,0.30598 2.1457,0.8701c0.60399,0.56428 0.91396,1.26763 0.92991,2.11005c-0.01595,0.84243 -0.32592,1.54968 -0.92991,2.12177c-0.60399,0.57225 -1.31922,0.85838 -2.1457,0.85838c-0.5563,-0.01595 -1.07289,-0.14306 -1.54977,-0.38134l0.14306,0.71507c-0.27018,2.00272 -0.69131,3.95775 -1.2634,5.86509c-0.57225,1.90718 -1.23988,3.7827 -2.00288,5.62657c-0.76284,1.8437 -1.59729,3.64769 -2.50335,5.41197l-4.339,-1.33517c1.3193,-2.12983 2.40806,-4.37489 3.26628,-6.73518c0.85821,-2.36029 1.50989,-4.78015 1.95503,-7.25958zM190.25516,190.21604h-4.19594l-0.59618,-18.35794l3.8146,0.23852l11.82539,-0.52464l1.95503,2.05049l-0.8823,13.56558l-11.9682,0.69139zM287.55129,173.38396h-3.90981l2.95622,0.59618c-0.76284,1.93908 -1.18405,3.00399 -1.26364,3.19474h2.50335v3.19474h-12.63567v-3.19474h2.52704c-0.07943,-1.01723 -0.32576,-2.09012 -0.739,-3.21867l2.78948,-0.57225h-4.12465v-3.05168h4.24379v-1.9311h3.45694v1.9311h4.19594zM231.14305,181.13254l-0.04785,-3.88613l16.78424,-0.11938l0.40551,2.31269c-0.27034,1.4622 -0.67568,2.88868 -1.21603,4.27943c-0.54035,1.39075 -1.15622,2.74578 -1.84761,4.06508c-0.69139,1.31914 -1.42648,2.60654 -2.20527,3.86221l-4.62537,-1.26364c2.09809,-2.84498 3.60806,-5.97609 4.52992,-9.39332zM279.73142,191.38423h-3.26628v-9.67969h10.41868v9.60816h-3.43302v-1.02512h-3.71939zM232.38276,174.31385l0.07153,-3.88613l14.18543,-0.28613l-0.09521,4.00527zM197.97982,183.27824l0.28613,-7.41461l-8.22538,0.40526l0.11938,7.367zM115.53683,179.05836l2.02632,3.05168c-1.57353,1.93908 -3.32983,3.89403 -5.26891,5.86484l-2.26484,-3.07561c1.57353,-1.54163 3.40934,-3.4886 5.50743,-5.84092zM283.30775,173.38396h-3.40934c0.47671,1.06491 0.7866,2.17752 0.92966,3.33781l-2.02632,0.45311h5.50719l-1.83565,-0.42919c0.39729,-1.20798 0.67544,-2.32855 0.83445,-3.36173zM117.51554,173.00261l-2.69402,2.93254c-0.7311,-0.96954 -2.11388,-2.20136 -4.14833,-3.69546l2.52704,-2.62249c2.11404,1.39856 3.55248,2.52704 4.31532,3.38541zM358.93206,185.20934c0.36555,-0.01595 0.65566,-0.17488 0.87034,-0.47679c0.21451,-0.30208 0.34561,-0.62791 0.3933,-0.97751c0.19075,-1.14434 0.26228,-2.29665 0.21459,-3.45694c-0.1748,-0.22265 -0.40526,-0.38158 -0.69139,-0.47679c-0.82648,-0.2067 -1.502,-0.00407 -2.02656,0.60789c-0.52456,0.61196 -0.763,1.30734 -0.71531,2.08613c0,0.33365 0.01595,0.65949 0.04785,0.97751c0.03174,0.31786 0.11914,0.62376 0.2622,0.9177c0.14306,0.2941 0.36954,0.50471 0.67943,0.63182c0.30989,0.12728 0.63174,0.18294 0.96555,0.16699zM283.45081,187.23589v-2.47967h-3.71939v2.47967zM347.65524,179.84496l-1.90742,0.59618l-1.40646,-3.95766l1.76412,-0.64378zM228.44902,172.00117l-1.90742,0.57225l-1.43038,-3.86221l1.78804,-0.64378zM344.55596,180.8464l-1.83589,0.59593l-1.43038,-3.83828l1.71651,-0.64378zM177.54796,171.16673c0,0.54051 0.19067,0.98557 0.57201,1.33517c0.3815,0.34976 0.83453,0.52464 1.3591,0.52464c0.5244,0 0.96938,-0.17488 1.33493,-0.52464c0.36571,-0.3496 0.56444,-0.79466 0.59618,-1.33517c-0.03174,-0.50861 -0.23046,-0.94171 -0.59618,-1.29928c-0.36555,-0.35758 -0.81053,-0.54434 -1.33493,-0.56029c-0.52456,0.01595 -0.97361,0.20271 -1.34713,0.56029c-0.37353,0.35758 -0.56818,0.79067 -0.58397,1.29928zM149.03379,186.97345c0.06347,-0.76284 0.08732,-1.54163 0.07153,-2.33637c-0.33381,0 -0.65965,0.01196 -0.97751,0.03589c-0.31786,0.02376 -0.63581,0.09131 -0.95383,0.20263c-0.31786,0.11116 -0.56021,0.30981 -0.72703,0.59593c-0.16683,0.28613 -0.25024,0.59609 -0.25024,0.92991c-0.07959,0.47671 0.0118,0.92966 0.27416,1.35885c0.2622,0.42919 0.66348,0.62783 1.20383,0.59593c0.22249,-0.03174 0.44896,-0.09131 0.67943,-0.17871c0.23046,-0.0874 0.39338,-0.24633 0.48876,-0.47679c0.09538,-0.23046 0.15901,-0.47289 0.19091,-0.72728z"/></g></g></svg>