<svg version="1.1" xmlns="http://www.w3.org/2000/svg" xmlns:xlink="http://www.w3.org/1999/xlink" width="263.87769" height="24.60485" viewBox="0,0,263.87769,24.60485"><g transform="translate(-108.06115,-167.69758)"><g fill="#ffffff" fill-rule="evenodd" stroke="none" stroke-width="0" stroke-linecap="round" stroke-miterlimit="10"><path d="M197.18258,168.68665h21.90958v18.81853c0,0.93961 -0.10306,1.67319 -0.30918,2.20073c-0.20612,0.52754 -0.57295,0.93143 -1.10049,1.21166c-0.80777,0.4617 -2.35739,0.69256 -4.64886,0.69256c-0.16493,-1.30239 -0.56882,-2.51413 -1.21166,-3.63522c0.79123,0.04946 1.81331,0.07419 3.06624,0.07419c0.3957,-0.01654 0.59355,-0.21439 0.59355,-0.59355v-15.30688h-14.73814v19.43664h-3.56103zM316.76962,180.65533l-1.31067,-4.15432c1.68155,-0.61009 3.39601,-1.1459 5.1434,-1.60744l-1.65656,-5.41561l4.05531,-1.18684l1.75583,5.61337c0.97253,-0.21439 1.95342,-0.39578 2.94267,-0.54417c0.04946,-0.01637 0.09892,-0.02456 0.14839,-0.02456l1.28585,-5.34142l4.12951,0.71712l-1.33523,4.27789c0.85723,-0.03292 1.70628,-0.00405 2.54714,0.0866c0.84069,0.09065 1.66906,0.29264 2.4851,0.60595c0.81604,0.31315 1.47956,0.82423 1.99056,1.53325c0.51117,0.70885 0.78321,1.50835 0.81613,2.3985c0,1.00562 -0.29264,1.90413 -0.87791,2.69552c-0.58528,0.79123 -1.2612,1.47534 -2.02778,2.05235c-0.76658,0.577 -1.57022,1.10454 -2.4109,1.58262c-0.84069,0.47808 -1.70619,0.89851 -2.59651,1.26129l-2.02778,-3.43746c0.89032,-0.44499 1.77228,-0.93126 2.64589,-1.4588c0.24731,-0.14839 0.49876,-0.30918 0.75434,-0.48238c0.25558,-0.17303 0.50289,-0.3502 0.74193,-0.53151c0.23904,-0.18131 0.46981,-0.37915 0.6923,-0.59355c0.2225,-0.21422 0.36675,-0.47799 0.43275,-0.79131c-0.01654,-0.31315 -0.15666,-0.55632 -0.42034,-0.72953c-0.26385,-0.17303 -0.54408,-0.28842 -0.84069,-0.34615c-0.29677,-0.05773 -0.60182,-0.09479 -0.91514,-0.11116c-1.78047,-0.03309 -3.55267,0.09876 -5.3166,0.39553c-0.59338,0.08238 -1.22803,0.20604 -1.90396,0.37097l3.90693,12.85875l-4.27789,0.98908l-3.70942,-12.58679c-1.64846,0.577 -3.264,1.21174 -4.84662,1.90421zM174.40775,171.35736l3.53621,-2.94267c1.17038,1.81339 2.35731,3.60205 3.56078,5.36598c0.95616,1.33548 2.0607,2.53895 3.31363,3.61041c1.92886,-1.23639 3.92364,-2.36566 5.98434,-3.38783l2.94267,3.932c-1.69809,0.62647 -3.37137,1.31885 -5.01983,2.07716c-1.64863,0.75831 -3.21479,1.65673 -4.69849,2.69527c-0.31315,0.24731 -0.61811,0.50289 -0.91488,0.76675c-0.29677,0.26369 -0.56468,0.55624 -0.80372,0.87766c-0.23904,0.32159 -0.35029,0.68842 -0.33374,1.10049c0.04946,0.28023 0.18544,0.50281 0.40794,0.66774c0.2225,0.16476 0.46567,0.28428 0.72953,0.35856c0.26369,0.07411 0.53564,0.13589 0.81587,0.18536c2.53878,0.36278 4.97045,-0.0081 7.29501,-1.11265l0.39553,4.4511c-2.53878,0.60992 -5.10229,0.84069 -7.69053,0.6923c-0.80777,-0.04946 -1.60313,-0.15657 -2.38609,-0.32134c-0.78312,-0.16493 -1.53738,-0.4287 -2.26277,-0.79131c-0.72539,-0.36278 -1.30653,-0.88618 -1.74342,-1.57022c-0.43689,-0.6842 -0.63879,-1.43846 -0.6057,-2.26277c0.03292,-0.65938 0.21009,-1.27344 0.53151,-1.84217c0.32159,-0.56873 0.69669,-1.09214 1.12531,-1.57022c0.42862,-0.47825 0.8861,-0.93168 1.37245,-1.3603c0.48618,-0.42862 0.99304,-0.84896 1.52058,-1.26103c-0.9067,-0.85723 -1.78039,-1.75574 -2.62108,-2.69552c-1.58262,-1.79685 -3.06632,-3.68443 -4.4511,-5.66275zM255.69025,177.86105l-1.18709,-9.07539l4.3769,-0.32159l0.39578,4.5501l7.27019,-0.6923l0.14839,3.73398l-7.04761,0.39553c0.13184,1.50024 0.23895,2.98394 0.32134,4.4511c2.53878,0.65955 4.98691,1.56633 7.34438,2.72034l-1.40942,3.78336c-1.89594,-0.93961 -3.84126,-1.77212 -5.83595,-2.49751c0,1.05508 -0.04119,1.97824 -0.12357,2.76946c-0.19785,1.22001 -0.77072,2.18444 -1.7186,2.89329c-0.94805,0.70885 -2.00727,1.07981 -3.17765,1.1129c-0.85723,0.06584 -1.71041,0.00397 -2.55954,-0.18561c-0.84896,-0.18958 -1.61554,-0.55227 -2.29974,-1.08808c-0.68403,-0.53581 -1.19503,-1.20347 -1.53299,-2.00297c-0.33796,-0.7995 -0.50695,-1.63614 -0.50695,-2.50991c0,-0.9067 0.26782,-1.71447 0.80347,-2.42331c0.53581,-0.70902 1.19115,-1.27783 1.966,-1.70645c0.77485,-0.42862 1.58676,-0.7459 2.43572,-0.95185c0.84913,-0.20612 1.7105,-0.32564 2.58411,-0.35856c-0.08238,-0.93978 -0.16476,-1.80529 -0.24714,-2.59651zM156.45473,174.22583l-0.07419,-3.58559l5.51462,-0.27196c-0.11547,-0.59355 -0.23912,-1.20355 -0.37097,-1.83002l4.74787,-0.12357c0.13184,0.577 0.23077,1.16228 0.29677,1.75583l3.93174,-0.1732l0.02482,3.58559l-3.5114,0.1732c0.06584,0.74176 0.13995,1.50007 0.22233,2.27493l3.61041,-0.17295l0.02482,3.58559l-3.36301,0.17295c0.09892,1.84648 0.14011,3.67641 0.12357,5.4898l-6.10791,-0.46972l-0.09901,-2.47294h1.70619v-2.37393l-6.35505,0.29677l-0.12357,-3.63522l6.2563,-0.24714c0,-0.16493 -0.00827,-0.31332 -0.02482,-0.44516c-0.06601,-0.52754 -0.15666,-1.12928 -0.27196,-1.8052zM225.39783,170.64024l5.26722,0.29677c-0.3957,1.61554 -0.76666,3.32182 -1.1129,5.11884c-0.34624,1.79685 -0.60173,3.60205 -0.7665,5.41561c-0.06601,0.6263 0.02465,1.23622 0.27196,1.82977c0.24731,0.59355 0.64706,1.05103 1.19925,1.37245c0.55236,0.32142 1.1335,0.4904 1.74342,0.50695c0.60992,0.01654 1.21166,-0.06592 1.8052,-0.2474c0.82431,-0.31315 1.59917,-0.6923 2.32456,-1.13746c0.72539,-0.44499 1.44251,-0.91066 2.15135,-1.39701c0.70885,-0.48635 1.40123,-0.98916 2.07716,-1.50843c0.67593,-0.51944 1.27766,-0.99347 1.8052,-1.42208l2.27493,4.67368c-1.00562,0.65955 -2.07303,1.31489 -3.20222,1.966c-1.12936,0.65128 -2.27509,1.25302 -3.4372,1.8052c-1.16228,0.55219 -2.36161,0.97667 -3.598,1.27344c-1.10454,0.23077 -2.20504,0.32969 -3.30148,0.29677c-1.09627,-0.03292 -2.16368,-0.23895 -3.20222,-0.61811c-0.74193,-0.29677 -1.39313,-0.72953 -1.95359,-1.29826c-0.56046,-0.56873 -0.96021,-1.23234 -1.19925,-1.99081c-0.23904,-0.75831 -0.35037,-1.54962 -0.334,-2.37393c0.03309,-4.25325 0.42879,-8.44057 1.18709,-12.56198zM109.69315,177.26751l-0.54392,-3.70916l7.61634,-1.08808c-0.34624,-1.12109 -0.70893,-2.25036 -1.08808,-3.38783l4.94563,-0.61836c0.24731,1.13763 0.50289,2.26691 0.76675,3.38783l5.24241,-0.71712l0.46972,3.6846l-4.92082,0.71712c0.06584,0.34624 0.14003,0.67593 0.22258,0.98908c0.49445,2.24218 0.83242,4.49245 1.01389,6.75084l-6.35531,0.02482l-0.39578,-2.47294l1.73101,-0.19776c-0.09892,-1.50007 -0.31323,-3.00023 -0.64292,-4.50047zM131.034,181.57022l-0.49454,-4.30271c1.96178,-0.64301 3.96474,-1.1335 6.0089,-1.47146c2.04416,-0.33796 4.10486,-0.48221 6.18211,-0.43275c0.9727,0 1.92067,0.21026 2.84391,0.63077c0.92307,0.42034 1.64424,1.06327 2.16351,1.92877c0.51944,0.8655 0.80389,1.80107 0.85335,2.80669c0.04946,1.00562 -0.06601,1.97824 -0.3464,2.91785c-0.41207,1.15401 -1.00554,2.2009 -1.78039,3.14068c-0.77485,0.93961 -1.63622,1.78857 -2.58411,2.54688c-0.94789,0.75831 -1.9411,1.41778 -2.97964,1.97841l-3.6846,-2.54714c0.59338,-0.36261 1.17443,-0.73763 1.74316,-1.12506c0.5689,-0.38743 1.12531,-0.79131 1.66922,-1.21166c0.54408,-0.42051 1.06344,-0.87386 1.55806,-1.36004c0.49445,-0.48635 0.89834,-1.04276 1.21166,-1.66922c0.18131,-0.4617 0.28428,-0.93978 0.30893,-1.43424c0.02482,-0.49462 -0.07402,-0.96865 -0.29652,-1.42208c-0.22266,-0.45326 -0.56063,-0.79114 -1.01389,-1.01364c-0.45343,-0.22266 -0.91919,-0.31754 -1.39727,-0.28462c-1.15401,0.08255 -2.28742,0.24748 -3.40023,0.49479c-1.11265,0.24714 -2.21719,0.52324 -3.31363,0.82828c-1.09627,0.30505 -2.18014,0.63887 -3.25159,1.00148zM270.87356,178.70174l0.6923,4.30271c0.59355,-0.31315 1.19942,-0.60579 1.81761,-0.87791c0.61819,-0.27196 1.2488,-0.53978 1.8918,-0.80347c0.64284,-0.26385 1.27749,-0.51944 1.90396,-0.76675c0.62647,-0.24731 1.29412,-0.42043 2.00297,-0.51935c0.42862,-0.03292 0.8655,0.02482 1.31067,0.1732c0.44516,0.14839 0.77899,0.42456 1.00148,0.82853c0.2225,0.4038 0.30082,0.82828 0.23499,1.27344c-0.11547,0.82431 -0.35451,1.59503 -0.71712,2.31215c-0.36278,0.71712 -0.75848,1.41769 -1.18709,2.10172c-0.42862,0.6842 -0.88196,1.3478 -1.36004,1.99081c-0.47808,0.64284 -0.98089,1.27749 -1.50843,1.90396l4.50073,1.13772c0.85723,-0.84086 1.64027,-1.73937 2.34912,-2.69552c0.70885,-0.95616 1.3229,-1.98237 1.84217,-3.07864c0.51944,-1.09627 0.83681,-2.25441 0.95211,-3.47443c0.06601,-0.85723 0.02068,-1.72687 -0.13598,-2.60892c-0.15666,-0.88188 -0.52349,-1.67319 -1.10049,-2.37393c-0.577,-0.70057 -1.29826,-1.18279 -2.16376,-1.44664c-0.8655,-0.26369 -1.72687,-0.37907 -2.58411,-0.34615c-1.15401,0.04946 -2.28328,0.22258 -3.38783,0.51935c-1.10454,0.29677 -2.18841,0.6512 -3.25159,1.06327c-1.06335,0.41224 -2.09784,0.87386 -3.10346,1.38486zM357.49748,192.30242l-4.57492,-0.19776l2.17617,-24.40709l4.47591,0.19776zM292.78288,170.56605l4.03075,0.27196c-0.36261,2.17617 -0.61811,4.36053 -0.7665,6.55307c-0.14839,2.19271 -0.1072,4.37707 0.12357,6.55307l1.8052,-0.91488l1.26103,3.5114l-6.15729,3.28882c-0.52754,-2.07708 -0.86964,-4.19543 -1.0263,-6.35505c-0.15649,-2.15963 -0.17708,-4.31925 -0.06179,-6.47888c0.11547,-2.15963 0.37924,-4.30279 0.79131,-6.4295zM343.84716,170.54123l4.64911,0.39578c-0.577,2.9674 -0.70893,5.94307 -0.39578,8.92701l2.12679,-2.44813l1.8052,3.46202l-4.45135,5.04464l-3.04142,-0.79131c-0.37915,-1.17055 -0.6306,-2.36575 -0.75434,-3.58559c-0.12357,-1.22001 -0.19776,-2.44002 -0.22258,-3.66004c-0.02465,-1.21984 -0.01224,-2.44391 0.03722,-3.67219c0.04946,-1.22812 0.13184,-2.45218 0.24714,-3.67219zM213.35496,178.034v8.80344h-7.07217v1.58262h-3.36326v-10.38606zM300.54761,176.47619l-0.29677,-4.32752c1.13763,-0.23077 2.29164,-0.43267 3.46202,-0.6057c1.17055,-0.1732 2.34515,-0.28453 3.52381,-0.334c1.17882,-0.04946 2.3617,0.033 3.54862,0.2474l0.44516,3.3382l-4.7975,4.25333l-1.92877,-1.75557l1.78064,-1.75583c-1.96195,0.04946 -3.87435,0.36269 -5.7372,0.9397zM300.20146,187.72776l0.19776,-4.22877c1.7641,0.56063 3.5693,0.83267 5.41561,0.81613c1.25293,-0.03292 2.49759,-0.17303 3.73398,-0.42034c1.23639,-0.24731 2.45632,-0.53581 3.65978,-0.8655l0.14839,4.52529c-2.5717,0.52754 -5.16821,0.82431 -7.78954,0.89032c-1.82977,-0.01654 -3.61842,-0.25558 -5.36598,-0.71712zM201.78206,173.45934h12.56223v3.06624h-12.56223zM284.86977,169.65116l-10.95479,-1.06327l-0.66749,4.30271l11.07836,0.7665zM108.06115,184.73546l3.14043,-2.42331c1.03871,1.15401 2.12679,2.25855 3.26425,3.31363c1.36823,1.18693 2.85193,2.20082 4.4511,3.04167c-1.13746,1.088 -2.10189,2.2832 -2.89329,3.58559c-1.64846,-1.10454 -3.18981,-2.31628 -4.62404,-3.63522c-1.26947,-1.17038 -2.38229,-2.4645 -3.33845,-3.88236zM152.86913,185.03223l2.94267,-2.37393c1.05508,0.98908 2.15144,1.9205 3.28907,2.79428c1.40115,1.00562 2.90958,1.82993 4.52529,2.47294c-0.47808,0.54392 -0.94383,1.10032 -1.39727,1.66922c-0.45343,0.56873 -0.85318,1.16633 -1.19925,1.7928c-1.63209,-0.89032 -3.18998,-1.88775 -4.67368,-2.9923c-1.28602,-0.98908 -2.4483,-2.11008 -3.48683,-3.36301zM371.93885,188.29649l-3.26425,2.81884c-1.58262,-1.94523 -3.37128,-3.79163 -5.36598,-5.53918l3.21462,-2.76946c0.85723,0.69247 1.8258,1.59503 2.9057,2.70768c1.07973,1.11282 1.91637,2.04019 2.50991,2.78212zM256.15997,186.68905c0.04946,-0.92324 0.06601,-1.85467 0.04963,-2.79428h-0.09901c-0.42862,0 -0.84077,0.01232 -1.23647,0.03697c-0.3957,0.02482 -0.78726,0.09901 -1.17469,0.22258c-0.38726,0.12374 -0.69635,0.35864 -0.92729,0.70471c-0.23077,0.34624 -0.33788,0.7172 -0.32134,1.1129c-0.08238,0.64301 0.0536,1.21174 0.40794,1.70619c0.35451,0.49462 0.86973,0.72547 1.54565,0.69256c0.26369,-0.04946 0.54805,-0.11952 0.8531,-0.21017c0.30488,-0.09082 0.52332,-0.28048 0.65533,-0.56898c0.13184,-0.2885 0.21422,-0.58933 0.24714,-0.90247zM236.62458,173.58291l-2.10198,0.51935l-1.18684,-4.72305l2.07716,-0.44516zM240.48213,172.86579l-2.20073,0.42034l-1.08808,-4.59948l2.07716,-0.46972zM209.96713,183.82058v-2.79428h-3.68435v2.79428z"/></g></g></svg>