<svg version="1.1" xmlns="http://www.w3.org/2000/svg" xmlns:xlink="http://www.w3.org/1999/xlink" width="311.30713" height="26.06197" viewBox="0,0,311.30713,26.06197"><g transform="translate(-84.34643,-166.96902)"><g fill="#ffffff" fill-rule="evenodd" stroke="none" stroke-width="0" stroke-linecap="round" stroke-miterlimit="10"><path d="M351.33799,180.26114l-0.23505,-3.39476l6.78952,-0.2872l-0.26099,-2.37647l-7.70379,0.18264l-0.18291,-3.49932l7.54709,-0.36555l-0.23505,-2.27191l4.33497,-0.2872l0.18291,2.35026l7.10292,-0.33961l0.13076,3.89107l-6.94649,0.23505l0.18291,2.35026l5.87552,-0.26099l0.18291,3.42097l-5.79743,0.20885c0.0697,0.76604 0.13932,1.64519 0.20885,2.63746c2.43735,0.50487 4.88343,1.25353 7.33824,2.24597l-1.95851,4.28256c-1.81072,-1.2012 -3.57785,-2.10647 -5.30139,-2.71581c-0.01729,0.94003 -0.06079,1.7583 -0.1305,2.45482c-0.20894,1.16644 -0.8139,2.08044 -1.81491,2.74201c-1.001,0.66157 -2.06734,1.00974 -3.19902,1.0445c-0.83556,0.05223 -1.66685,0 -2.49386,-0.1567c-0.82701,-0.1567 -1.60178,-0.46137 -2.32432,-0.914c-0.72236,-0.45263 -1.28811,-1.0576 -1.69725,-1.81491c-0.40914,-0.7573 -0.60497,-1.56247 -0.5875,-2.41551c-0.0697,-1.32314 0.38293,-2.36336 1.3579,-3.12067c0.9748,-0.7573 2.05415,-1.27527 3.23806,-1.55392c1.18391,-0.27846 2.35908,-0.45255 3.52552,-0.52225c-0.05223,-0.74857 -0.12194,-1.42752 -0.20911,-2.03686zM303.26155,175.45606l-0.02594,-7.49468l4.17827,-0.23505l-0.07835,7.57303c0.06953,-0.03476 0.14788,-0.087 0.23505,-0.1567c1.06197,-0.69633 2.21531,-1.2447 3.46001,-1.6451c1.24488,-0.4004 2.51142,-0.47002 3.79962,-0.20885c1.28838,0.26117 2.36773,0.914 3.23806,1.95851c0.85321,0.97497 1.46692,2.08044 1.84111,3.31641c0.37437,1.23614 0.40923,2.48093 0.10456,3.73437c-0.30467,1.25344 -0.8139,2.40249 -1.52771,3.44717c-1.25344,1.81054 -2.7594,3.36 -4.51788,4.64837l-3.94322,-2.87278c0.97497,-0.67886 1.89335,-1.44044 2.75512,-2.28474c0.86177,-0.84448 1.55383,-1.80635 2.07617,-2.88561c0.76604,-1.77578 0.43525,-3.28174 -0.99236,-4.51788c-0.6441,-0.43516 -1.33179,-0.58313 -2.06306,-0.4439c-0.73128,0.13923 -1.39285,0.41778 -1.98471,0.83565c-0.59187,0.41787 -1.14023,0.87051 -1.6451,1.3579c-0.27864,0.26117 -0.57466,0.52234 -0.88807,0.78351l-0.07835,12.40405l-3.8908,0.10456l-0.02621,-8.17363c-1.34061,1.6016 -2.59405,3.26418 -3.76031,4.98772l-2.76822,-3.00327c1.84548,-2.59387 3.86495,-5.06598 6.05842,-7.41633l-5.95387,-3.00301l1.12285,-3.78678zM323.1346,179.47763l-0.20885,-4.43926l4.49141,-0.26126c0.1567,-1.25344 0.43525,-2.48076 0.83565,-3.68196l4.33497,0.1305c-0.17399,1.09673 -0.33061,2.18482 -0.46984,3.26426l4.80481,-0.2872c-0.03476,-1.79325 -0.23496,-3.5864 -0.6006,-5.37947l4.70052,-0.57466c0.38311,1.88024 0.60078,3.76049 0.65301,5.64073l4.30877,-0.26126l0.10456,4.36118l-4.67458,0.26126c-0.17399,1.2882 -0.48303,2.5329 -0.92711,3.7341c-0.4439,1.20138 -1.06625,2.30694 -1.86705,3.31668l-4.17827,-1.61916c0.9575,-1.56684 1.64519,-3.25553 2.06306,-5.06607l-4.96178,0.3134c-0.1567,1.2012 -0.22632,2.39367 -0.20885,3.5774c0.01729,1.14915 0.38721,2.12849 1.10975,2.93803c0.72254,0.80954 1.60169,1.3579 2.63746,1.6451c1.03594,0.2872 2.0849,0.40477 3.14687,0.35271c2.26317,-0.05223 4.5177,-0.32214 6.76358,-0.80972l-0.02621,4.85722c-2.80281,0.41787 -5.58832,0.57457 -8.35654,0.47011c-1.32296,-0.03476 -2.60252,-0.27846 -3.83866,-0.7311c-1.23614,-0.45263 -2.32423,-1.13595 -3.26426,-2.04996c-0.94021,-0.914 -1.62353,-1.99781 -2.04996,-3.25143c-0.42661,-1.25344 -0.61379,-2.53299 -0.56156,-3.83866c0,-1.0445 0.02612,-1.99336 0.07835,-2.84657zM138.97734,175.74352l-0.20885,-4.07398l6.94622,-0.36555l1.48867,-3.60387l4.07371,0.52252l-1.3317,2.8463l4.75266,-0.26126l-0.20885,4.07398l-6.50259,0.33934l-1.09665,2.32432c1.37537,0.27846 2.62016,0.86168 3.73437,1.74966c1.49714,-0.60934 3.04223,-0.96187 4.63527,-1.0576c1.59287,-0.09573 3.1901,-0.03922 4.79171,0.16954l-0.10429,3.63008c-2.21094,-0.27864 -4.38712,-0.19164 -6.52853,0.26099c0.74857,0.92274 1.49714,1.85413 2.2457,2.79416l-4.25662,1.72372c-0.53963,-0.88798 -1.14023,-1.7411 -1.8018,-2.55937c-0.38293,0.38311 -0.67022,0.82273 -0.86186,1.31886c-0.19147,0.49613 -0.20448,1.001 -0.03904,1.51461c0.16544,0.5136 0.48312,0.90099 0.95305,1.16216c0.52234,0.22623 1.06643,0.36118 1.63227,0.40486c0.56584,0.0435 1.13159,0.05651 1.69725,0.03904c0.56584,-0.01747 1.13604,-0.06097 1.71062,-0.1305l-0.10456,4.17827c-2.15871,0.4004 -4.30003,0.3307 -6.42397,-0.20911c-1.49731,-0.4004 -2.50268,-1.2882 -3.01611,-2.6634c-0.5136,-1.37537 -0.57021,-2.75512 -0.1698,-4.13923c0.4004,-1.38411 1.07062,-2.62453 2.01065,-3.72127c-1.72354,-0.76604 -3.52535,-1.07944 -5.40541,-0.94021l2.35026,-5.61452zM109.6249,171.06894v3.81272h-3.76031c-1.32314,3.63855 -3.15989,6.77223 -5.51023,9.40104c2.66375,1.98471 5.95413,3.40358 9.87114,4.25662c-0.45263,0.43516 -0.9575,1.04013 -1.51461,1.81491c-0.5571,0.77477 -0.99236,1.46683 -1.30576,2.07617c-4.16071,-1.07944 -7.61644,-2.75949 -10.36719,-5.04013c-2.82028,2.21112 -6.22386,3.91728 -10.21075,5.11848c-0.20894,-0.47011 -0.57012,-1.09682 -1.08354,-1.88015c-0.5136,-0.78351 -0.97934,-1.41896 -1.39721,-1.90636c3.95195,-0.99244 7.1901,-2.42005 9.71444,-4.28283c-2.08918,-2.48958 -3.8736,-5.67549 -5.35327,-9.55774h-3.76058v-3.81272h10.2629v-4.07371h4.02157v4.07371zM126.18128,181.30564h9.63609v3.70816h-9.81873v3.05542c0,1.02721 -0.14369,1.81936 -0.43106,2.37647c-0.2872,0.5571 -0.79634,0.98362 -1.52744,1.27955c-1.06215,0.41787 -2.91628,0.62681 -5.56238,0.62681c-0.26117,-1.28838 -0.80963,-2.62025 -1.64537,-3.99563c1.86295,0.10447 3.28182,0.13058 4.25662,0.07835c0.27864,0 0.47019,-0.03476 0.57466,-0.10429c0.10447,-0.0697 0.1567,-0.20029 0.1567,-0.39175v-2.92492h-9.63609v-3.70816h9.63609v-1.51461h1.25335c0.59204,-0.4004 1.20138,-0.91392 1.82801,-1.54054h-8.01693v-3.52552h11.28119l0.88807,-0.18291l2.48076,1.93257c-1.74101,2.03695 -3.52552,3.64728 -5.35353,4.83102zM372.54247,176.03072l-0.20885,-4.30903c4.09118,-0.34817 8.20857,-0.62672 12.35217,-0.83565c-0.08718,-0.87033 -0.17426,-1.74948 -0.26126,-2.63746l4.77887,-0.2872l0.05214,2.82037c2.08918,0 4.18709,0.01738 6.29374,0.05214l0.10429,4.30877c-2.14141,-0.06953 -4.27409,-0.11302 -6.39803,-0.1305c0,1.60178 -0.07835,3.20347 -0.23505,4.80508c0.33087,0.78333 0.55728,1.71472 0.67922,2.79416c0.087,1.18391 0.06953,2.35908 -0.05241,3.52552c-0.12176,1.16644 -0.30021,2.32414 -0.53535,3.47311c-0.23496,1.14897 -0.50915,2.28929 -0.82255,3.42097l-4.96178,-0.41796c0.53981,-1.32296 1.0273,-2.6896 1.46246,-4.09992c-0.60934,0.43534 -1.26217,0.72263 -1.95851,0.86186c-0.8008,0.22641 -1.57121,0.18728 -2.31122,-0.11739c-0.73983,-0.30467 -1.33607,-0.78342 -1.7887,-1.43626c-0.45263,-0.65301 -0.78342,-1.3538 -0.99236,-2.10237c-0.20894,-0.74857 -0.29602,-1.52325 -0.26126,-2.32405c-0.01729,-1.09691 0.20475,-2.15888 0.66612,-3.18591c0.46137,-1.02721 1.1577,-1.85422 2.089,-2.48102c0.93148,-0.62663 1.96296,-0.96606 3.09446,-1.01829c0.64428,-0.01747 1.23623,0.01729 1.77586,0.10429l-0.10456,-1.72345c-4.16071,0.20894 -8.31286,0.52234 -12.45646,0.94021zM167.46793,172.74025h5.98007v-0.78351h-9.03549v-3.21185h9.03549v-1.77586h4.12612v1.77586h9.47939v3.21185h-9.47939v0.78351h6.55474v10.94185h-16.66093zM231.05597,166.99523v4.59596h9.24434v13.89271h-4.09992v-1.25335h-5.14442v8.17363h-4.12612v-8.17363h-5.14442v1.38411h-3.89107v-14.02348h9.03549v-4.59596zM193.63419,169.65889l5.35353,0.54819c-0.5571,1.67131 -1.06197,3.34262 -1.51461,5.01392c-0.59187,2.26335 -1.1577,4.50923 -1.69751,6.73764c0.53981,-0.38311 1.14478,-0.63554 1.81491,-0.7573c0.67031,-0.12194 1.34498,-0.15679 2.02402,-0.10456c0.8878,0.1567 1.64073,0.55273 2.25881,1.1881c0.61807,0.63554 1.11857,1.34498 1.5015,2.12831c0.2437,0.50487 0.69197,0.92274 1.3448,1.25361c0.65301,0.3307 1.2406,0.4308 1.76276,0.3003c0.52234,-0.1305 1.00983,-0.32633 1.46246,-0.5875c0.62681,-0.38311 1.19265,-0.84448 1.69751,-1.38411c0.50487,-0.53963 0.97488,-1.11412 1.41005,-1.72345l4.83128,2.58531c-0.94021,1.23597 -2.02402,2.31969 -3.25143,3.25116c-1.22723,0.9313 -2.42406,1.65375 -3.5905,2.16735c-1.16644,0.5136 -2.53308,0.77914 -4.09992,0.79661c-0.94021,-0.05223 -1.78897,-0.33515 -2.54627,-0.84876c-0.7573,-0.5136 -1.43189,-1.11857 -2.02375,-1.81491c-0.59204,-0.69633 -1.37546,-1.84539 -2.35026,-3.44717c-0.94021,0.17417 -1.72363,0.75739 -2.35026,1.74966c-0.66157,1.06197 -1.08818,2.33288 -1.27982,3.81272l-4.28256,-1.07071c0.50487,-3.13368 1.001,-6.27609 1.4884,-9.42725c0.52234,-3.46438 1.20129,-6.92011 2.03686,-10.36719zM187.57576,184.4132v3.15998h-5.95387c2.95951,1.00974 5.08345,1.77578 6.37183,2.29812l-3.34262,2.55911c-2.33288,-1.11421 -4.85731,-2.13268 -7.5733,-3.05542l1.85422,-1.8018h-7.36418l2.53317,1.82801c-1.02721,0.59187 -2.29375,1.17072 -3.79962,1.73656c-1.50605,0.56584 -2.93803,1.00546 -4.29593,1.31886c-0.85304,-0.99244 -1.73219,-1.87169 -2.63746,-2.63772c2.43735,-0.46993 4.68314,-1.21849 6.73738,-2.2457h-6.50232v-3.15998zM131.6391,173.05365h-15.61617v3.65602h-3.83866v-7.31204h9.63609v-2.35026h4.17827v2.35026h9.68824v7.31204h-4.04777zM280.22906,167.04737h4.07371c1.46237,2.08918 3.17718,3.91282 5.14442,5.47093c1.96724,1.5581 4.0303,2.74629 6.18919,3.56457c-0.85304,0.87051 -1.70616,2.03695 -2.55937,3.49932c-1.30567,-0.69633 -2.57649,-1.47975 -3.81245,-2.35026v1.74966h-13.37046v-1.88015c-1.11421,0.8008 -2.43735,1.61898 -3.96942,2.45455c-0.60934,-1.1315 -1.41887,-2.18473 -2.42861,-3.15971c2.19365,-1.0445 4.27837,-2.44599 6.25417,-4.20448c1.97598,-1.7583 3.46892,-3.47311 4.47884,-5.14442zM277.77423,192.4566h-3.83893v-11.20311h17.44444v11.20311h-4.02157v-0.94021h-9.58395zM245.54929,170.20708l4.25662,0.28746c-0.38293,2.29794 -0.65275,4.6047 -0.80945,6.92028c-0.1567,2.31541 -0.1132,4.62208 0.1305,6.92002l1.90636,-0.96615l1.3317,3.70816l-6.50232,3.47338c-0.5571,-2.19365 -0.91837,-4.43079 -1.08381,-6.71144c-0.16544,-2.28064 -0.18719,-4.56129 -0.06525,-6.84193c0.12194,-2.28064 0.40049,-4.54391 0.83565,-6.78979zM253.74912,176.44841l-0.3134,-4.57002c1.20138,-0.2437 2.42005,-0.45691 3.65602,-0.63964c1.23614,-0.18291 2.47657,-0.30048 3.72127,-0.35271c1.24488,-0.05223 2.49404,0.03485 3.74747,0.26126l0.47011,3.52552l-5.06634,4.49141l-2.03686,-1.85395l1.88015,-1.85422c-2.07171,0.05223 -4.09118,0.38302 -6.05842,0.99236zM253.38358,188.33048l0.20885,-4.46547c1.86277,0.59187 3.76913,0.87906 5.71908,0.86159c1.32314,-0.03476 2.63755,-0.18273 3.94322,-0.4439c1.30567,-0.26117 2.59396,-0.56584 3.86487,-0.914l0.1567,4.77887c-2.71581,0.5571 -5.45782,0.87051 -8.22604,0.94021c-1.93248,-0.01747 -3.82137,-0.26991 -5.66667,-0.7573zM287.35819,188.12163v-3.47338h-9.58395v3.47338zM101.26836,174.88166h-8.19984c1.04468,2.54181 2.44617,4.77022 4.20448,6.68523c1.70607,-1.93248 3.03786,-4.16089 3.99536,-6.68523zM277.85258,175.58682h9.24434c-1.96724,-1.58431 -3.52535,-3.16862 -4.67431,-4.75293c-1.16644,1.63654 -2.68978,3.22086 -4.57002,4.75293zM231.05597,175.40391v5.01392h5.14442v-5.01392zM221.78543,175.40391v5.01392h5.14442v-5.01392zM171.2023,178.61603h8.95714v-0.80972h-8.95714zM171.2023,181.48854h8.95714v-0.80945h-8.95714zM171.2023,175.71732h8.95714v-0.78351h-8.95714zM383.56267,185.66681c0.4004,-0.01747 0.71817,-0.19155 0.95331,-0.52225c0.23496,-0.33087 0.37856,-0.68778 0.4308,-1.07071c0.20894,-1.25344 0.28729,-2.51561 0.23505,-3.78651c-0.19147,-0.2437 -0.4439,-0.41778 -0.7573,-0.52225c-0.90527,-0.22641 -1.64519,-0.00446 -2.21976,0.66585c-0.5744,0.67031 -0.83548,1.43198 -0.78324,2.28501c0,0.36564 0.01738,0.72254 0.05214,1.07071c0.03476,0.34817 0.1305,0.68323 0.2872,1.00519c0.1567,0.32214 0.40477,0.55282 0.7442,0.69206c0.33961,0.13941 0.69214,0.20038 1.0576,0.18291zM358.64976,187.83416c0.0697,-0.78333 0.09582,-1.58413 0.07835,-2.4024c-0.087,-0.01747 -0.16535,-0.02621 -0.23505,-0.02621c-0.50487,0.01747 -1.02275,0.04359 -1.55365,0.07835c-0.53107,0.03494 -1.03158,0.18728 -1.5015,0.457c-0.47011,0.26991 -0.70516,0.70079 -0.70516,1.29266c-0.087,0.62681 0.09145,1.14041 0.53535,1.54081c0.4439,0.4004 0.97052,0.54837 1.57985,0.4439c0.26117,-0.03476 0.53535,-0.08263 0.82255,-0.1436c0.2872,-0.06097 0.51788,-0.20894 0.69206,-0.4439c0.17417,-0.23496 0.26991,-0.5005 0.2872,-0.79661z"/></g></g></svg>