<svg version="1.1" xmlns="http://www.w3.org/2000/svg" xmlns:xlink="http://www.w3.org/1999/xlink" width="381.03887" height="24.54439" viewBox="0,0,381.03887,24.54439"><g transform="translate(-49.48056,-167.7278)"><g fill="#ffffff" fill-rule="evenodd" stroke="none" stroke-width="0" stroke-linecap="round" stroke-miterlimit="10"><path d="M239.49846,171.71656v3.47485h-11.91752c-0.04895,0.83211 -0.13865,1.76202 -0.26913,2.78974h9.51917c-0.0162,0.71784 -0.04878,1.2317 -0.09773,1.54159c-0.21216,3.32809 -0.46508,5.79559 -0.75876,7.40249c-0.29368,1.6069 -0.70156,2.69586 -1.2236,3.26686c-0.68509,0.75058 -1.68025,1.19929 -2.98545,1.34614c-0.94621,0.09773 -2.41446,0.11402 -4.40476,0.04887c-0.06515,-1.23989 -0.49741,-2.43083 -1.29677,-3.57282c1.14182,0.0979 2.55294,0.14685 4.23336,0.14685c0.55463,0 0.97068,-0.10608 1.24816,-0.31824c0.61978,-0.48931 1.06841,-2.63456 1.34589,-6.43574h-6.14231c-0.53843,2.26761 -1.43977,4.28239 -2.70405,6.04433c-1.26427,1.76193 -3.07108,3.24648 -5.42037,4.45362c-0.27731,-0.50568 -0.65662,-1.04811 -1.1379,-1.62729c-0.48129,-0.57918 -0.95848,-1.06448 -1.43158,-1.45589c0.92999,-0.44053 1.76202,-0.93811 2.49606,-1.49272c0.73421,-0.55479 1.35006,-1.1095 1.84756,-1.66413c0.49766,-0.55463 0.9341,-1.19495 1.3093,-1.92097c0.37521,-0.72603 0.66472,-1.39492 0.86852,-2.00668c0.20398,-0.61176 0.37529,-1.33361 0.51395,-2.16554c0.13865,-0.83211 0.23246,-1.54995 0.28141,-2.15351c0.04895,-0.60358 0.0979,-1.34589 0.14685,-2.22694h-6.92513v-3.47485h9.39689v-3.98879h3.79283v3.98879zM293.21233,175.65649l-0.0243,-6.8031l4.06221,-0.22026l-0.07342,8.24671l5.99521,-4.82073l3.25483,1.10132c-0.31006,1.7292 -0.60374,3.45438 -0.88106,5.17556c-0.27731,1.72118 -0.49758,3.43826 -0.66079,5.15124c-0.04895,0.32626 0,0.62804 0.14685,0.90536c0.14685,0.27731 0.39976,0.40778 0.75876,0.39141c0.35883,-0.0162 0.70957,-0.09364 1.0522,-0.23229c0.34263,-0.13865 0.67708,-0.28959 1.00334,-0.4528c1.07667,-0.571 2.13706,-1.17465 3.18117,-1.81097l0.80763,4.20906c-1.45205,0.96257 -3.01009,1.66413 -4.67414,2.10465c-1.02773,0.29368 -2.05955,0.2855 -3.09546,-0.02455c-1.03591,-0.30988 -1.85165,-0.90945 -2.44721,-1.79869c-0.59539,-0.88907 -0.81965,-1.88824 -0.67282,-2.99748c0.16305,-2.05563 0.39141,-4.12753 0.68509,-6.21573l-4.47819,3.91538l-0.09798,10.54707l-3.79283,0.09773l-0.02455,-7.46363c-1.28884,1.56615 -2.50426,3.18124 -3.64625,4.84529l-2.71633,-2.91204c1.9903,-2.33293 4.06221,-4.60874 6.21573,-6.8274l-6.11776,-3.3037l1.10107,-3.69511zM141.10024,171.93683v3.57282h-12.82287c-0.40778,1.14199 -0.92984,2.33293 -1.56615,3.57282h12.72489v12.50463h-3.86626v-1.24816h-8.29582v1.37044h-3.67055v-7.92847c-1.06047,1.27247 -2.21065,2.34914 -3.45054,3.23002c-0.63615,-1.01152 -1.4437,-1.99038 -2.42264,-2.93659c2.75709,-1.84346 4.95137,-4.69836 6.58284,-8.5647h-5.67723v-3.57282h6.94969c0.37521,-1.27247 0.69336,-2.62654 0.95447,-4.06221l3.8174,0.70966c-0.19578,0.92984 -0.48129,2.04735 -0.85649,3.35255zM388.99219,180.30582l-0.22026,-3.18117l6.36257,-0.26913l-0.24482,-2.22694l-7.21906,0.1714l-0.17115,-3.27914l7.07198,-0.34255l-0.22001,-2.12921l4.06196,-0.26913l0.1714,2.20238l6.65625,-0.31799l0.12228,3.64625l-6.50942,0.22001l0.1714,2.20263l5.50608,-0.24482l0.17115,3.20572l-5.43265,0.1957c0.06532,0.71784 0.13063,1.54167 0.19596,2.47151c2.28399,0.4731 4.57607,1.17465 6.87627,2.10465l-1.83528,4.01335c-1.69662,-1.12579 -3.35247,-1.97418 -4.96757,-2.54518c-0.01637,0.88106 -0.05722,1.64784 -0.12253,2.30036c-0.19562,1.09304 -0.76252,1.94955 -1.70071,2.56949c-0.93802,0.61994 -1.93726,0.94621 -2.99773,0.97878c-0.78299,0.04895 -1.56197,0 -2.33694,-0.14685c-0.77481,-0.14685 -1.50075,-0.43234 -2.17783,-0.85649c-0.67708,-0.42416 -1.20731,-0.99106 -1.5907,-1.70071c-0.3834,-0.70966 -0.5669,-1.46416 -0.55053,-2.26352c-0.06532,-1.23989 0.35883,-2.21466 1.27247,-2.92431c0.91363,-0.70966 1.92507,-1.19503 3.03432,-1.45614c1.10942,-0.26095 2.21065,-0.42408 3.3037,-0.48939c-0.04895,-0.70146 -0.11418,-1.3377 -0.1957,-1.9087zM170.31881,175.21596l-0.09798,-3.4994l4.64959,-0.22026c-0.0817,-0.71784 -0.17148,-1.44378 -0.26938,-2.17783l3.86651,-0.1714c0.04895,0.71784 0.10608,1.42749 0.1714,2.12896l9.66602,-0.53826v3.40142l-9.29891,0.58736c0.04895,0.60358 0.11418,1.16639 0.1957,1.68843c1.66405,-0.22836 3.31581,-0.0979 4.95529,0.39141c1.63965,0.48948 3.00191,1.4031 4.08677,2.74089c1.08486,1.33779 1.64358,2.87946 1.67616,4.62502c0.03275,2.38188 -0.62796,4.52721 -1.98212,6.43599l-4.82073,-1.98237c0.571,-0.61978 1.03591,-1.31715 1.39475,-2.09212c0.359,-0.77497 0.54661,-1.58661 0.56281,-2.43492c-0.0162,-0.92984 -0.25684,-1.78633 -0.72193,-2.56949c-0.46491,-0.78299 -1.12153,-1.36209 -1.96984,-1.7373l1.00334,3.84195l-10.57138,7.07198c-0.79953,-1.09304 -1.43176,-2.27989 -1.89667,-3.56054c-0.46491,-1.28065 -0.59137,-2.60615 -0.37939,-3.97652c0.21216,-1.37036 0.79953,-2.5572 1.7621,-3.56054c0.96241,-1.00334 2.07175,-1.74966 3.328,-2.23897c-0.0979,-0.79953 -0.20398,-1.60708 -0.31824,-2.42264zM54.44814,176.07246l-4.03766,-4.69844l4.03766,-2.03123l3.54827,5.11442l4.11133,-4.94302l4.42907,1.19904l-6.31346,6.8031c2.21866,-0.0817 4.43742,-0.07358 6.65625,0.0243l0.09773,4.33134c-1.59872,-0.14685 -3.20564,-0.22836 -4.82073,-0.24457c-0.58736,0.26095 -1.15018,0.57091 -1.68843,0.92991c-0.53843,0.35883 -1.0238,0.78708 -1.45614,1.28474c-0.43234,0.49749 -0.72193,1.0725 -0.86877,1.72502c-0.24473,1.30521 0.21208,2.00676 1.37044,2.10465c0.65252,0.06515 1.30512,0.02029 1.95781,-0.13456c0.65252,-0.15503 1.29285,-0.34263 1.92097,-0.56281c0.62796,-0.22035 1.23563,-0.47737 1.82299,-0.77105v3.96448c-2.02288,1.12562 -4.19268,1.67215 -6.50942,1.63957c-1.43552,-0.03275 -2.60599,-0.56707 -3.51143,-1.60298c-0.90544,-1.03591 -1.33369,-2.24724 -1.28474,-3.63397c0.06515,-1.01136 0.37922,-1.9249 0.9422,-2.74064c0.56281,-0.81574 1.2439,-1.51728 2.04326,-2.10465c-2.38188,0.24473 -4.7311,0.62813 -7.04767,1.15018l-0.36711,-4.23336c1.84346,-0.21216 3.7114,-0.42424 5.6038,-0.63623l2.86317,-3.4751zM313.67023,176.07246l-0.1957,-3.81764l6.50917,-0.34255l1.395,-3.37687l3.8174,0.48939l-1.24791,2.66721l4.45362,-0.24457l-0.1957,3.8174l-6.09344,0.31824l-1.02764,2.17783c1.28884,0.26111 2.45531,0.80763 3.4994,1.63957c1.40294,-0.571 2.85081,-0.90135 4.34362,-0.99106c1.49264,-0.08971 2.98938,-0.03667 4.49021,0.15912l-0.09773,3.40142c-2.07183,-0.26111 -4.11108,-0.1795 -6.11776,0.24482c0.70146,0.86451 1.40294,1.7373 2.1044,2.61834l-3.98879,1.61502c-0.50568,-0.83194 -1.06849,-1.6313 -1.68843,-2.39809c-0.35883,0.35883 -0.62804,0.77072 -0.80763,1.23563c-0.17942,0.46508 -0.19161,0.93819 -0.03659,1.4193c0.15503,0.48129 0.45272,0.8443 0.89308,1.08903c0.48948,0.21216 0.99933,0.33862 1.52956,0.37939c0.53023,0.04076 1.06039,0.05296 1.59045,0.03659c0.53023,-0.0162 1.06456,-0.05697 1.60298,-0.12228l-0.09798,3.91538c-2.02288,0.37521 -4.02946,0.30998 -6.01977,-0.1957c-1.4031,-0.37521 -2.34522,-1.20722 -2.82633,-2.49606c-0.48129,-1.28884 -0.53432,-2.58177 -0.15912,-3.87879c0.37521,-1.29685 1.00326,-2.45923 1.88413,-3.48712c-1.6151,-0.71784 -3.30353,-1.01144 -5.0653,-0.88081l2.20238,-5.26125zM195.84201,174.48176l-0.78308,-4.20906l12.72489,-1.61502l1.19904,2.71633l-5.21215,6.21548c1.17457,-0.63615 2.44294,-0.95013 3.80512,-0.94195c1.36234,0.00818 2.59813,0.42006 3.70739,1.23563c1.71299,1.37036 2.55319,3.09964 2.52062,5.18783c-0.03275,2.0882 -0.70163,3.93174 -2.00668,5.53063c-0.73421,0.79936 -1.57033,1.42741 -2.50835,1.88413c-0.93802,0.4569 -1.91279,0.79953 -2.92431,1.02789c-0.81574,0.13047 -1.63548,0.12228 -2.45923,-0.02455c-0.82392,-0.14685 -1.55396,-0.50167 -2.1901,-1.06448c-0.63631,-0.56281 -1.01971,-1.26838 -1.15018,-2.11669c-0.16321,-0.96257 0.02029,-1.83536 0.55053,-2.61834c0.53023,-0.78316 1.21542,-1.37862 2.05553,-1.78641c0.84012,-0.40795 1.74147,-0.57926 2.70405,-0.51395c1.22352,0.13047 2.40627,0.42416 3.54827,0.88106c0.13063,-0.55479 0.15102,-1.12579 0.06114,-1.71299c-0.08971,-0.58736 -0.34255,-1.09723 -0.75851,-1.52956c-0.41597,-0.43234 -0.93393,-0.68109 -1.55387,-0.74624c-1.02773,-0.0817 -2.00249,0.08554 -2.92431,0.50167c-0.92181,0.41597 -1.76202,0.95021 -2.52062,1.60273c-0.75861,0.65252 -1.46007,1.35808 -2.1044,2.11669c-0.64433,0.75861 -1.23571,1.56214 -1.77414,2.41062l-3.20572,-2.81431l7.83074,-10.62048zM247.40262,181.89652l6.11776,-6.92538l2.88747,3.20572l-10.42453,10.74278c-1.4193,-1.33762 -2.44711,-2.93634 -3.08344,-4.79617c-0.63631,-1.85983 -0.71383,-3.74413 -0.23254,-5.65291c0.48129,-1.90878 1.43158,-3.54016 2.85089,-4.89415c1.4193,-1.35415 3.08335,-2.28407 4.99213,-2.78974c1.58252,-0.42416 3.20989,-0.53424 4.88213,-0.33027c1.67207,0.20381 3.17698,0.82376 4.51477,1.85983c1.33779,1.03591 2.33293,2.32466 2.98545,3.86626c0.65252,1.54175 1.00326,3.13648 1.0522,4.78415c0.01637,1.48462 -0.15085,2.94477 -0.50167,4.38046c-0.35065,1.43552 -0.91755,2.76502 -1.70071,3.98854l-4.82073,-2.03098c0.60358,-0.96257 1.08077,-1.99848 1.43158,-3.10774c0.35081,-1.10942 0.54252,-2.24331 0.57509,-3.40167c-0.04895,-1.01136 -0.25293,-1.98604 -0.61193,-2.92406c-0.35883,-0.93819 -0.88089,-1.77429 -1.56615,-2.50835c-0.53826,-0.571 -1.17858,-0.97886 -1.92097,-1.2236c-0.74223,-0.24473 -1.50083,-0.29777 -2.2758,-0.15912c-0.77481,0.13865 -1.48855,0.38749 -2.14124,0.74649c-0.88089,0.45673 -1.68025,1.04402 -2.39809,1.76185c-0.71784,0.71784 -1.1379,1.57843 -1.26018,2.58177c-0.12245,1.00334 0.09372,1.94544 0.64852,2.82633zM408.86273,176.34159l-0.19596,-4.03766c3.83393,-0.32626 7.69226,-0.58728 11.57497,-0.78308c-0.08152,-0.81574 -0.16313,-1.63965 -0.24482,-2.47176l4.47819,-0.26913l0.04912,2.64291c1.95756,0 3.92339,0.01629 5.89749,0.04887l0.09773,4.03791c-2.00651,-0.06532 -4.00491,-0.10616 -5.99521,-0.12253c0,1.501 -0.07342,3.00191 -0.22026,4.50274c0.30988,0.73421 0.52196,1.607 0.63623,2.61834c0.08152,1.10942 0.06523,2.21065 -0.04887,3.3037c-0.11427,1.09304 -0.28149,2.17791 -0.50167,3.25458c-0.22035,1.07684 -0.47737,2.14541 -0.77105,3.20572l-4.64934,-0.39141c0.50568,-1.23989 0.96241,-2.52054 1.37019,-3.84195c-0.57083,0.40778 -1.18259,0.67691 -1.83528,0.80738c-0.75041,0.21216 -1.47226,0.17549 -2.16554,-0.11001c-0.69345,-0.2855 -1.25225,-0.73413 -1.67641,-1.34589c-0.42416,-0.61176 -0.73413,-1.26846 -0.92991,-1.97009c-0.19578,-0.70146 -0.27731,-1.42741 -0.24457,-2.17783c-0.01637,-1.02773 0.19161,-2.02288 0.62395,-2.98545c0.43234,-0.96257 1.08486,-1.73747 1.95756,-2.32466c0.87286,-0.58736 1.83954,-0.90553 2.90001,-0.95447c0.60358,-0.01637 1.15819,0.01629 1.66387,0.09798l-0.09773,-1.61527c-3.89908,0.19578 -7.78998,0.48948 -11.67269,0.88106zM96.07361,176.14588l-0.3428,-4.20906c3.81756,-0.45673 7.72483,-0.84831 11.7218,-1.17474c2.59388,-0.1141 5.1388,-0.1141 7.63478,0l0.12253,4.30704c-0.53843,-0.04895 -1.16655,-0.0979 -1.88438,-0.14685c-1.71299,1.04409 -3.30362,2.1942 -4.77187,3.45029c-0.53826,0.47326 -1.04803,0.97903 -1.52931,1.51728c-0.48129,0.53843 -0.89734,1.13389 -1.24816,1.78641c-0.35065,0.65252 -0.53417,1.36217 -0.55053,2.12896c0.03258,0.4569 0.2039,0.83211 0.51395,1.12562c0.30988,0.29368 0.64024,0.52622 0.99106,0.69762c0.35065,0.17123 0.70547,0.32209 1.06448,0.45255c0.35883,0.13047 0.72586,0.25283 1.10107,0.36711c1.14199,0.31006 2.21875,0.52213 3.23027,0.63623l-2.49606,4.25792c-1.38673,-0.34246 -2.78156,-0.81556 -4.18449,-1.4193c-0.66889,-0.30988 -1.3174,-0.65653 -1.94554,-1.03992c-0.62813,-0.3834 -1.19094,-0.84021 -1.68843,-1.37044c-0.49766,-0.53023 -0.80354,-1.16238 -0.91763,-1.89642c-0.16321,-1.43567 0.04887,-2.80612 0.63623,-4.11133c0.5872,-1.30504 1.36618,-2.4837 2.33694,-3.53599c0.97076,-1.05229 2.20655,-2.12495 3.70739,-3.21799c-2.28399,0.06532 -4.34771,0.22444 -6.19117,0.47737c-1.84346,0.25275 -3.6135,0.55864 -5.31012,0.91763zM345.09118,184.31916v-15.04981h13.99735v15.04981h-3.71966v-1.07676h-1.5907v8.44242h-3.45029v-8.44242h-1.68843v1.07676zM73.41331,170.95804l5.2124,0.29368c-0.39158,1.59872 -0.75869,3.28715 -1.10132,5.0653c-0.34263,1.77831 -0.59547,3.56472 -0.75851,5.35923c-0.06532,0.61994 0.02439,1.2236 0.26913,1.81097c0.24473,0.5872 0.64032,1.03992 1.18676,1.35816c0.54661,0.31808 1.1217,0.4853 1.72527,0.50167c0.60358,0.0162 1.19904,-0.0654 1.78641,-0.24482c0.81574,-0.31006 1.58252,-0.68526 2.30036,-1.12562c0.71784,-0.44053 1.42749,-0.90143 2.12896,-1.38273c0.70146,-0.48129 1.38665,-0.97886 2.05553,-1.49272c0.66889,-0.51386 1.26436,-0.98287 1.78641,-1.40703l2.25124,4.62502c-0.99515,0.65252 -2.05144,1.30103 -3.16888,1.94554c-1.1176,0.64433 -2.25149,1.2398 -3.40167,1.78641c-1.15001,0.54644 -2.33687,0.9665 -3.56054,1.26018c-1.09304,0.22836 -2.182,0.32626 -3.26686,0.29368c-1.08486,-0.03275 -2.14115,-0.23672 -3.16888,-0.61193c-0.73421,-0.29368 -1.37862,-0.72193 -1.93325,-1.28474c-0.55463,-0.56281 -0.95021,-1.21943 -1.18676,-1.96984c-0.23655,-0.75041 -0.34672,-1.53349 -0.33052,-2.34923c0.03275,-4.20897 0.42433,-8.3527 1.17474,-12.43121zM365.05945,170.95804l5.2124,0.29368c-0.39158,1.59872 -0.75869,3.28715 -1.10132,5.0653c-0.34263,1.77831 -0.59547,3.56472 -0.75851,5.35923c-0.06532,0.61994 0.02439,1.2236 0.26913,1.81097c0.24473,0.5872 0.64032,1.03992 1.18676,1.35816c0.54661,0.31808 1.1217,0.4853 1.72527,0.50167c0.60374,0.0162 1.19921,-0.0654 1.78641,-0.24482c0.81574,-0.31006 1.58252,-0.68526 2.30036,-1.12562c0.71784,-0.44053 1.42749,-0.90143 2.12896,-1.38273c0.70146,-0.48129 1.38665,-0.97886 2.05553,-1.49272c0.66889,-0.51386 1.26436,-0.98287 1.78641,-1.40703l2.25124,4.62502c-0.99515,0.65252 -2.05144,1.30103 -3.16888,1.94554c-1.1176,0.64433 -2.25141,1.2398 -3.40142,1.78641c-1.15018,0.54644 -2.33702,0.9665 -3.56054,1.26018c-1.09304,0.22836 -2.182,0.32626 -3.26686,0.29368c-1.08502,-0.03275 -2.1414,-0.23672 -3.16913,-0.61193c-0.73404,-0.29368 -1.37846,-0.72193 -1.93325,-1.28474c-0.55463,-0.56281 -0.95021,-1.21943 -1.18676,-1.96984c-0.23655,-0.75041 -0.34664,-1.53349 -0.33027,-2.34923c0.03258,-4.20897 0.42408,-8.3527 1.17449,-12.43121zM342.35029,178.95993l1.81097,-0.41597l0.46483,3.328l-2.2758,0.56281v5.3838c0,0.83194 -0.0816,1.46817 -0.24482,1.9087c-0.16305,0.44053 -0.46483,0.79126 -0.90536,1.0522c-0.70146,0.44053 -1.97393,0.66079 -3.8174,0.66079c-0.0979,-0.91363 -0.41605,-1.99038 -0.95447,-3.23027c0.52205,0.01637 1.19094,0.02455 2.00668,0.02455c0.16321,0 0.2733,-0.02856 0.33027,-0.08569c0.05713,-0.05713 0.08569,-0.16722 0.08569,-0.33027v-4.50274l-1.98212,0.48939l-0.88106,-3.4994c0.73421,-0.13047 1.6886,-0.31808 2.86317,-0.56281v-3.89081h-2.54493v-3.35255h2.54493v-4.62502h3.4994v4.62502h2.20238v3.35255h-2.20238zM145.33385,170.88462l3.98879,0.26913c-0.359,2.15351 -0.61193,4.31514 -0.75876,6.48485c-0.14685,2.16973 -0.10608,4.33134 0.12228,6.48485l1.78641,-0.90561l1.24816,3.4751l-6.09344,3.25458c-0.52205,-2.05563 -0.8605,-4.15201 -1.01537,-6.28915c-0.15503,-2.13715 -0.17541,-4.27429 -0.06114,-6.41144c0.1141,-2.13715 0.37513,-4.25792 0.78308,-6.36232zM268.42308,176.2193l-0.41597,-4.25792c1.54995,-0.24473 3.11609,-0.44871 4.69844,-0.61193c1.58252,-0.16305 3.16905,-0.26905 4.75958,-0.31799c1.5907,-0.04895 3.17731,0.02447 4.75984,0.22026l0.63623,3.30345l-6.43599,5.31037l-2.66721,-2.81431l2.37353,-1.76185c-2.59388,0.04895 -5.16336,0.35892 -7.70846,0.92991zM268.08054,189.26243l0.26938,-4.18474c2.38171,0.37521 4.79617,0.55471 7.24338,0.53851c2.72434,-0.04895 5.44878,-0.31816 8.17329,-0.80763l0.1714,4.50274c-2.85499,0.45673 -5.71816,0.67699 -8.5895,0.66079c-2.46341,0 -4.88605,-0.23655 -7.26793,-0.70966zM153.01775,176.73325l-0.29368,-4.28248c1.12562,-0.22853 2.26761,-0.42842 3.42598,-0.59965c1.15819,-0.17123 2.32057,-0.28132 3.48712,-0.33027c1.16639,-0.04895 2.33687,0.03258 3.51143,0.24457l0.44053,3.3037l-4.74731,4.20906l-1.9087,-1.73755l1.76185,-1.7373c-1.94135,0.04895 -3.83376,0.35892 -5.67723,0.92991zM152.67495,187.86743l0.19596,-4.18449c1.74557,0.55463 3.5319,0.82384 5.35898,0.80763c1.23989,-0.03275 2.47159,-0.17148 3.69511,-0.41623c1.22369,-0.24457 2.43099,-0.53006 3.62193,-0.85649l0.14685,4.47844c-2.54509,0.52205 -5.11458,0.81566 -7.70846,0.88081c-1.81088,-0.01637 -3.58101,-0.25293 -5.31037,-0.70966zM135.56986,186.83979v-4.23361h-8.29582v4.23361zM419.18955,185.37137c0.37521,-0.0162 0.6729,-0.17933 0.89308,-0.48939c0.22018,-0.30988 0.35474,-0.64433 0.40369,-1.00334c0.19578,-1.17457 0.26921,-2.35733 0.22026,-3.54827c-0.17942,-0.22836 -0.41597,-0.3915 -0.70966,-0.48939c-0.84831,-0.21216 -1.54159,-0.00418 -2.07985,0.62395c-0.53843,0.62813 -0.78316,1.34188 -0.73421,2.14124c0,0.34263 0.01629,0.67708 0.04887,1.00334c0.03258,0.32626 0.12228,0.64032 0.26913,0.9422c0.14685,0.3017 0.37939,0.51787 0.69762,0.64852c0.31808,0.13047 0.64842,0.18752 0.99106,0.17115zM395.84416,187.4026c0.06515,-0.73421 0.08963,-1.4847 0.07342,-2.25149c-0.0817,-0.0162 -0.15511,-0.0243 -0.22026,-0.0243c-0.4731,0.0162 -0.95848,0.04068 -1.45614,0.07342c-0.49749,0.03258 -0.9665,0.17532 -1.40703,0.42825c-0.44053,0.25275 -0.66079,0.65653 -0.66079,1.21133c-0.08152,0.5872 0.08569,1.06841 0.50167,1.44362c0.41597,0.37521 0.90945,0.51386 1.48045,0.41597c0.24473,-0.03258 0.50167,-0.07743 0.7708,-0.13456c0.2693,-0.05697 0.48547,-0.19562 0.64852,-0.41597c0.16321,-0.22018 0.25301,-0.46892 0.26938,-0.74624zM174.25848,185.3225l2.44721,-1.66413c-0.19578,-0.97878 -0.3834,-1.96575 -0.56281,-2.9609c-0.75041,0.52205 -1.28884,1.20313 -1.61527,2.04326c-0.32626,0.84012 -0.41597,1.70071 -0.26913,2.58177zM205.0675,186.0076c-0.35883,0.04895 -0.67282,0.20398 -0.94195,0.46508c-0.2693,0.26095 -0.37947,0.57901 -0.33052,0.95422c0.11427,0.34263 0.33453,0.55471 0.66079,0.63623c0.32626,0.0817 0.64842,0.10207 0.9665,0.06114c0.31824,-0.04076 0.6323,-0.11009 0.9422,-0.20799c0.81574,-0.24457 1.47644,-0.72578 1.98212,-1.44362c-1.06031,-0.40795 -2.15335,-0.56298 -3.27914,-0.46508zM184.35275,181.52942c-0.46491,-0.78299 -1.12153,-1.36209 -1.96984,-1.7373c-0.84831,-0.32643 -1.7129,-0.44069 -2.59379,-0.3428c0.16305,0.61994 0.3098,1.2236 0.44028,1.81097l2.15351,-1.46817M348.63945,177.88317v2.0801h1.68843v-2.0801zM350.32788,174.60404v-2.03098h-1.68843v2.03098zM353.77816,177.88317v2.0801h1.5907v-2.0801zM353.77816,174.60404h1.5907v-2.03098h-1.5907z"/></g></g></svg>