<svg version="1.1" xmlns="http://www.w3.org/2000/svg" xmlns:xlink="http://www.w3.org/1999/xlink" width="576.57658" height="451.95195" viewBox="0,0,576.57658,451.95195"><g transform="translate(48.28829,45.97598)"><g stroke="none" stroke-width="0" stroke-miterlimit="10"><path d="M-48.28829,405.97598v-451.95195h576.57658v451.95195z" fill-opacity="0.61176" fill="#7d7d7d"/><g><path d="M34.42806,396.28416l-64.79317,-414.40896l32.52865,-1.08729l64.79317,414.40896z" fill-opacity="0.61176" fill="#373737"/><path d="M93.48211,387.77065l-64.79317,-414.40896l32.52865,-1.08729l64.79317,414.40897z" fill-opacity="0.61176" fill="#373737"/><path d="M154.03767,389.76765l-64.79317,-414.40896l32.52865,-1.08729l64.79317,414.40897z" fill-opacity="0.61176" fill="#373737"/><path d="M219.09773,393.26615l-64.79317,-414.40896l32.52865,-1.08729l64.79317,414.40897z" fill-opacity="0.61176" fill="#373737"/><path d="M288.66229,398.26615l-64.79317,-414.40896l32.52865,-1.08729l64.79317,414.40897z" fill-opacity="0.61176" fill="#373737"/><path d="M350.71935,391.25413l-64.79317,-414.40896l32.52865,-1.08729l64.79317,414.40897z" fill-opacity="0.61176" fill="#373737"/><path d="M414.27791,390.24813l-64.79317,-414.40896l32.52865,-1.08729l64.79317,414.40896z" fill-opacity="0.61176" fill="#373737"/><path d="M477.83646,377.23011l-64.79317,-414.40897l32.52865,-1.08729l64.79317,414.40897z" fill-opacity="0.61176" fill="#373737"/></g></g></g></svg>