<svg version="1.1" xmlns="http://www.w3.org/2000/svg" xmlns:xlink="http://www.w3.org/1999/xlink" width="296.78459" height="32.34694" viewBox="0,0,296.78459,32.34694"><g transform="translate(-91.60771,-163.82653)"><g fill="#ffffff" fill-rule="evenodd" stroke="none" stroke-width="0" stroke-linecap="round" stroke-miterlimit="10"><path d="M292.50995,188.79039l-4.60201,1.58904c2.07487,-0.06622 3.84065,-0.16556 5.29736,-0.29801c-0.72846,1.58938 -1.21407,3.11242 -1.45682,4.56912c-5.87134,0.30897 -11.42252,0.34208 -16.65354,0.09934c-2.03057,-0.08837 -3.71363,-0.40842 -5.04919,-0.96014c-1.33533,-0.55172 -2.4886,-1.46778 -3.45981,-2.74818c-0.99313,1.08173 -2.33954,2.41718 -4.03921,4.00633l-2.28439,-4.70134c1.56723,-1.08151 2.80322,-1.99757 3.70798,-2.74818v-6.75417h-3.14519v-4.53589h7.71431v10.85984c0.83876,1.52293 2.2072,2.5051 4.10533,2.94652c-1.14773,-1.05936 -2.17409,-1.88705 -3.07908,-2.48306c2.22947,-0.57387 4.05052,-1.25814 5.46314,-2.05283h-5.62859v-3.54253h5.19802v-1.7216h-4.23789v-3.50965h4.23789v-1.45682h4.60201v1.45682h3.01297v-1.45682h4.66846v1.45682h4.37011v3.50965h-4.37011v1.7216h5.42958v3.54253h-5.72759c2.71473,1.32448 4.69015,2.39503 5.92626,3.21164zM332.20708,179.98339l-0.29801,-4.304l8.60833,-0.36412l-0.33123,-3.01297l-9.7668,0.2319l-0.2319,-4.43656l9.56847,-0.46379l-0.29801,-2.88041l5.49603,-0.36412l0.23156,2.97974l9.00568,-0.43023l0.16545,4.9329l-8.80701,0.29801l0.2319,2.97974l7.44953,-0.33089l0.23156,4.33722l-7.34985,0.26478c0.08815,0.97121 0.17641,2.08583 0.26478,3.34386c3.09015,0.64009 6.19127,1.58926 9.30335,2.84752l-2.48306,5.42958c-2.29547,-1.52293 -4.53578,-2.67066 -6.72095,-3.4432c-0.02215,1.19203 -0.0773,2.22947 -0.16545,3.1123c-0.2649,1.47885 -1.03201,2.63766 -2.30134,3.47642c-1.26911,0.83876 -2.62093,1.28018 -4.05549,1.32425c-1.05958,0.06622 -2.11363,0 -3.16214,-0.19867c-1.04828,-0.19867 -2.03046,-0.58494 -2.94652,-1.15881c-0.91606,-0.57387 -1.63345,-1.34087 -2.15217,-2.301c-0.51872,-0.96014 -0.767,-1.98096 -0.74485,-3.06247c-0.08837,-1.67752 0.48549,-2.99635 1.7216,-3.95649c1.23611,-0.96014 2.60466,-1.61684 4.10566,-1.97011c1.50078,-0.35304 2.99059,-0.57375 4.46944,-0.66213c-0.06622,-0.94906 -0.15449,-1.80986 -0.26478,-2.5824zM230.29914,174.2558l-0.26478,-5.16514l8.80667,-0.46346l1.88738,-4.56878l5.1648,0.66213l-1.68837,3.60864l6.0256,-0.33089l-0.26478,5.1648l-8.24421,0.43057l-1.39037,2.94652c1.74375,0.35327 3.32194,1.0927 4.73457,2.21828c1.89812,-0.77254 3.85704,-1.21949 5.87676,-1.34087c2.01949,-0.12137 4.04464,-0.04961 6.07543,0.21528l-0.13256,4.60201c-2.80311,-0.35327 -5.56214,-0.24297 -8.2771,0.33089c0.94906,1.16988 1.89812,2.35084 2.84718,3.54287l-5.39669,2.18505c-0.68416,-1.12558 -1.44563,-2.20709 -2.28439,-3.24453c-0.48549,0.48549 -0.84972,1.04275 -1.0927,1.67176c-0.24275,0.62924 -0.25925,1.26933 -0.0495,1.92027c0.20975,0.65117 0.61252,1.14231 1.20831,1.47343c0.66224,0.28705 1.35206,0.45814 2.06944,0.51329c0.71739,0.05515 1.43478,0.07165 2.15217,0.0495c0.71716,-0.02192 1.43998,-0.07707 2.16844,-0.16545l-0.13256,5.29736c-2.73688,0.50764 -5.45173,0.41938 -8.14454,-0.26478c-1.89812,-0.50764 -3.17276,-1.63334 -3.82393,-3.37709c-0.65117,-1.74375 -0.72293,-3.49304 -0.21528,-5.24786c0.50764,-1.7546 1.35748,-3.32725 2.54951,-4.71795c-2.18517,-0.97121 -4.46967,-1.36844 -6.85351,-1.19169l2.97974,-7.11829zM294.59567,177.10298l-0.43023,-5.39669l11.95219,-0.69535l0.66213,4.60234c-1.54508,2.36169 -2.40588,4.94409 -2.5824,7.74719c-0.06622,0.79469 0.06622,1.55615 0.39734,2.28439c0.33112,0.72846 0.84984,1.28029 1.55615,1.65549c0.70631,0.37519 1.4567,0.56833 2.25117,0.5794c0.79469,0.01108 1.54519,-0.17098 2.2515,-0.54618c0.70631,-0.37519 1.19192,-0.9381 1.45682,-1.68871c0.2649,-0.75039 0.38627,-1.51185 0.36412,-2.28439c0,-3.53157 -0.84984,-6.83136 -2.54951,-9.89936l1.88738,-4.07244c2.51629,1.47885 5.23113,2.51629 8.14454,3.1123c2.33977,0.52979 4.73468,0.76158 7.18474,0.69535l-0.13256,6.09171c-1.89812,0.0443 -3.75217,-0.18737 -5.56214,-0.69501c-1.89835,-0.33112 -3.70832,-0.91606 -5.42992,-1.75482c0.57387,1.01528 1.00432,2.09126 1.29137,3.22791c0.28682,1.13688 0.48538,2.27919 0.59568,3.42692c0.1546,1.78782 -0.20398,3.45981 -1.07575,5.01596c-0.87199,1.55615 -2.09702,2.7535 -3.67509,3.59203c-1.5783,0.83876 -3.25029,1.22503 -5.01596,1.15881c-1.47885,0 -2.91352,-0.29236 -4.304,-0.87707c-1.3907,-0.58494 -2.48329,-1.5175 -3.27775,-2.79768c-0.79469,-1.28018 -1.20311,-2.68185 -1.22526,-4.205c-0.17652,-3.09015 0.40842,-6.02571 1.75482,-8.80667zM359.09121,174.61992l-0.26478,-5.4628c5.18695,-0.44142 10.40701,-0.79458 15.66018,-1.05947c-0.1103,-1.10366 -0.22071,-2.21839 -0.33123,-3.3442l6.05916,-0.36412l0.06611,3.57576c2.64874,0 5.30843,0.02204 7.97909,0.06611l0.13256,5.46314c-2.71496,-0.08837 -5.41884,-0.14364 -8.11165,-0.16579c0,2.0308 -0.09934,4.06148 -0.29801,6.09205c0.41927,0.99336 0.7062,2.17421 0.8608,3.54253c0.1103,1.501 0.08826,2.99093 -0.06611,4.46978c-0.1546,1.47885 -0.38084,2.94663 -0.67874,4.40333c-0.29812,1.45693 -0.64574,2.90267 -1.04286,4.33722l-6.29072,-0.52957c0.68416,-1.67752 1.30222,-3.4102 1.85416,-5.19802c-0.77254,0.55172 -1.60034,0.91584 -2.4834,1.09236c-1.01528,0.28705 -1.99192,0.23743 -2.9299,-0.14883c-0.93821,-0.38627 -1.69425,-0.99325 -2.26812,-1.82093c-0.57387,-0.82769 -0.99325,-1.71617 -1.25814,-2.66546c-0.26467,-0.94906 -0.37497,-1.93123 -0.33089,-2.94652c-0.02215,-1.39048 0.25925,-2.73688 0.84419,-4.03921c0.58494,-1.30233 1.46789,-2.35073 2.64885,-3.14519c1.18073,-0.79469 2.48849,-1.22514 3.92327,-1.29137c0.81661,-0.02215 1.56711,0.02204 2.2515,0.13256l-0.13256,-2.18539c-5.27532,0.2649 -10.53957,0.66224 -15.79274,1.19203zM208.41436,189.12129l2.78107,-3.80732c1.69967,1.63322 3.44342,2.44984 5.23125,2.44984c1.19203,0 2.13567,-0.24828 2.83091,-0.74485c0.69524,-0.49657 1.04286,-1.20842 1.04286,-2.13556c0,-1.19181 -0.45249,-2.06911 -1.35748,-2.6319c-0.90499,-0.56302 -2.60455,-0.84453 -5.09869,-0.84453v-4.23789c2.05272,0 3.50953,-0.28693 4.37045,-0.8608c0.86069,-0.57387 1.29103,-1.39048 1.29103,-2.44984c0,-0.86091 -0.24828,-1.52315 -0.74485,-1.98672c-0.49657,-0.46334 -1.20842,-0.69501 -2.13556,-0.69501c-1.36855,0 -2.86944,0.70631 -4.50267,2.11894l-3.04619,-3.70832c2.49436,-2.07464 5.10999,-3.11196 7.84687,-3.11196c2.67066,0 4.77853,0.60698 6.3236,1.82093c1.54508,1.21396 2.31762,2.92448 2.31762,5.13157c0,2.60466 -1.35748,4.45882 -4.07244,5.56248v0.16545c1.47885,0.46357 2.65981,1.20853 3.54287,2.23489c0.88284,1.02636 1.32425,2.32304 1.32425,3.89004c0,2.27354 -0.89391,4.0669 -2.68173,5.38008c-1.78782,1.31341 -3.99503,1.97011 -6.62161,1.97011c-3.77454,0 -6.65506,-1.16988 -8.64156,-3.50965zM113.69116,184.81729v-11.95219h6.0256v11.19073c0,1.30233 0.1711,2.20178 0.51329,2.69835c0.3422,0.49657 0.91052,0.74485 1.70499,0.74485c0.66224,0 1.23611,-0.14895 1.7216,-0.44684c0.48572,-0.2979 0.99336,-0.81107 1.52293,-1.53954v-12.64755h6.02593v19.30238h-4.90001l-0.46346,-2.64885h-0.13256c-1.74375,2.07487 -3.75228,3.1123 -6.0256,3.1123c-3.99514,0 -5.99271,-2.60455 -5.99271,-7.81364zM193.74754,192.16748h-5.99271v-19.30238h4.90001l0.39734,2.41695h0.16545c1.96434,-1.92027 4.01706,-2.88041 6.15816,-2.88041c3.99514,0 5.99271,2.61562 5.99271,7.84687v11.91897h-6.02593v-11.19073c0,-1.28018 -0.17652,-2.16855 -0.52957,-2.66512c-0.35327,-0.49679 -0.92714,-0.74519 -1.7216,-0.74519c-0.64009,0 -1.19192,0.13245 -1.65549,0.39734c-0.46357,0.2649 -1.02636,0.70631 -1.68837,1.32425zM96.90506,190.11465h-0.13256l-0.46346,2.05283h-4.70134v-27.0828h5.99271v6.48939l-0.13256,2.88041c1.501,-1.36855 3.15649,-2.05283 4.96646,-2.05283c2.29547,0 4.1329,0.88837 5.5123,2.66512c1.37963,1.77697 2.06944,4.14431 2.06944,7.10202c0,3.20045 -0.80011,5.7442 -2.40034,7.63125c-1.60023,1.88727 -3.504,2.83091 -5.71131,2.83091c-1.80997,0 -3.47642,-0.83876 -4.99935,-2.51629zM136.80086,185.01596v-7.4163h-2.61562v-4.46978l2.97974,-0.26478l0.66213,-5.06546h5.03257v5.06546h4.53589v4.73457h-4.53589v7.35019c0,1.98649 0.80565,2.97974 2.41695,2.97974c0.41927,0 1.01517,-0.11041 1.78771,-0.33123l0.92725,4.33722c-1.58938,0.46357 -3.04619,0.69535 -4.37045,0.69535c-2.31762,0 -4.03379,-0.6732 -5.14852,-2.01961c-1.11451,-1.3464 -1.67176,-3.21153 -1.67176,-5.59537zM151.86502,185.01596v-7.4163h-2.61528v-4.46978l2.97974,-0.26478l0.66213,-5.06546h5.03224v5.06546h4.53589v4.73457h-4.53589v7.35019c0,1.98649 0.80565,2.97974 2.41695,2.97974c0.41949,0 1.01551,-0.11041 1.78805,-0.33123l0.92691,4.33722c-1.58915,0.46357 -3.04585,0.69535 -4.37011,0.69535c-2.31762,0 -4.03379,-0.6732 -5.14852,-2.01961c-1.11473,-1.3464 -1.6721,-3.21153 -1.6721,-5.59537zM174.54449,192.63093c-2.58251,0 -4.80633,-0.91606 -6.67145,-2.74818c-1.86512,-1.8319 -2.79768,-4.28185 -2.79768,-7.34985c0,-3.068 0.93256,-5.5236 2.79768,-7.3668c1.86512,-1.84297 4.08894,-2.76446 6.67145,-2.76446c2.56036,0 4.76757,0.92149 6.62161,2.76446c1.85405,1.8432 2.78107,4.2988 2.78107,7.3668c0,3.068 -0.92702,5.51795 -2.78107,7.34985c-1.85405,1.83212 -4.06125,2.74818 -6.62161,2.74818zM281.28633,168.03119h5.62825v-0.96014h-6.22427v-3.01263h10.39604v7.01896h-1.85416c0.81661,0.50764 1.87608,0.88284 3.17841,1.12558c-0.19867,1.16988 -0.5794,1.97 -1.1422,2.40034c-0.56279,0.43034 -1.42913,0.64551 -2.59901,0.64551h-3.14519c-1.6556,0 -2.77576,-0.2814 -3.36047,-0.84419c-0.58494,-0.56279 -0.87741,-1.6278 -0.87741,-3.19503zM270.12883,168.03119h5.56214v-0.96014h-5.99271v-3.01263h10.09803v7.01896h-1.7216c0.81661,0.50764 1.87608,0.88284 3.17841,1.12558c-0.19867,1.16988 -0.57387,1.97 -1.12558,2.40034c-0.55194,0.43034 -1.41274,0.64551 -2.5824,0.64551h-3.17841c-1.6556,0 -2.77587,-0.2814 -3.36081,-0.84419c-0.58472,-0.56279 -0.87707,-1.6278 -0.87707,-3.19503zM284.16674,185.57875h-6.72095l2.71462,0.96014c-1.52293,1.3907 -3.64187,2.64885 -6.35683,3.77443l1.29137,0.09934c3.24453,0.1546 7.28374,0.1546 12.11764,0c-1.67752,-1.30233 -3.5205,-2.45006 -5.52892,-3.4432zM97.60042,178.95714v7.61497c0.83876,0.75039 1.7989,1.12558 2.88041,1.12558c0.99313,0 1.79325,-0.44142 2.40034,-1.32425c0.60709,-0.88284 0.91064,-2.24032 0.91064,-4.07244c0,-3.3329 -1.03743,-4.99935 -3.1123,-4.99935c-1.01528,0 -2.04164,0.55183 -3.07908,1.65549zM174.54449,187.76381c2.16302,0 3.24453,-1.74364 3.24453,-5.23091c0,-3.50965 -1.08151,-5.26447 -3.24453,-5.26447c-2.20732,0 -3.31098,1.75482 -3.31098,5.26447c0,3.48727 1.10366,5.23091 3.31098,5.23091zM268.80423,169.52123l-4.20466,2.74785c-0.75039,-1.65537 -2.16302,-3.60876 -4.23789,-5.86015l3.90665,-2.44984c2.22947,2.18517 3.74143,4.03921 4.53589,5.56214zM373.06301,186.8369c0.50764,-0.02215 0.91041,-0.24286 1.20831,-0.66213c0.29812,-0.41927 0.48029,-0.87176 0.54652,-1.35748c0.26467,-1.58915 0.36389,-3.18938 0.29767,-4.80068c-0.24275,-0.30897 -0.56279,-0.52968 -0.96014,-0.66213c-1.14773,-0.28705 -2.08572,-0.00565 -2.81396,0.84419c-0.72846,0.84984 -1.05958,1.81551 -0.99336,2.89702c0,0.46357 0.02204,0.91606 0.06611,1.35748c0.0443,0.44142 0.16579,0.86634 0.36446,1.27476c0.19845,0.40819 0.51295,0.70066 0.94352,0.87741c0.43034,0.17652 0.8773,0.25371 1.34087,0.23156zM323.63197,170.18336l-2.78107,-0.46346l0.82757,-5.82726l2.64885,0.29801zM341.47754,189.58508c0.08815,-0.99336 0.12126,-2.00876 0.09934,-3.04619c-0.11052,-0.02192 -0.20986,-0.03289 -0.29801,-0.03289c-0.64009,0.02192 -1.29679,0.05504 -1.97011,0.09934c-0.67309,0.04407 -1.30764,0.2371 -1.90366,0.57906c-0.59602,0.3422 -0.89402,0.88849 -0.89402,1.63888c-0.1103,0.79469 0.11595,1.44585 0.67874,1.9535c0.56279,0.50764 1.23046,0.69524 2.00299,0.56279c0.33112,-0.04407 0.67885,-0.10476 1.0432,-0.18206c0.36412,-0.0773 0.65659,-0.2649 0.87741,-0.56279c0.2206,-0.2979 0.34197,-0.63444 0.36412,-1.00963zM319.02996,169.95146l-2.64885,-0.43023l0.69535,-5.6947l2.5824,0.36412zM282.21324,180.31462h-3.01297v1.7216h3.01297zM286.18635,172.07041h1.98638c0.28705,0 0.49126,-0.06622 0.61263,-0.19867c0.12137,-0.13222 0.21517,-0.39701 0.2814,-0.79435h-3.77443v0.09934c0,0.39734 0.05515,0.64563 0.16545,0.74485c0.11052,0.09922 0.35338,0.14883 0.72858,0.14883zM275.02884,172.07041h1.98638c0.28705,0 0.49126,-0.06622 0.61263,-0.19867c0.12137,-0.13222 0.21517,-0.39701 0.2814,-0.79435h-3.77443v0.09934c0,0.39734 0.05515,0.64563 0.16545,0.74485c0.1103,0.09922 0.35316,0.14883 0.72858,0.14883z"/></g></g></svg>