<svg version="1.1" xmlns="http://www.w3.org/2000/svg" xmlns:xlink="http://www.w3.org/1999/xlink" width="225.90134" height="33.91402" viewBox="0,0,225.90134,33.91402"><g transform="translate(-127.04933,-163.04299)"><g fill="#ffffff" fill-rule="evenodd" stroke="none" stroke-width="0" stroke-linecap="round" stroke-miterlimit="10"><path d="M162.08601,173.86024l-0.03414,-9.45669l5.64671,-0.30618l-0.10206,11.46374l8.33404,-6.70144l4.52405,1.53089c-0.43076,2.40368 -0.83888,4.80178 -1.22436,7.19432c-0.38548,2.39253 -0.69166,4.77938 -0.91853,7.16053c-0.06804,0.45352 0,0.87302 0.20412,1.2585c0.20412,0.38548 0.55558,0.56684 1.05438,0.54408c0.49903,-0.02253 0.98657,-0.13016 1.46262,-0.3229c0.47628,-0.19274 0.94118,-0.40255 1.3947,-0.62942c1.49687,-0.79372 2.97099,-1.63272 4.42234,-2.517l1.12231,5.85048c-2.0182,1.33803 -4.18385,2.31323 -6.49697,2.92559c-1.4286,0.40824 -2.863,0.39686 -4.30321,-0.03414c-1.43998,-0.43076 -2.57378,-1.26419 -3.4014,-2.50028c-0.82785,-1.23586 -1.13972,-2.62475 -0.9356,-4.16667c0.22688,-2.85743 0.54443,-5.7375 0.95267,-8.64022l-6.22493,5.44259l-0.1362,14.66102l-5.2726,0.13585l-0.03379,-10.37488c-1.79155,2.17703 -3.48105,4.42211 -5.06849,6.73522l-3.77585,-4.04789c2.76663,-3.24291 5.64671,-6.4064 8.64022,-9.49048l-8.50402,-4.59232l1.53054,-5.13641zM295.22545,180.32307l-0.30618,-4.42199l8.84399,-0.3741l-0.33997,-3.09557l-10.03491,0.23825l-0.23825,-4.55819l9.83079,-0.47616l-0.30618,-2.95937l5.64671,-0.37445l0.23825,3.06143l9.25222,-0.44203l0.17033,5.06849l-9.04845,0.30618l0.23825,3.06143l7.65341,-0.34031l0.23825,4.45613l-7.5517,0.27204c0.0908,0.99784 0.18148,2.14313 0.27204,3.43588c3.17487,0.65764 6.36112,1.63272 9.55875,2.92524l-2.55114,5.57878c-2.35863,-1.56491 -4.66048,-2.74423 -6.90555,-3.53794c-0.02253,1.22471 -0.07919,2.29059 -0.16998,3.19763c-0.27216,1.5194 -1.06019,2.70997 -2.36409,3.57173c-1.3039,0.86176 -2.69291,1.31528 -4.16702,1.36056c-1.0884,0.06804 -2.17123,0 -3.24848,-0.20412c-1.07725,-0.20412 -2.08647,-0.60098 -3.02765,-1.19058c-0.94094,-0.5896 -1.67788,-1.37763 -2.21082,-2.36409c-0.53294,-0.98646 -0.78803,-2.03527 -0.76527,-3.14643c-0.0908,-1.72352 0.4988,-3.0785 1.7688,-4.06496c1.26976,-0.98646 2.67572,-1.66116 4.21787,-2.02412c1.54215,-0.36272 3.07293,-0.58948 4.59232,-0.68028c-0.06804,-0.97508 -0.15884,-1.85948 -0.27239,-2.6532zM190.52366,174.43846l-0.27239,-5.30674l9.04845,-0.47616l1.93878,-4.69404l5.30674,0.68028l-1.73501,3.70758l6.19114,-0.33997l-0.27239,5.30639l-8.46989,0.44237l-1.42883,3.0273c1.79155,0.36296 3.41301,1.12265 4.86437,2.27909c1.95039,-0.79372 3.96302,-1.25293 6.03788,-1.37763c2.07509,-0.1247 4.15576,-0.05097 6.24199,0.22119l-0.13585,4.72817c-2.88019,-0.36272 -5.71498,-0.24929 -8.50437,0.34031c0.97531,1.20172 1.95051,2.41494 2.92559,3.63965l-5.54465,2.24496c-0.70292,-1.15644 -1.48526,-2.2676 -2.34702,-3.33348c-0.49903,0.4988 -0.87325,1.07133 -1.12265,1.71759c-0.2494,0.64649 -0.26635,1.30413 -0.05086,1.97292c0.21527,0.66902 0.62908,1.17363 1.24143,1.51382c0.6804,0.29492 1.38901,0.4707 2.12583,0.52736c0.73706,0.05666 1.47411,0.07361 2.21117,0.05086c0.73706,-0.02253 1.4798,-0.07919 2.22824,-0.16998l-0.1362,5.44259c-2.81192,0.52156 -5.60119,0.43088 -8.36783,-0.27204c-1.95039,-0.52156 -3.2601,-1.67812 -3.92911,-3.46967c-0.66902,-1.79155 -0.74263,-3.5888 -0.22084,-5.39173c0.52156,-1.8027 1.39458,-3.41847 2.61906,-4.8473c-2.24507,-0.99784 -4.59221,-1.40596 -7.0414,-1.22436l3.06143,-7.31344zM322.84628,174.81256l-0.27204,-5.61257c5.32915,-0.45352 10.69243,-0.81636 16.08986,-1.08852c-0.11355,-1.13392 -0.22699,-2.27909 -0.34031,-3.43554l6.22493,-0.37445l0.06792,3.67379c2.72135,0 5.45408,0.02264 8.19819,0.06792l0.13585,5.61292c-2.78939,-0.0908 -5.5674,-0.14757 -8.33404,-0.17033c0,2.08647 -0.10206,4.17282 -0.30618,6.25906c0.43099,1.02059 0.72591,2.23381 0.88475,3.63965c0.11332,1.54215 0.09056,3.07293 -0.06827,4.59232c-0.1586,1.5194 -0.39105,3.02741 -0.69735,4.52405c-0.30606,1.49687 -0.66321,2.98225 -1.07145,4.45613l-6.46318,-0.54408c0.70315,-1.72352 1.33815,-3.50369 1.90499,-5.34053c-0.79372,0.56684 -1.6441,0.94094 -2.55114,1.12231c-1.04312,0.29492 -2.04665,0.24394 -3.01058,-0.15291c-0.9637,-0.39686 -1.74035,-1.02048 -2.32995,-1.87086c-0.5896,-0.85038 -1.02048,-1.76311 -1.29264,-2.73819c-0.27216,-0.97531 -0.3856,-1.98453 -0.34031,-3.02765c-0.02253,-1.4286 0.2667,-2.81192 0.86768,-4.14995c0.60098,-1.33803 1.50802,-2.41517 2.72112,-3.23142c1.21333,-0.81648 2.55694,-1.25873 4.03082,-1.32677c0.83923,-0.02276 1.61031,0.02264 2.31323,0.1362l-0.1362,-2.24531c-5.41971,0.27216 -10.82828,0.6804 -16.2257,1.22471zM234.2002,185.90185v-20.92009h19.45747v20.92009h-5.17055v-1.49676h-2.21117v11.73579h-4.7961v-11.73579h-2.34737v1.49676zM261.95757,167.32913l7.24517,0.40824c-0.54408,2.22232 -1.05427,4.56934 -1.53054,7.04105c-0.47628,2.47195 -0.82774,4.95516 -1.05438,7.44964c-0.0908,0.86176 0.0339,1.70087 0.3741,2.51735c0.3402,0.81624 0.89009,1.44555 1.64967,1.88792c0.75981,0.44214 1.55922,0.67459 2.39822,0.69735c0.839,0.02253 1.66674,-0.09091 2.48321,-0.34031c1.13392,-0.43076 2.19979,-0.95232 3.19763,-1.56468c0.9976,-0.61236 1.98406,-1.25304 2.95937,-1.92206c0.97508,-0.66902 1.92752,-1.36068 2.85731,-2.07498c0.9298,-0.7143 1.75753,-1.36625 2.48321,-1.95585l3.12936,6.42905c-1.38332,0.90704 -2.85163,1.80851 -4.40493,2.7044c-1.55353,0.89566 -3.12971,1.7234 -4.72852,2.48321c-1.59858,0.75958 -3.24837,1.34349 -4.94936,1.75173c-1.5194,0.31744 -3.0331,0.45352 -4.54112,0.40824c-1.50802,-0.04551 -2.97633,-0.32905 -4.40493,-0.85061c-1.02059,-0.40801 -1.91637,-1.00329 -2.68733,-1.78587c-0.77096,-0.78234 -1.32085,-1.69507 -1.64967,-2.73819c-0.32882,-1.04312 -0.48197,-2.13164 -0.45944,-3.26555c0.04551,-5.85071 0.58983,-11.61074 1.63295,-17.28008zM230.39057,178.45222l2.517,-0.57822l0.64649,4.62611l-3.16349,0.78234v7.48378c0,1.15644 -0.11344,2.04084 -0.34031,2.6532c-0.22664,0.61236 -0.64614,1.0999 -1.2585,1.46262c-0.97508,0.61236 -2.74399,0.91853 -5.30674,0.91853c-0.13585,-1.27 -0.57799,-2.76675 -1.32642,-4.49027c0.72568,0.02276 1.65548,0.03414 2.78939,0.03414c0.22664,0 0.37967,-0.03971 0.45909,-0.11913c0.07942,-0.07942 0.11913,-0.23245 0.11913,-0.45909v-6.25906l-2.75526,0.68028l-1.22471,-4.86437c1.02059,-0.18136 2.34725,-0.44214 3.97997,-0.78234v-5.40845h-3.53759v-4.66025h3.53759v-6.42905h4.86437v6.42905h3.06143v4.66025h-3.06143zM127.62755,174.64258l-0.57822,-5.91875c2.15428,-0.3402 4.33131,-0.62374 6.5311,-0.85061c2.19979,-0.22664 4.40516,-0.37399 6.6161,-0.44203c2.21117,-0.06804 4.41654,0.03402 6.6161,0.30618l0.8844,4.59198l-8.94605,7.38172l-3.70793,-3.91204l3.29969,-2.44908c-3.60563,0.06804 -7.17736,0.49892 -10.71519,1.29264zM127.15139,192.77327l0.3741,-5.81704c3.31095,0.52156 6.66718,0.77108 10.0687,0.74855c3.78723,-0.06804 7.57446,-0.44226 11.36168,-1.12265l0.23791,6.25906c-3.96859,0.63488 -7.94844,0.94106 -11.93956,0.91853c-3.42427,0 -6.79188,-0.32882 -10.10284,-0.98646zM337.20113,187.36447c0.52156,-0.02253 0.93549,-0.24929 1.24178,-0.68028c0.30606,-0.43076 0.49311,-0.89566 0.56115,-1.3947c0.27216,-1.63272 0.37422,-3.27681 0.30618,-4.93229c-0.2494,-0.31744 -0.57822,-0.5442 -0.98646,-0.68028c-1.1792,-0.29492 -2.14302,-0.00581 -2.89145,0.86733c-0.7482,0.87314 -1.08829,1.86528 -1.02025,2.97644c0,0.47628 0.02264,0.94118 0.06792,1.3947c0.04528,0.45352 0.16998,0.89009 0.3741,1.3097c0.20412,0.41938 0.52725,0.71987 0.96939,0.90147c0.44237,0.18136 0.90158,0.26066 1.37763,0.23791zM304.74972,190.188c0.0908,-1.02059 0.12482,-2.06383 0.10206,-3.12971c-0.11332,-0.02253 -0.21538,-0.03379 -0.30618,-0.03379c-0.65764,0.02253 -1.33223,0.05654 -2.02377,0.10206c-0.69177,0.04528 -1.34372,0.24371 -1.95585,0.59529c-0.61236,0.35134 -0.91853,0.91261 -0.91853,1.68381c-0.11332,0.81624 0.11913,1.48514 0.69735,2.0067c0.57822,0.52156 1.26419,0.7143 2.05791,0.57822c0.3402,-0.04528 0.69735,-0.10763 1.07145,-0.18705c0.3741,-0.07919 0.67459,-0.27193 0.90147,-0.57822c0.22688,-0.30606 0.35158,-0.65183 0.3741,-1.03731zM239.1325,176.95546v2.89145h2.34737v-2.89145zM241.47986,172.39727v-2.82318h-2.34737v2.82318zM246.27596,176.95546v2.89145h2.21117v-2.89145zM246.27596,172.39727h2.21117v-2.82318h-2.21117z"/></g></g></svg>