<svg version="1.1" xmlns="http://www.w3.org/2000/svg" xmlns:xlink="http://www.w3.org/1999/xlink" width="255.7687" height="26.80549" viewBox="0,0,255.7687,26.80549"><g transform="translate(-112.11564,-166.59725)"><g fill="#ffffff" fill-rule="evenodd" stroke="none" stroke-width="0" stroke-linecap="round" stroke-miterlimit="10"><path d="M322.25832,180.25535l-0.242,-3.49512l6.99052,-0.29569l-0.26898,-2.44672l-7.93127,0.18832l-0.18832,-3.60277l7.77021,-0.37636l-0.242,-2.33908l4.46313,-0.29596l0.18832,2.41974l7.31292,-0.34937l0.13435,4.00611l-7.15158,0.242l0.18804,2.41974l6.0495,-0.26898l0.18832,3.5221l-5.96883,0.21502c0.07177,0.78869 0.14344,1.69392 0.21502,2.71571c2.5094,0.51979 5.0278,1.29049 7.55519,2.31209l-2.01668,4.40944c-1.86407,-1.2369 -3.68335,-2.16902 -5.45784,-2.79637c-0.01799,0.96801 -0.06277,1.81047 -0.13435,2.52739c-0.21511,1.20092 -0.83797,2.14195 -1.86856,2.82308c-1.03078,0.68113 -2.12864,1.03959 -3.29359,1.07538c-0.86045,0.05378 -1.71631,0 -2.56759,-0.16133c-0.85146,-0.16133 -1.64914,-0.47501 -2.39304,-0.94103c-0.74372,-0.46602 -1.32619,-1.08887 -1.74742,-1.86856c-0.42123,-0.77969 -0.62295,-1.60867 -0.60514,-2.48692c-0.07158,-1.36226 0.39443,-2.43323 1.39805,-3.21293c1.0038,-0.77969 2.11515,-1.31298 3.33406,-1.59986c1.21873,-0.28669 2.42855,-0.46592 3.62948,-0.53769c-0.05378,-0.7707 -0.12545,-1.46972 -0.21502,-2.09707zM212.80467,173.74911v4.14046h-9.35658c1.98961,5.48464 5.33248,9.1411 10.02862,10.96937c-1.11135,1.0038 -2.09717,2.26749 -2.95743,3.79109c-2.34807,-1.07538 -4.32419,-2.50482 -5.92836,-4.28831c-1.60435,-1.78349 -2.96211,-3.93893 -4.07328,-6.46632c-1.73871,4.7679 -5.0457,8.35278 -9.92097,10.75463c-0.80667,-1.38025 -1.81047,-2.5184 -3.01139,-3.41446c2.81409,-1.27269 4.97393,-2.86346 6.47954,-4.77231c1.50561,-1.90903 2.56318,-4.10027 3.17273,-6.57369h-9.11458v-4.14046h9.78662c0.08957,-1.05758 0.15234,-3.44153 0.18832,-7.15186h4.40917c-0.03579,3.17255 -0.12536,5.5565 -0.26871,7.15186zM117.5735,175.60418l-4.43615,-5.16216l4.43615,-2.2317l3.89846,5.61945l4.51709,-5.43114l4.86619,1.31738l-6.93656,7.47453c2.43764,-0.08975 4.87537,-0.08085 7.31319,0.02671l0.10737,4.75882c-1.75651,-0.16133 -3.52201,-0.2509 -5.29651,-0.26871c-0.64534,0.28669 -1.2637,0.62726 -1.85507,1.02169c-0.59156,0.39425 -1.12485,0.86476 -1.59986,1.41154c-0.47501,0.54659 -0.79318,1.17835 -0.95452,1.89527c-0.26889,1.43402 0.23301,2.20481 1.5057,2.31237c0.71692,0.07177 1.43393,0.02248 2.15104,-0.14784c0.71692,-0.17033 1.42044,-0.37645 2.11056,-0.61836c0.68994,-0.24209 1.35758,-0.52438 2.00292,-0.84687v4.35548c-2.22253,1.23671 -4.60648,1.83718 -7.15186,1.80139c-1.57719,-0.03579 -2.86318,-0.62285 -3.85799,-1.76119c-0.9948,-1.13815 -1.46532,-2.46902 -1.41154,-3.99262c0.07158,-1.11117 0.41664,-2.11488 1.03518,-3.01112c0.61836,-0.89624 1.36666,-1.66703 2.24492,-2.31237c-2.61696,0.26889 -5.19804,0.69012 -7.74323,1.2637l-0.40334,-4.65117c2.0254,-0.2331 4.07769,-0.46611 6.15687,-0.69902l3.14575,-3.81779zM295.39915,175.60418v-4.05979c1.86407,0 3.72813,-0.01799 5.5922,-0.05396c0.07177,-1.34427 0.16143,-2.70644 0.26898,-4.0865l4.46313,0.10737c-0.08975,1.32647 -0.17042,2.64394 -0.242,3.95242c2.65275,-0.12554 5.3145,-0.30477 7.98523,-0.53769v4.14046c-2.7425,0.2509 -5.47592,0.43013 -8.20026,0.53769c-0.07177,1.55938 -0.13454,3.12776 -0.18832,4.70513c1.75651,-0.43023 3.53101,-0.62744 5.32349,-0.59165c0.86027,0.01799 1.69823,0.20621 2.5139,0.56467c0.81548,0.35846 1.49212,0.89615 2.0299,1.61307c0.5376,0.7171 0.87367,1.51029 1.0082,2.37955c0.13435,0.86926 0.08507,1.73412 -0.14784,2.59457c-0.39443,1.0038 -0.93662,1.90445 -1.62656,2.70194c-0.69012,0.79768 -1.46091,1.51019 -2.31237,2.13755c-0.85146,0.62735 -1.73421,1.17403 -2.64825,1.64005l-3.73713,-3.30708c0.50181,-0.16133 0.99471,-0.35396 1.47872,-0.57789c0.484,-0.22411 0.95901,-0.46161 1.42503,-0.71252c0.46602,-0.2509 0.91405,-0.54219 1.34409,-0.87385c0.43023,-0.33166 0.77079,-0.7394 1.02169,-1.22322c0.16133,-0.44821 0.2331,-0.93671 0.2153,-1.4655c-0.01799,-0.52879 -0.2197,-0.96342 -0.60514,-1.30389c-0.38526,-0.34047 -0.83778,-0.48391 -1.35758,-0.43032c-1.0038,0.08975 -1.9852,0.27348 -2.94422,0.55118c-0.95883,0.27788 -1.89986,0.59156 -2.82308,0.94103c-0.92304,0.34965 -1.83268,0.7037 -2.72892,1.06217v-2.58108c-0.0178,-0.53778 -0.0178,-1.23681 0,-2.09707c0.05378,-1.90004 0.14344,-3.79109 0.26898,-5.67314c-1.81029,0 -3.60268,-0.0179 -5.37718,-0.05369zM344.08997,175.89987l-0.21502,-4.43615c4.21214,-0.35846 8.45116,-0.64525 12.71707,-0.86036c-0.08957,-0.89624 -0.17914,-1.80139 -0.26871,-2.71543l4.92015,-0.29596l0.05369,2.90375c2.15094,0 4.31079,0.0179 6.47954,0.05369l0.10765,4.43642c-2.20472,-0.07177 -4.40045,-0.11664 -6.58719,-0.13463c0,1.64914 -0.08067,3.29818 -0.242,4.94713c0.34066,0.80667 0.57366,1.76559 0.69902,2.87677c0.08975,1.21891 0.07186,2.42883 -0.05369,3.62975c-0.12554,1.20092 -0.30927,2.39285 -0.55118,3.57579c-0.24191,1.18312 -0.5242,2.35715 -0.84687,3.5221l-5.10847,-0.43004c0.55577,-1.36226 1.05767,-2.7693 1.5057,-4.22113c-0.62735,0.44803 -1.29949,0.74372 -2.01641,0.88706c-0.82448,0.2331 -1.61766,0.19281 -2.37955,-0.12086c-0.7617,-0.31368 -1.37557,-0.80658 -1.84158,-1.47872c-0.46602,-0.67214 -0.80658,-1.39355 -1.02169,-2.16425c-0.21511,-0.77088 -0.30477,-1.56856 -0.26898,-2.39304c-0.0178,-1.12916 0.21071,-2.22253 0.68553,-3.2801c0.47501,-1.05758 1.19202,-1.90894 2.15104,-2.5541c0.95901,-0.64534 2.021,-0.9949 3.18594,-1.04867c0.66314,-0.01799 1.2726,0.0179 1.82837,0.10765l-0.10765,-1.77468c-4.2839,0.21511 -8.55881,0.53778 -12.82472,0.96801zM240.2822,169.71602v3.73713h-10.18968v2.44672h8.41528v3.79109h-20.94431v-3.79109h8.28092v-2.44672h-10.13599v-3.73713h10.13599v-3.11877h4.24811v3.11877zM243.32057,170.7647l3.8445,-3.19943c1.27269,1.97162 2.56327,3.91636 3.87175,5.8342c1.03959,1.45183 2.24051,2.76031 3.60277,3.92544c2.09717,-1.34427 4.26601,-2.57208 6.50652,-3.68344l3.19943,4.27482c-1.84626,0.68113 -3.66563,1.43393 -5.45812,2.25841c-1.7923,0.82466 -3.49503,1.80157 -5.10819,2.93073c-0.34066,0.26889 -0.67223,0.54668 -0.99471,0.83338c-0.32267,0.28688 -0.61395,0.60505 -0.87385,0.95452c-0.2599,0.34947 -0.38094,0.74831 -0.36314,1.19652c0.05378,0.30468 0.20171,0.54668 0.44381,0.72601c0.24191,0.17914 0.5063,0.30909 0.79318,0.38985c0.28669,0.08058 0.58238,0.14775 0.88706,0.20153c2.76031,0.39425 5.40416,-0.00909 7.93155,-1.21001l0.43004,4.83976c-2.76031,0.66314 -5.5475,0.91405 -8.36159,0.75271c-0.87825,-0.05378 -1.74311,-0.17033 -2.59457,-0.34965c-0.85127,-0.17914 -1.67125,-0.46592 -2.45994,-0.86036c-0.78869,-0.39425 -1.42053,-0.96333 -1.89554,-1.70723c-0.47501,-0.7439 -0.69462,-1.56388 -0.65883,-2.45994c0.03597,-0.7171 0.22869,-1.38483 0.57816,-2.00319c0.34947,-0.61836 0.75721,-1.18743 1.22322,-1.70723c0.46602,-0.51979 0.96342,-1.0127 1.49221,-1.47872c0.52879,-0.46602 1.07997,-0.92304 1.65354,-1.37107c-0.98581,-0.93222 -1.93574,-1.90913 -2.84978,-2.93073c-1.72072,-1.95382 -3.33388,-4.00611 -4.83949,-6.15687zM163.30717,175.68485l-0.37663,-4.62447c4.19433,-0.50181 8.48723,-0.93203 12.87868,-1.29068c2.84988,-0.12536 5.64598,-0.12536 8.3883,0l0.13463,4.73211c-0.59156,-0.05378 -1.28168,-0.10756 -2.07037,-0.16133c-1.88205,1.14715 -3.62966,2.41084 -5.24282,3.79109c-0.59138,0.51979 -1.15146,1.07538 -1.68025,1.66676c-0.52879,0.59156 -0.9859,1.2458 -1.37134,1.96272c-0.38526,0.71692 -0.58688,1.49661 -0.60487,2.33908c0.03579,0.50199 0.22401,0.91423 0.56467,1.23671c0.34047,0.32267 0.70343,0.57816 1.08887,0.76648c0.38526,0.18813 0.7751,0.35387 1.16954,0.49722c0.39425,0.14353 0.7975,0.27798 1.20973,0.40334c1.2547,0.34066 2.43773,0.57366 3.54908,0.69902l-2.74241,4.67815c-1.52359,-0.37626 -3.05609,-0.89606 -4.59748,-1.55938c-0.73491,-0.34047 -1.44742,-0.72133 -2.13755,-1.14256c-0.69012,-0.42123 -1.30848,-0.92313 -1.85507,-1.5057c-0.54678,-0.58257 -0.88284,-1.27709 -1.0082,-2.08358c-0.17932,-1.57737 0.05369,-3.08298 0.69902,-4.51682c0.64515,-1.43402 1.50102,-2.72911 2.56759,-3.88524c1.06657,-1.15614 2.42433,-2.33467 4.07328,-3.53559c-2.5094,0.07177 -4.77681,0.24659 -6.80221,0.52447c-2.0254,0.2777 -3.97013,0.61377 -5.8342,1.0082zM274.64288,178.64228l2.76939,-0.64534l0.48373,3.84477c-1.43384,0.35846 -2.51821,0.62735 -3.25312,0.80667v5.69985c0,0.96782 -0.10306,1.71163 -0.30918,2.23143c-0.20612,0.51979 -0.56908,0.93212 -1.08887,1.23699c-0.84246,0.50181 -2.35706,0.75271 -4.5438,0.75271c-0.10756,-1.12916 -0.484,-2.38386 -1.12934,-3.76411c0.64534,0.03579 1.46991,0.05369 2.4737,0.05369c0.35846,0 0.53769,-0.17923 0.53769,-0.53769v-4.67815l-2.50041,0.61836l-1.04867,-4.00611c0.84246,-0.16133 2.02549,-0.39434 3.54908,-0.69902v-4.11348h-3.25312v-3.76411h3.25312v-5.08149h4.05979v5.08149h2.74241v3.76411h-2.74241zM277.97667,168.55998h15.00274v4.03281h-4.11376v15.1638c0,1.11135 -0.14335,1.97621 -0.43004,2.59457c-0.28688,0.61836 -0.77088,1.09786 -1.45201,1.43852c-1.03959,0.53778 -2.99332,0.80667 -5.86118,0.80667c-0.08957,-0.60955 -0.29569,-1.34895 -0.61836,-2.21821c-0.32267,-0.86926 -0.64534,-1.59068 -0.96801,-2.16425c0.82466,0.07158 2.2228,0.10737 4.19442,0.10737c0.51979,0 0.77969,-0.21502 0.77969,-0.64506v-15.0834h-6.5335zM138.41044,169.98501l5.72683,0.32267c-0.43023,1.75651 -0.83356,3.61158 -1.21001,5.56522c-0.37645,1.95382 -0.65424,3.91654 -0.83338,5.88816c-0.07177,0.68113 0.0268,1.34436 0.29569,1.9897c0.26889,0.64515 0.70352,1.14256 1.30389,1.49221c0.60055,0.34947 1.2324,0.53319 1.89554,0.55118c0.66314,0.0178 1.31738,-0.07186 1.96272,-0.26898c0.89624,-0.34047 1.73871,-0.75271 2.52739,-1.23671c0.78869,-0.484 1.56838,-0.9904 2.33908,-1.51919c0.7707,-0.52879 1.5235,-1.07547 2.25841,-1.64005c0.73491,-0.56458 1.38915,-1.07988 1.96272,-1.54589l2.47343,5.08149c-1.09337,0.71692 -2.25391,1.42944 -3.48163,2.13755c-1.2279,0.70793 -2.4737,1.36217 -3.7374,1.96272c-1.26351,0.60037 -2.5675,1.06189 -3.91195,1.38456c-1.20092,0.2509 -2.39735,0.35846 -3.58928,0.32267c-1.19193,-0.03597 -2.35247,-0.26008 -3.48163,-0.67232c-0.80667,-0.32249 -1.51469,-0.793 -2.12405,-1.41154c-0.60936,-0.61836 -1.04399,-1.33977 -1.30389,-2.16425c-0.2599,-0.82448 -0.38094,-1.68484 -0.36314,-2.58108c0.03597,-4.62437 0.4662,-9.17707 1.29068,-13.6581zM222.48364,192.7307h-4.14046v-11.29232h19.57324v11.29232h-4.40944v-0.80667h-11.02333zM233.50697,188.24059v-3.22614h-11.02333v3.22614zM355.43598,185.82085c0.41224,-0.0178 0.7394,-0.19703 0.9815,-0.53769c0.24191,-0.34047 0.38975,-0.70793 0.44353,-1.10236c0.21511,-1.29049 0.29578,-2.58998 0.242,-3.89846c-0.19713,-0.2509 -0.45702,-0.43013 -0.77969,-0.53769c-0.93203,-0.2331 -1.69383,-0.00459 -2.28539,0.68553c-0.59156,0.69012 -0.86045,1.47431 -0.80667,2.35257c0,0.37645 0.01799,0.7439 0.05396,1.10236c0.03579,0.35846 0.13435,0.70352 0.29569,1.03518c0.16133,0.33148 0.41674,0.56898 0.7662,0.71252c0.34947,0.14335 0.71242,0.20603 1.08887,0.18804zM329.78653,188.05255c0.07177,-0.80667 0.09865,-1.63124 0.08067,-2.4737c-0.08957,-0.0178 -0.17024,-0.02671 -0.242,-0.02671c-0.51979,0.0178 -1.05299,0.04469 -1.59958,0.08067c-0.54678,0.03579 -1.06217,0.19263 -1.54617,0.47051c-0.48382,0.2777 -0.72573,0.72133 -0.72573,1.33087c-0.08975,0.64515 0.09397,1.17385 0.55118,1.58609c0.45702,0.41224 0.99921,0.56458 1.62656,0.45702c0.26889,-0.03579 0.55118,-0.08507 0.84687,-0.14784c0.29569,-0.06259 0.53319,-0.21493 0.71252,-0.45702c0.17914,-0.24191 0.2777,-0.51521 0.29569,-0.81989z"/></g></g></svg>