<svg version="1.1" xmlns="http://www.w3.org/2000/svg" xmlns:xlink="http://www.w3.org/1999/xlink" width="444.78762" height="22.14416" viewBox="0,0,444.78762,22.14416"><g transform="translate(-17.60619,-168.92792)"><g fill="#ffffff" fill-rule="evenodd" stroke="none" stroke-width="0" stroke-linecap="round" stroke-miterlimit="10"><path d="M223.00884,170.6566h5.79865v2.42889h-3.12911c0.39391,0.55434 0.65652,0.97738 0.78782,1.26912l-2.8228,0.7439h4.24519v12.2099c0,0.72942 -0.08388,1.29474 -0.25163,1.69597c-0.1679,0.40108 -0.47062,0.71104 -0.90815,0.92988c-0.64188,0.35014 -1.89643,0.51058 -3.76367,0.4813c-0.05841,-0.46681 -0.24072,-1.13782 -0.54695,-2.01302h-5.383v0.76586h-2.91019v-7.17711h8.62123v5.66734h1.66303c0.30638,0 0.45956,-0.1313 0.45956,-0.39391v-5.97365h-5.77669v-6.19256h4.44192c-0.2771,-0.64188 -0.67825,-1.31289 -1.20347,-2.01302h-0.87521c-0.52521,0.70014 -1.05043,1.29093 -1.57564,1.77238c-0.86057,-0.59811 -1.82331,-1.10137 -2.88823,-1.50977c0.04377,-0.02928 0.1021,-0.07305 0.175,-0.1313c0.0729,-0.05841 0.13123,-0.10217 0.175,-0.1313h-2.18802c0.34999,0.58347 0.56876,0.99187 0.65629,1.2252l-2.82258,0.78782c-0.1313,-0.46681 -0.445,-1.10869 -0.94108,-1.92564c-0.55419,0.71478 -1.1231,1.35666 -1.70672,1.92564c-0.87521,-0.71478 -1.75774,-1.29825 -2.64758,-1.75042c1.47332,-1.15245 2.59657,-2.62585 3.36975,-4.42018l3.01954,0.83152c-0.26246,0.58347 -0.40101,0.88253 -0.41565,0.89717h4.46388v1.70672c0.97738,-1.00651 1.72136,-2.15165 2.23194,-3.43541l3.08519,0.76586c-0.17507,0.4084 -0.32094,0.72934 -0.4376,0.96282zM242.50542,183.91692h8.62145v3.01954h-8.62145v3.4791h-3.36975v-3.4791h-8.49015v-3.01954h8.49015v-1.11608h-6.56451v-9.75927h1.77238c-0.43768,-0.8168 -1.01391,-1.67745 -1.72868,-2.58193l2.8228,-1.24716c1.07956,1.23984 1.83086,2.2828 2.2539,3.12888l-1.48803,0.70021h3.4791c-0.36463,-0.87521 -0.91898,-1.83795 -1.66303,-2.88823l2.91042,-1.13782c0.99187,1.29825 1.67745,2.40686 2.05672,3.32584l-1.75042,0.70021h3.08519c0.87536,-1.29825 1.5318,-2.60382 1.96933,-3.9167l3.65432,1.05021c-0.83144,1.26927 -1.48056,2.22477 -1.94737,2.8665h1.40042v9.75927h-6.89277zM64.58603,172.10071l3.56671,0.24065c-0.32086,1.92564 -0.54695,3.85852 -0.67825,5.79865c-0.1313,1.94028 -0.09486,3.87316 0.10935,5.79865l1.59738,-0.80956l0.76586,2.18825c0.16043,-0.86072 0.56159,-1.59013 1.20347,-2.18825c0.64188,-0.59811 1.37122,-1.03938 2.18802,-1.32379c0.81695,-0.28457 1.66311,-0.44141 2.53846,-0.47054c-0.10217,-1.18158 -0.21891,-2.37049 -0.35022,-3.56671l-5.05452,0.39391l-0.26261,-3.56671l4.96713,-0.39391l-0.59087,-4.09192l3.87301,-0.26238l0.175,4.0917l4.20127,-0.32826l0.17522,3.56671l-4.17953,0.35022c0.10217,1.34202 0.18239,2.67679 0.24065,4.00431c1.79433,0.2771 3.55946,0.67825 5.29539,1.20347l-1.35651,3.50106c-1.28376,-0.48145 -2.58208,-0.92637 -3.89497,-1.33477c0,0.88985 -0.04377,1.66303 -0.1313,2.31955c-0.16043,0.97738 -0.6017,1.7797 -1.32379,2.40694c-0.7221,0.62724 -1.56459,0.96274 -2.52748,1.00651c-0.83144,0.05841 -1.64832,-0.06192 -2.45063,-0.36097c-0.80231,-0.29906 -1.44419,-0.80239 -1.92564,-1.50999c-0.48145,-0.70746 -0.74405,-1.49154 -0.78782,-2.35226l-5.12017,2.73519c-0.46681,-1.83795 -0.76952,-3.71243 -0.90815,-5.62343c-0.13862,-1.911 -0.15685,-3.822 -0.05467,-5.733c0.10217,-1.911 0.33558,-3.80743 0.70021,-5.6893zM298.87234,175.16417l-0.06565,-3.52302l9.08102,-0.06565c-0.1313,1.86723 -0.27717,3.7199 -0.4376,5.558c0.46681,0 0.94818,0.02188 1.44412,0.06565c0.81695,0.0729 1.6047,0.16043 2.36324,0.26261l1.20347,-8.13993l3.50106,0.26261l-1.20347,8.51188c1.38578,0.32086 2.757,0.70746 4.11366,1.15977l-1.2252,3.41345c-1.12333,-0.42304 -2.2539,-0.80231 -3.39171,-1.13782l-1.31304,9.29971l-3.6104,-0.45956l1.44412,-9.73731c-0.72927,-0.16043 -1.45136,-0.29174 -2.16629,-0.39391c-0.52507,-0.05826 -1.021,-0.10203 -1.48781,-0.1313c-0.16043,1.10869 -0.3355,2.20281 -0.52521,3.28237c-0.14579,0.83144 -0.45575,1.60455 -0.92988,2.31932c-0.47413,0.71493 -1.1051,1.24738 -1.89292,1.59738c-0.78767,0.35014 -1.59723,0.47413 -2.42867,0.37195c-0.59811,-0.02913 -1.15977,-0.17866 -1.68499,-0.44858c-0.52521,-0.26978 -0.92637,-0.66361 -1.20347,-1.18151c-0.2771,-0.5179 -0.43753,-1.06492 -0.4813,-1.64107c-0.04377,-0.5763 -0.0292,-1.14887 0.04369,-1.7177c0.10203,-1.03579 0.4813,-1.94386 1.13782,-2.72422c0.65652,-0.7805 1.44793,-1.37495 2.37422,-1.78335c0.9263,-0.40855 1.88538,-0.69304 2.87725,-0.85347c0.05841,-0.81695 0.10217,-1.64847 0.1313,-2.49455zM425.26065,180.2626l-0.19696,-2.84454l5.6893,-0.24087l-0.21891,-1.99107l-6.45494,0.15304l-0.15326,-2.93215l6.32386,-0.3063l-0.19696,-1.90368l3.63236,-0.24065l0.15304,1.96933l5.95191,-0.28457l0.10935,3.26041l-5.82061,0.19696l0.15326,1.96933l4.92344,-0.21869l0.15304,2.8665l-4.85756,0.175c0.05826,0.64188 0.11659,1.37854 0.175,2.20998c2.0423,0.42304 4.09185,1.05035 6.14864,1.88194l-1.64107,3.58844c-1.51709,-1.00651 -2.99773,-1.76506 -4.44192,-2.27563c-0.01464,0.78767 -0.05109,1.47332 -0.10935,2.05694c-0.17507,0.97738 -0.68206,1.74317 -1.52097,2.29737c-0.83876,0.55434 -1.73219,0.84615 -2.6803,0.87543c-0.70029,0.04377 -1.39691,0 -2.08988,-0.1313c-0.69282,-0.1313 -1.34194,-0.38659 -1.94737,-0.76586c-0.60543,-0.37927 -1.07956,-0.88619 -1.42238,-1.52075c-0.34282,-0.63456 -0.50692,-1.30923 -0.49228,-2.024c-0.05841,-1.10869 0.32086,-1.98031 1.13782,-2.61487c0.81695,-0.63456 1.72144,-1.06858 2.71346,-1.30206c0.99187,-0.23333 1.9765,-0.3792 2.95388,-0.4376c-0.04377,-0.62724 -0.1021,-1.19615 -0.175,-1.70672zM360.84118,176.47698l-0.175,-3.41345l5.82038,-0.3063l1.24738,-3.01976l3.41345,0.4376l-1.11586,2.3852l3.98236,-0.21891l-0.175,3.41367l-5.44865,0.28434l-0.9189,1.9476c1.15245,0.23333 2.19549,0.72202 3.12911,1.46607c1.25448,-0.51058 2.54914,-0.80597 3.88399,-0.88619c1.3347,-0.08037 2.67313,-0.03301 4.01529,0.14206l-0.08761,3.04172c-1.85259,-0.23348 -3.67605,-0.16058 -5.47039,0.21869c0.62724,0.77318 1.25448,1.55361 1.88172,2.34128l-3.56671,1.44434c-0.45217,-0.74405 -0.95542,-1.4589 -1.50977,-2.14455c-0.32086,0.32101 -0.56159,0.68938 -0.72217,1.1051c-0.16043,0.41572 -0.17134,0.83876 -0.03271,1.26912c0.13862,0.43036 0.40482,0.75496 0.79858,0.9738c0.43768,0.18956 0.89358,0.30257 1.36771,0.33901c0.47413,0.0366 0.94825,0.04758 1.42238,0.03294c0.47398,-0.01464 0.95169,-0.05109 1.43314,-0.10935l-0.08761,3.50106c-1.80882,0.3355 -3.60308,0.2771 -5.38278,-0.17522c-1.25448,-0.3355 -2.0969,-1.07948 -2.52726,-2.23194c-0.43036,-1.15231 -0.47779,-2.30835 -0.14228,-3.46812c0.3355,-1.15977 0.89709,-2.19915 1.68477,-3.11813c-1.44419,-0.64188 -2.95396,-0.90449 -4.5293,-0.78782l1.96933,-4.70453zM276.9034,176.54263l-0.08761,-3.76344l4.79214,-0.19696c-0.02928,-0.74405 -0.0658,-1.48803 -0.10957,-2.23194l3.76367,-0.17522c0.02928,0.74405 0.0658,1.48803 0.10957,2.23194l4.50757,-0.21869l0.08739,3.76367l-4.50757,0.24065c0.01464,0.51058 0.0292,1.05028 0.04369,1.61911c1.34217,-0.0729 2.66603,0.10949 3.9716,0.54717c1.30557,0.43768 2.40328,1.19256 3.29312,2.26465c0.88985,1.07224 1.291,2.31589 1.20347,3.73095c-0.05826,0.80231 -0.28068,1.54988 -0.66727,2.24269c-0.38659,0.69297 -0.84249,1.32394 -1.36771,1.89292c-0.52507,0.56883 -1.10122,1.09397 -1.72846,1.57542l-3.82932,-2.5165c0.51058,-0.34999 1.00293,-0.75115 1.47705,-1.20347c0.47398,-0.45217 0.85683,-0.97365 1.14857,-1.56444c0.29189,-0.59079 0.36486,-1.21445 0.21891,-1.87097c-0.24797,-0.78767 -0.72934,-1.34202 -1.44412,-1.66303c-0.71478,-0.32086 -1.45876,-0.45941 -2.23194,-0.41565c0,0.72942 -0.00732,1.40042 -0.02196,2.01302c-0.02913,1.07956 -0.2042,2.13723 -0.52521,3.17302c-0.32086,1.03564 -0.87513,1.93639 -1.66281,2.70226c-0.78782,0.76586 -1.73608,1.178 -2.84476,1.23641c-0.65637,0.0729 -1.30549,0.02913 -1.94737,-0.1313c-0.64188,-0.16043 -1.17434,-0.49235 -1.59738,-0.99576c-0.42304,-0.50326 -0.70387,-1.07216 -0.84249,-1.70672c-0.13862,-0.63456 -0.20793,-1.28002 -0.20793,-1.93639c-0.02913,-1.0942 0.2408,-2.1081 0.80978,-3.04172c0.56883,-0.93362 1.30183,-1.69948 2.199,-2.29759c0.89717,-0.59796 1.85633,-1.06477 2.87748,-1.40042c0,-0.70014 -0.02188,-1.40035 -0.06565,-2.10063zM402.19736,172.75723v3.10715h-6.06126v1.85999h5.47061v2.95388h-5.47061v2.01325h5.75495v3.01954h-5.75495v4.72648h-3.36975v-14.57314h-0.41565c-0.93362,1.67767 -1.8818,3.06353 -2.84454,4.15758c-0.26261,-0.30638 -0.65286,-0.69663 -1.17075,-1.17075c-0.5179,-0.47413 -0.95191,-0.84249 -1.30206,-1.1051c0.96289,-0.96274 1.86006,-2.199 2.6915,-3.70877c0.83159,-1.50992 1.49535,-3.07451 1.99129,-4.69377l3.15084,0.83152c-0.23333,0.71493 -0.56883,1.57564 -1.00651,2.58216zM99.72791,173.87309l2.93215,-3.85105l3.21649,2.51628l-3.0415,3.80736c1.2984,1.86723 1.99129,3.93142 2.07868,6.19256c0.02928,2.84461 -0.69282,5.45582 -2.16629,7.83363l-3.89474,-1.02847c0.51058,-0.99187 0.94818,-2.01661 1.31281,-3.07421c0.36463,-1.0576 0.59072,-2.14074 0.67825,-3.24943c0.02928,-0.58362 -0.00717,-1.16717 -0.10935,-1.75064c-0.10203,-0.58347 -0.34999,-1.10129 -0.7439,-1.55346l-8.46819,10.3936l-3.56671,-1.72868c-0.81695,-1.29825 -1.39318,-2.69501 -1.72868,-4.19029c-0.3355,-1.49528 -0.29906,-2.98682 0.10935,-4.47463c0.40855,-1.48796 1.18905,-2.7644 2.34151,-3.82932l-2.71346,-4.22323l3.54475,-1.64107l2.34151,4.00431c0.45217,-0.18971 0.91898,-0.37203 1.40042,-0.54695c1.05028,-0.29189 2.13342,-0.41594 3.24943,-0.37218c1.11586,0.04377 2.19168,0.29906 3.22747,0.76586zM108.21806,176.47698v-3.3041c1.51709,0 3.03418,-0.01456 4.55126,-0.04369c0.05841,-1.09405 0.13138,-2.20273 0.21891,-3.32606l3.63236,0.08761c-0.07305,1.07941 -0.1387,2.15157 -0.19696,3.21649c2.15897,-0.10203 4.32525,-0.24789 6.49886,-0.4376v3.36975c-2.23201,0.2042 -4.45671,0.35007 -6.67408,0.4376c-0.05826,1.26927 -0.10927,2.54571 -0.15304,3.82932c1.42955,-0.34999 2.87374,-0.51043 4.33257,-0.4813c0.70014,0.01449 1.38212,0.16768 2.04596,0.45956c0.66369,0.29174 1.21437,0.72934 1.65205,1.31281c0.43753,0.58347 0.71104,1.22901 0.82054,1.93662c0.10935,0.70746 0.06924,1.41125 -0.12032,2.11139c-0.32101,0.81695 -0.76235,1.55003 -1.32402,2.19922c-0.56151,0.6492 -1.18875,1.22909 -1.88172,1.73966c-0.69297,0.51043 -1.4114,0.95535 -2.15531,1.33477l-3.0415,-2.6915c0.4084,-0.1313 0.80956,-0.28815 1.20347,-0.47054c0.39376,-0.18224 0.78035,-0.37554 1.15977,-0.57989c0.37927,-0.2042 0.7439,-0.44126 1.0939,-0.71119c0.35014,-0.26978 0.62731,-0.60162 0.83152,-0.99553c0.1313,-0.36463 0.18971,-0.76213 0.17522,-1.19249c-0.01464,-0.43036 -0.17881,-0.78409 -0.4925,-1.06118c-0.31355,-0.27725 -0.68184,-0.39399 -1.10488,-0.35022c-0.81695,0.0729 -1.61568,0.22242 -2.39618,0.44858c-0.78035,0.22616 -1.54622,0.48145 -2.29759,0.76586c-0.75122,0.28442 -1.49154,0.57249 -2.22096,0.86423v-2.10063c-0.01449,-0.43753 -0.01449,-1.00644 0,-1.70672c0.04377,-1.54622 0.11674,-3.08519 0.21891,-4.61692c-1.47332,0 -2.93208,-0.01464 -4.37627,-0.04392zM167.29822,176.47698v-3.3041c1.51724,0 3.0344,-0.01456 4.55149,-0.04369c0.05841,-1.09405 0.1313,-2.20273 0.21869,-3.32606l3.63236,0.08761c-0.0729,1.07941 -0.13847,2.15157 -0.19673,3.21649c2.15897,-0.10203 4.32518,-0.24789 6.49864,-0.4376v3.36975c-2.23186,0.2042 -4.45648,0.35007 -6.67386,0.4376c-0.05826,1.26927 -0.10927,2.54571 -0.15304,3.82932c1.42955,-0.34999 2.87374,-0.51043 4.33257,-0.4813c0.70014,0.01449 1.38205,0.16768 2.04574,0.45956c0.66384,0.29174 1.2146,0.72934 1.65228,1.31281c0.43753,0.58347 0.71104,1.22901 0.82054,1.93662c0.10935,0.70746 0.06924,1.41125 -0.12032,2.11139c-0.32101,0.81695 -0.76235,1.55003 -1.32402,2.19922c-0.56151,0.6492 -1.18875,1.22909 -1.88172,1.73966c-0.69297,0.51043 -1.4114,0.95535 -2.15531,1.33477l-3.0415,-2.6915c0.4084,-0.1313 0.80956,-0.28815 1.20347,-0.47054c0.39376,-0.18224 0.78028,-0.37554 1.15955,-0.57989c0.37927,-0.2042 0.74398,-0.44126 1.09412,-0.71119c0.35014,-0.26978 0.62731,-0.60162 0.83152,-0.99553c0.1313,-0.36463 0.18964,-0.76213 0.175,-1.19249c-0.01449,-0.43036 -0.17858,-0.78409 -0.49228,-1.06118c-0.31355,-0.27725 -0.68191,-0.39399 -1.1051,-0.35022c-0.8168,0.0729 -1.61545,0.22242 -2.39596,0.44858c-0.78035,0.22616 -1.54622,0.48145 -2.29759,0.76586c-0.75122,0.28442 -1.49154,0.57249 -2.22096,0.86423v-2.10063c-0.01464,-0.43753 -0.01464,-1.00644 0,-1.70672c0.04377,-1.54622 0.11674,-3.08519 0.21891,-4.61692c-1.47347,0 -2.9323,-0.01464 -4.37649,-0.04392zM443.02854,176.71785l-0.175,-3.61063c3.42809,-0.29174 6.87806,-0.52514 10.34991,-0.70021c-0.0729,-0.72927 -0.14587,-1.46593 -0.21891,-2.20998l4.00454,-0.24065l0.04369,2.36324c1.75057,0 3.50838,0.01456 5.27343,0.04369l0.08761,3.6104c-1.79433,-0.05826 -3.58135,-0.09471 -5.36104,-0.10935c0,1.34202 -0.06565,2.68411 -0.19696,4.02627c0.2771,0.65637 0.46673,1.4368 0.56891,2.34128c0.0729,0.99202 0.05833,1.97673 -0.04369,2.95411c-0.10217,0.97738 -0.2517,1.94745 -0.44858,2.91019c-0.19703,0.96274 -0.42677,1.91824 -0.68923,2.8665l-4.15758,-0.35022c0.45217,-1.10869 0.86064,-2.25382 1.22543,-3.43541c-0.51058,0.36478 -1.05767,0.60551 -1.6413,0.72217c-0.67101,0.18971 -1.31647,0.15692 -1.93639,-0.09837c-0.62007,-0.25529 -1.11974,-0.65652 -1.49901,-1.20369c-0.37927,-0.54702 -0.65644,-1.13416 -0.83152,-1.7614c-0.17492,-0.62724 -0.24782,-1.27636 -0.21869,-1.94737c-0.01464,-0.91913 0.17134,-1.80897 0.55793,-2.66954c0.38659,-0.86072 0.97014,-1.55369 1.75064,-2.0789c0.78035,-0.52507 1.64466,-0.80948 2.59291,-0.85325c0.5397,-0.01464 1.03564,0.01449 1.48781,0.08739l-0.08739,-1.44412c-3.48649,0.17507 -6.96567,0.43768 -10.43752,0.78782zM129.66201,182.66954l-0.98478,-3.08519c1.25463,-0.45232 2.53107,-0.85347 3.82932,-1.20347l-1.22543,-4.02627l2.9978,-0.87521l1.31304,4.17931c0.71478,-0.16043 1.44412,-0.29906 2.18802,-0.41587c0.04377,-0.01449 0.08022,-0.02173 0.10935,-0.02173l0.96282,-3.96062l3.06345,0.54695l-0.98455,3.17302c0.62724,-0.02928 1.25448,-0.01105 1.88172,0.05467c0.62724,0.06558 1.24358,0.2151 1.84901,0.44858c0.60543,0.23333 1.09778,0.6126 1.47705,1.13782c0.37927,0.52507 0.58347,1.11586 0.6126,1.77238c0,0.75854 -0.21518,1.42955 -0.64554,2.01302c-0.43036,0.58362 -0.93362,1.0942 -1.50977,1.53173c-0.57615,0.43768 -1.17426,0.83159 -1.79433,1.18173c-0.61992,0.34999 -1.26539,0.65629 -1.93639,0.9189l-1.50999,-2.53824c0.65652,-0.3355 1.31296,-0.70021 1.96933,-1.09412c0.18971,-0.11666 0.37942,-0.23699 0.56913,-0.36097c0.18956,-0.12398 0.37188,-0.25163 0.54695,-0.38293c0.17507,-0.1313 0.34648,-0.27717 0.51424,-0.4376c0.16775,-0.16043 0.27351,-0.35739 0.31728,-0.59087c-0.01464,-0.23333 -0.11674,-0.41565 -0.3063,-0.54695c-0.18971,-0.1313 -0.39765,-0.21518 -0.6238,-0.25163c-0.22601,-0.03645 -0.44843,-0.06199 -0.66727,-0.07663c-1.32753,-0.02913 -2.65498,0.06565 -3.98236,0.28434c-0.42319,0.05841 -0.89,0.14594 -1.40042,0.26261l2.91019,9.56231l-3.1728,0.7439l-2.77911,-9.36536c-1.22535,0.43768 -2.4215,0.91181 -3.58844,1.42238zM188.74239,182.66954l-0.98478,-3.08519c1.25448,-0.45232 2.53092,-0.85347 3.82932,-1.20347l-1.22543,-4.02627l2.9978,-0.87521l1.31281,4.17931c0.71493,-0.16043 1.44434,-0.29906 2.18825,-0.41587c0.04377,-0.01449 0.08022,-0.02173 0.10935,-0.02173l0.96282,-3.96062l3.06345,0.54695l-0.98455,3.17302c0.62724,-0.02928 1.25448,-0.01105 1.88172,0.05467c0.62724,0.06558 1.24358,0.2151 1.84901,0.44858c0.60543,0.23333 1.09778,0.6126 1.47705,1.13782c0.37927,0.52507 0.58347,1.11586 0.6126,1.77238c0,0.75854 -0.21518,1.42955 -0.64554,2.01302c-0.43036,0.58362 -0.93362,1.0942 -1.50977,1.53173c-0.57615,0.43768 -1.17426,0.83159 -1.79433,1.18173c-0.61992,0.34999 -1.26539,0.65629 -1.93639,0.9189l-1.50999,-2.53824c0.65652,-0.3355 1.31296,-0.70021 1.96933,-1.09412c0.18971,-0.11666 0.37935,-0.23699 0.56891,-0.36097c0.18971,-0.12398 0.3721,-0.25163 0.54717,-0.38293c0.17507,-0.1313 0.34648,-0.27717 0.51424,-0.4376c0.16775,-0.16043 0.27351,-0.35739 0.31728,-0.59087c-0.01464,-0.23333 -0.11674,-0.41565 -0.3063,-0.54695c-0.18971,-0.1313 -0.39765,-0.21518 -0.6238,-0.25163c-0.22601,-0.03645 -0.44843,-0.06199 -0.66727,-0.07663c-1.32753,-0.02913 -2.65505,0.06565 -3.98258,0.28434c-0.42304,0.05841 -0.88985,0.14594 -1.40042,0.26261l2.91042,9.56231l-3.1728,0.7439l-2.77911,-9.36536c-1.22535,0.43768 -2.4215,0.91181 -3.58844,1.42238zM41.10709,190.43752v-20.61244h19.49658v20.61244h-3.54498v-1.20347h-12.58185v1.20347zM341.14764,171.90376l4.66083,0.26261c-0.35014,1.42955 -0.67833,2.93939 -0.98455,4.52953c-0.30638,1.59013 -0.53253,3.18751 -0.67848,4.79214c-0.05826,0.55434 0.02196,1.09405 0.24065,1.61911c0.21884,0.52521 0.57264,0.93003 1.06141,1.21445c0.48862,0.28442 1.00285,0.43394 1.54271,0.44858c0.5397,0.01464 1.07209,-0.05826 1.59715,-0.21869c0.72942,-0.27725 1.41506,-0.61283 2.05694,-1.00674c0.64188,-0.39376 1.27644,-0.80582 1.90368,-1.23618c0.62724,-0.43036 1.23992,-0.87528 1.83803,-1.33477c0.59811,-0.45949 1.13057,-0.87887 1.59738,-1.25814l2.01325,4.13562c-0.88985,0.58347 -1.83444,1.16328 -2.83378,1.73944c-0.99919,0.5763 -2.01302,1.10876 -3.0415,1.59738c-1.02847,0.48877 -2.08973,0.86438 -3.18378,1.12684c-0.97738,0.20435 -1.95111,0.29189 -2.92117,0.26261c-0.97006,-0.02913 -1.91466,-0.21145 -2.83378,-0.54695c-0.65637,-0.26261 -1.23252,-0.64554 -1.72846,-1.1488c-0.49609,-0.50326 -0.84989,-1.09039 -1.06141,-1.7614c-0.21152,-0.67116 -0.30996,-1.37137 -0.29532,-2.10063c0.02913,-3.76374 0.3792,-7.46907 1.05021,-11.116zM149.66162,179.14652l9.05906,-7.22081l3.19476,2.20998l-7.83363,6.23625l10.15318,4.87975l-1.83825,4.06997l-12.4725,-6.60843zM320.77586,179.14652l9.05906,-7.22081l3.19476,2.20998l-7.83363,6.23625l10.15296,4.87975l-1.83803,4.06997l-12.4725,-6.60843zM26.55569,168.94987h3.32606c1.21086,1.76506 2.64773,3.35877 4.31061,4.78116c1.66303,1.42223 3.38439,2.51994 5.16409,3.29312c-0.64188,0.62724 -1.36397,1.58274 -2.16629,2.8665c-1.45868,-0.84608 -2.83722,-1.81614 -4.13562,-2.91019v1.92541h-9.38709v-1.85999c-1.18158,0.99202 -2.50911,1.93296 -3.98258,2.8228c-0.4813,-0.88985 -1.17419,-1.75781 -2.07868,-2.60389c1.80882,-0.96274 3.54109,-2.23186 5.1968,-3.80736c1.65571,-1.57549 2.90661,-3.07802 3.75269,-4.50757zM253.05229,176.87089l-0.15304,-3.69801l4.70453,-0.08739l1.02847,-3.61063l3.6541,0.30652l-0.87521,3.21649l2.88846,-0.04369l-0.39391,3.7854l-3.45736,0.04392l-2.34128,10.10926l-3.80736,-0.37195l2.29759,-9.60601zM385.50185,169.25617l3.15084,1.00651c-0.59811,1.60462 -1.28376,3.12179 -2.05694,4.55149v15.60139h-3.3041v-10.56883c-0.18956,0.23348 -0.50318,0.58362 -0.94086,1.05043c-0.14594,-0.43768 -0.40489,-1.03579 -0.77684,-1.79433c-0.37195,-0.75854 -0.69648,-1.33477 -0.97357,-1.72868c0.97738,-0.97738 1.90368,-2.19176 2.77889,-3.64312c0.87521,-1.45151 1.58274,-2.94313 2.12259,-4.47486zM417.77723,191.07208l-4.04823,-0.175l1.92564,-21.59721l3.96062,0.175zM44.47685,173.17288v13.04141h12.58185v-13.04141zM20.4727,180.65652h12.58185l0.56891,-0.1313l2.60389,0.72195c-0.88985,2.31955 -2.23918,5.40489 -4.04801,9.25601l-3.50106,-0.94086c1.02115,-2.01317 1.9402,-3.96062 2.75715,-5.84234h-10.96274zM265.24045,177.28676l3.32606,0.08739l0.26238,4.15758c1.7797,0.29174 3.54483,0.70021 5.29539,1.22543l-1.35651,3.4791c-1.28376,-0.48145 -2.58208,-0.92637 -3.89497,-1.33477c0,0.88985 -0.04377,1.66303 -0.1313,2.31955c-0.16043,0.97738 -0.6017,1.7797 -1.32379,2.40694c-0.7221,0.62724 -1.56459,0.96274 -2.52748,1.00651c-0.68565,0.05841 -1.36032,-0.00359 -2.024,-0.18598c-0.66369,-0.18239 -1.25082,-0.50699 -1.7614,-0.9738c-0.51058,-0.46681 -0.87528,-1.0284 -1.09412,-1.68477c-0.21884,-0.65652 -0.32826,-1.32028 -0.32826,-1.99129c0.02913,-0.96274 0.36829,-1.7797 1.01749,-2.45085c0.6492,-0.67101 1.40416,-1.16328 2.26488,-1.47683c0.86057,-0.31369 1.75042,-0.49243 2.66954,-0.53619c-0.11681,-1.34202 -0.24812,-2.69135 -0.39391,-4.04801zM209.39852,175.09852h8.70884v6.19256h-5.77669v9.12449h-2.93215zM405.69841,171.81637l4.11388,0.34999c-0.51058,2.62577 -0.62731,5.25887 -0.35022,7.89928l1.88194,-2.16629l1.59715,3.06345l-3.93866,4.46388l-2.69128,-0.70021c-0.3355,-1.03579 -0.558,-2.09339 -0.6675,-3.1728c-0.10935,-1.07956 -0.175,-2.15904 -0.19696,-3.23845c-0.02181,-1.07956 -0.01083,-2.1627 0.03294,-3.24943c0.04377,-1.08688 0.11666,-2.17002 0.21869,-3.24943zM46.03031,184.13561v-8.81818h9.45297v8.81818zM290.38242,177.89936l1.33477,-7.87732l3.93866,0.83152l-1.57542,7.61472zM266.94718,175.66742l2.8665,-4.57322l3.21649,1.68499l-3.12888,4.37627zM24.98027,175.90807h6.82712c-1.45883,-1.31289 -2.61129,-2.56012 -3.45736,-3.74171c-0.87521,1.23999 -1.99846,2.48723 -3.36975,3.74171zM90.82212,185.71103l2.23194,-2.88823l-2.31955,-3.76367c-0.81695,1.00651 -1.19256,2.11878 -1.12684,3.33682c0.06558,1.21818 0.47039,2.32321 1.21445,3.31508zM452.2626,184.79213c0.3355,-0.01464 0.6017,-0.16051 0.79858,-0.4376c0.19703,-0.27725 0.31743,-0.5763 0.3612,-0.89717c0.17492,-1.05028 0.2405,-2.10788 0.19673,-3.1728c-0.16043,-0.20435 -0.37195,-0.35029 -0.63456,-0.43783c-0.75854,-0.18956 -1.37846,-0.00351 -1.85976,0.55815c-0.48145,0.56151 -0.70029,1.19973 -0.65652,1.91466c0,0.30623 0.01456,0.60528 0.04369,0.89717c0.02928,0.29174 0.10949,0.57249 0.24065,0.84227c0.1313,0.26993 0.33924,0.46322 0.6238,0.57989c0.28442,0.11666 0.57981,0.16775 0.88619,0.15326zM281.82662,183.19475c0.02928,-0.46681 0.04392,-1.00659 0.04392,-1.61934c-0.70029,0.24797 -1.31304,0.63456 -1.83825,1.15977c-0.52507,0.52521 -0.84593,1.14521 -0.96259,1.85999c-0.02928,0.3355 -0.0366,0.66735 -0.02196,0.99553c0.01464,0.32833 0.12406,0.62739 0.32826,0.89717c0.2042,0.26993 0.49594,0.36844 0.87521,0.29555c0.49594,-0.10217 0.84966,-0.37576 1.06118,-0.82076c0.21152,-0.44485 0.34648,-0.90068 0.40489,-1.36749c0.05841,-0.46681 0.09486,-0.93362 0.10935,-1.40042zM49.09376,181.33477h3.10737v-3.19476h-3.10737zM351.08191,174.50765l-1.85999,0.45956l-1.05021,-4.17931l1.83803,-0.39391zM354.49558,173.87309l-1.9476,0.37195l-0.96282,-4.06997l1.83803,-0.41565zM303.46752,183.39171c0.2042,-0.49609 0.34648,-1.003 0.42685,-1.52075c0.08022,-0.5179 0.16409,-1.04669 0.25163,-1.5864c-0.77318,0.1313 -1.49528,0.41206 -2.16629,0.84227c-0.67116,0.43036 -1.07963,1.04669 -1.22543,1.84901c-0.08754,0.74405 0.2334,1.17441 0.96282,1.29108c0.77318,0.0729 1.35666,-0.21884 1.75042,-0.87521zM95.30773,179.97804l2.31955,-3.01954c-0.64188,-0.27725 -1.31289,-0.40855 -2.01302,-0.39391c-0.70029,0.01464 -1.37861,0.14594 -2.03498,0.39391zM431.38755,186.6082c0.05826,-0.65637 0.08014,-1.32738 0.06565,-2.01302c-0.07305,-0.01464 -0.1387,-0.02196 -0.19696,-0.02196c-0.42304,0.01464 -0.85706,0.03652 -1.30206,0.06565c-0.44485,0.02928 -0.86423,0.15692 -1.25814,0.38293c-0.39391,0.22616 -0.59087,0.58721 -0.59087,1.08314c-0.0729,0.52521 0.07663,0.95557 0.44858,1.29108c0.37195,0.3355 0.81322,0.45949 1.32379,0.37195c0.21884,-0.02913 0.44866,-0.06924 0.68946,-0.12032c0.24065,-0.05109 0.43387,-0.17507 0.57966,-0.37195c0.14594,-0.19703 0.22623,-0.41953 0.24087,-0.6675zM265.70002,186.43321c0.05826,-0.71478 0.08014,-1.43687 0.06565,-2.16629c-0.32101,0.01464 -0.62739,0.0292 -0.91913,0.04369c-0.29174,0.01464 -0.58347,0.07663 -0.87521,0.18598c-0.29174,0.10949 -0.51424,0.29555 -0.6675,0.55815c-0.15311,0.26246 -0.22242,0.53963 -0.20793,0.83152c-0.08739,0.45217 -0.0071,0.87521 0.24087,1.26912c0.24797,0.39376 0.61268,0.56876 1.09412,0.52499c0.21869,-0.02913 0.4338,-0.0838 0.64531,-0.16402c0.21152,-0.08022 0.36105,-0.22608 0.44858,-0.4376c0.08754,-0.21152 0.14594,-0.4267 0.17522,-0.64554zM75.94268,186.41125c0.05826,-0.70014 0.08014,-1.41491 0.06565,-2.14433c-0.30638,0 -0.60543,0.01098 -0.89717,0.03294c-0.29174,0.02181 -0.58355,0.0838 -0.87543,0.18598c-0.29174,0.10203 -0.51416,0.28434 -0.66727,0.54695c-0.15326,0.26261 -0.22989,0.5471 -0.22989,0.85347c-0.0729,0.43753 0.01105,0.85325 0.25185,1.24716c0.24065,0.39391 0.60894,0.57623 1.10488,0.54695c0.2042,-0.02913 0.41206,-0.0838 0.62358,-0.16402c0.21152,-0.08022 0.36105,-0.22608 0.44858,-0.4376c0.08754,-0.21152 0.14594,-0.43402 0.17522,-0.6675zM242.50542,176.69589h3.54475v-1.05043h-3.54475zM242.50542,180.15326h3.54475v-1.02847h-3.54475zM235.76591,176.69589h3.36975v-1.05043h-3.36975zM235.76591,179.12479v1.02847h3.36975v-1.02847zM217.0352,186.03929v0.63456h2.8665v-0.63456zM219.9017,184.35453v-0.63456h-2.8665v0.63456zM222.00233,179.03718v0.48152h2.8665v-0.48152zM212.33067,179.03718v0.48152h2.84454v-0.48152zM222.00233,177.35241h2.8665v-0.4376h-2.8665zM215.17521,177.35241v-0.4376h-2.84454v0.4376z"/></g></g></svg>