<svg version="1.1" xmlns="http://www.w3.org/2000/svg" xmlns:xlink="http://www.w3.org/1999/xlink" width="303.60571" height="26.77759" viewBox="0,0,303.60571,26.77759"><g transform="translate(-88.19714,-166.6112)"><g fill="#ffffff" fill-rule="evenodd" stroke="none" stroke-width="0" stroke-linecap="round" stroke-miterlimit="10"><path d="M139.28151,170.23717l4.37791,0.29538c-0.39384,2.36341 -0.67135,4.7359 -0.83251,7.11747c-0.16116,2.38138 -0.11643,4.75387 0.13422,7.11747l1.96068,-0.99396l0.94005,2.68593c0.19692,-1.05647 0.68932,-1.95178 1.47718,-2.68593c0.78787,-0.73415 1.68318,-1.27577 2.68593,-1.62487c1.00257,-0.34911 2.04108,-0.54153 3.11553,-0.57729c-0.12542,-1.4505 -0.26871,-2.9098 -0.42987,-4.37791l-6.2041,0.48322l-0.32234,-4.37791l6.09683,-0.48322l-0.72525,-5.02257l4.75387,-0.32234l0.21507,5.02257l5.15679,-0.40291l0.2148,4.37791l-5.13011,0.4296c0.12542,1.64742 0.22397,3.28576 0.29565,4.91504c2.20224,0.3403 4.36873,0.83278 6.49948,1.47746l-1.66503,4.29732c-1.57573,-0.59095 -3.16934,-1.13706 -4.78082,-1.63835c0,1.09223 -0.05372,2.04117 -0.16116,2.84682c-0.19692,1.19968 -0.73854,2.18446 -1.62487,2.95435c-0.88632,0.76989 -1.92034,1.1817 -3.10205,1.23543c-1.02072,0.07169 -2.02347,-0.076 -3.00826,-0.44307c-0.98478,-0.36707 -1.77265,-0.98478 -2.3636,-1.85314c-0.59076,-0.86835 -0.91301,-1.83077 -0.96672,-2.88725l-6.28495,3.35728c-0.57297,-2.25615 -0.94454,-4.55704 -1.11469,-6.90266c-0.16997,-2.34562 -0.19234,-4.69126 -0.06711,-7.03688c0.12542,-2.34562 0.4119,-4.67329 0.85947,-6.98298zM89.83549,180.25509l-0.24175,-3.49149l6.98325,-0.29538l-0.26871,-2.44418l-7.92302,0.18812l-0.18812,-3.59903l7.76213,-0.37597l-0.24175,-2.33664l4.45849,-0.29565l0.18785,2.41722l7.30559,-0.34901l0.13422,4.00194l-7.14414,0.24175l0.18785,2.41722l6.0432,-0.26871l0.18785,3.51844l-5.96235,0.2148c0.07151,0.78787 0.1431,1.69216 0.2148,2.71288c2.5068,0.51926 5.02248,1.28915 7.54706,2.30969l-2.01431,4.40485c-1.86212,-1.23561 -3.67952,-2.16676 -5.45216,-2.79347c-0.01797,0.967 -0.0627,1.80859 -0.13422,2.52476c-0.21489,1.19968 -0.83719,2.13972 -1.86689,2.82014c-1.02953,0.68042 -2.12615,1.03851 -3.28989,1.07426c-0.85955,0.05372 -1.71462,0 -2.56519,-0.16116c-0.85039,-0.16116 -1.64714,-0.47451 -2.39028,-0.94005c-0.74312,-0.46553 -1.32509,-1.08774 -1.74588,-1.86662c-0.4208,-0.77888 -0.62221,-1.60699 -0.60424,-2.48433c-0.07169,-1.36084 0.39384,-2.4307 1.3966,-3.20958c1.00276,-0.77888 2.11295,-1.31161 3.3306,-1.59819c1.21746,-0.28639 2.42602,-0.46544 3.6257,-0.53713c-0.05372,-0.76989 -0.12532,-1.4682 -0.2148,-2.09489zM289.5266,175.60875l-0.2148,-4.19006l7.14441,-0.37597l1.53081,-3.70629l4.18979,0.53713l-1.36964,2.92741l4.88808,-0.26843l-0.2148,4.18979l-6.6876,0.34928l-1.12816,2.39028c1.41457,0.28658 2.69482,0.88641 3.84078,1.79951c1.5398,-0.6267 3.12891,-0.98928 4.76734,-1.08774c1.63826,-0.09846 3.28109,-0.04025 4.92851,0.17464l-0.10753,3.73324c-2.27393,-0.28639 -4.51212,-0.19683 -6.71454,0.26871c0.76989,0.94885 1.53989,1.90678 2.30997,2.87378l-4.37791,1.77256c-0.55519,-0.9131 -1.17299,-1.79043 -1.85342,-2.63203c-0.39384,0.39384 -0.68922,0.8459 -0.88614,1.35617c-0.19711,0.51046 -0.21058,1.0297 -0.04043,1.55776c0.17015,0.52824 0.49698,0.92666 0.98048,1.19527c0.53704,0.23286 1.09654,0.37166 1.6785,0.41639c0.58196,0.04474 1.16392,0.05812 1.74588,0.04015c0.58196,-0.01778 1.16832,-0.06253 1.75908,-0.13422l-0.10726,4.29732c-2.22039,0.41181 -4.42283,0.34021 -6.60729,-0.2148c-1.5398,-0.41181 -2.57381,-1.32499 -3.10205,-2.73956c-0.52824,-1.41457 -0.58645,-2.83362 -0.17464,-4.25717c0.41181,-1.42337 1.10122,-2.69913 2.06822,-3.8273c-1.77265,-0.78787 -3.62589,-1.1101 -5.5597,-0.96672l2.41722,-5.7745zM193.40108,182.00097l6.71454,-7.60097l3.16916,3.51844l-11.44174,11.79075c-1.55776,-1.4681 -2.68574,-3.22279 -3.38395,-5.26404c-0.69839,-2.04126 -0.78346,-4.10939 -0.25523,-6.20437c0.52824,-2.09499 1.57124,-3.88551 3.129,-5.37158c1.55776,-1.48626 3.38414,-2.50689 5.47912,-3.06189c1.73689,-0.46553 3.52293,-0.58636 5.35811,-0.36249c1.83535,0.22369 3.48718,0.90411 4.95546,2.04126c1.46828,1.13697 2.56051,2.55144 3.27669,4.24342c0.71618,1.69216 1.10112,3.44244 1.15485,5.25084c0.01797,1.62945 -0.16557,3.23205 -0.55061,4.80778c-0.38485,1.57554 -1.00706,3.03485 -1.86662,4.37791l-5.291,-2.22938c0.66245,-1.05647 1.1862,-2.19345 1.57124,-3.41091c0.38485,-1.21765 0.59525,-2.46205 0.63119,-3.73324c-0.05372,-1.1102 -0.27759,-2.18006 -0.67162,-3.20958c-0.39384,-1.0297 -0.96681,-1.94739 -1.71893,-2.75304c-0.59076,-0.6267 -1.29355,-1.07436 -2.10837,-1.34297c-0.81464,-0.26861 -1.64724,-0.32683 -2.49781,-0.17464c-0.85039,0.15218 -1.63376,0.42529 -2.35012,0.81931c-0.96681,0.50128 -1.84416,1.14586 -2.63203,1.93372c-0.78787,0.78787 -1.2489,1.7324 -1.38312,2.83362c-0.1344,1.10122 0.10286,2.13523 0.71177,3.10205zM111.3221,175.90414l-0.2148,-4.45849c4.20776,-0.34012 8.43348,-0.6266 12.67717,-0.85947c-0.07169,-0.89531 -0.15228,-1.79951 -0.24175,-2.7126l4.88808,-0.29538c0,0.96681 0.01787,1.93372 0.05363,2.90072c2.1487,0 4.31529,0.01787 6.49975,0.05363l0.08059,4.45849h-0.05363l1.15485,3.6257l-2.25606,0.32234l-1.1818,-4.02862c-1.43235,-0.05372 -2.84691,-0.08059 -4.24369,-0.08059c-0.01778,1.64724 -0.08939,3.29456 -0.2148,4.94199c0.3403,0.80565 0.56418,1.77247 0.67162,2.90045c0.10726,1.21765 0.09378,2.4263 -0.04043,3.62597c-0.13422,1.19968 -0.32224,2.39037 -0.56409,3.57207c-0.24166,1.18189 -0.52365,2.3547 -0.84599,3.51844l-5.0762,-0.4296c0.53722,-1.37881 1.02962,-2.78439 1.47718,-4.21674c-0.60873,0.44757 -1.27118,0.74295 -1.98735,0.88614c-0.8238,0.23286 -1.61616,0.19261 -2.37707,-0.12074c-0.76091,-0.31335 -1.37413,-0.80574 -1.83967,-1.47718c-0.46553,-0.67143 -0.80574,-1.3966 -1.02063,-2.17547c-0.21489,-0.77888 -0.30445,-1.57124 -0.26871,-2.37707c-0.01797,-1.12799 0.21031,-2.22022 0.68482,-3.27669c0.47451,-1.05647 1.19078,-1.91145 2.1488,-2.56492c0.95783,-0.65365 2.01871,-1.00734 3.18263,-1.06106c0.64466,-0.01778 1.25349,0.01806 1.82647,0.10753c-0.03593,-0.57297 -0.07178,-1.16383 -0.10753,-1.77256c-4.29723,0.21489 -8.56769,0.54612 -12.81138,0.99368zM215.10249,178.72428l-0.40291,-5.26432l24.14558,-3.1422l1.20847,3.38395l-8.97061,10.87766c1.43253,1.07426 2.9187,2.29182 4.45849,3.65266l-3.46454,3.6796c-1.61167,-1.52201 -3.26798,-2.88285 -4.96894,-4.08253c-2.18446,-1.52183 -4.49424,-3.02587 -6.92935,-4.51212l2.87378,-3.97499c1.48626,0.89531 2.85599,1.73689 4.1092,2.52476l4.53907,-5.72087zM265.30043,181.57137l4.83445,-14.42305l5.18374,0.77888l-1.6653,4.51212l10.12573,-0.88614l1.98735,2.84682l-10.55532,18.82763l-4.29732,-2.09489l8.46043,-15.28224l-7.22473,0.56409l-2.22938,6.01625zM370.79975,175.68934l-0.37597,-4.61966c4.18979,-0.50128 8.47812,-0.93107 12.86501,-1.28934c2.8471,-0.12523 5.64037,-0.12523 8.37985,0l0.13422,4.72719c-0.59076,-0.05372 -1.28008,-0.10745 -2.06794,-0.16116c-1.8801,1.14595 -3.62589,2.40834 -5.23737,3.78715c-0.59095,0.51926 -1.15054,1.07426 -1.67877,1.66503c-0.52824,0.59095 -0.98478,1.24451 -1.36964,1.96068c-0.38504,0.71618 -0.58645,1.49506 -0.60424,2.33664c0.03576,0.50147 0.22369,0.91328 0.56381,1.23543c0.3403,0.32234 0.70288,0.57756 1.08774,0.76568c0.38504,0.18793 0.77448,0.3535 1.16832,0.4967c0.39403,0.14338 0.79694,0.27768 1.20875,0.40291c1.25339,0.3403 2.4352,0.57307 3.5454,0.6983l-2.73956,4.67329c-1.52201,-0.37587 -3.053,-0.89512 -4.59297,-1.55776c-0.73396,-0.34012 -1.44564,-0.72057 -2.13505,-1.14137c-0.68941,-0.4208 -1.30721,-0.92217 -1.85342,-1.50413c-0.54603,-0.58196 -0.88174,-1.27577 -1.00715,-2.08142c-0.17895,-1.57573 0.05382,-3.07977 0.6983,-4.51212c0.64466,-1.43253 1.49973,-2.72627 2.56519,-3.8812c1.06528,-1.15493 2.42163,-2.33224 4.06905,-3.53192c-2.5068,0.07169 -4.77193,0.24633 -6.79541,0.52393c-2.0233,0.27741 -3.96601,0.61313 -5.82813,1.00715zM324.01271,184.65994v-16.51794h15.36282v16.51794h-4.08225v-1.1818h-1.74588v9.26626h-3.78715v-9.26626h-1.85314v1.1818zM345.92891,169.99542l5.72087,0.32234c-0.42978,1.75468 -0.83261,3.60783 -1.20847,5.55942c-0.37605,1.95178 -0.65365,3.91247 -0.83278,5.88204c-0.07151,0.68042 0.02705,1.34297 0.29565,1.98763c0.26843,0.64449 0.70261,1.14137 1.30254,1.49065c0.59974,0.34911 1.23094,0.53264 1.89357,0.55061c0.66245,0.01778 1.31601,-0.07178 1.96068,-0.26871c0.89512,-0.34012 1.73662,-0.75193 2.52448,-1.23543c0.78787,-0.4835 1.56674,-0.98937 2.33664,-1.51761c0.77008,-0.52824 1.5221,-1.07436 2.25606,-1.63835c0.73415,-0.56399 1.3877,-1.07875 1.96068,-1.54429l2.47113,5.0762c-1.09223,0.71618 -2.25166,1.42795 -3.47829,2.13532c-1.22645,0.70719 -2.47085,1.36075 -3.73324,1.96068c-1.26238,0.59974 -2.56501,1.06079 -3.90788,1.38312c-1.19968,0.25064 -2.39486,0.35808 -3.58555,0.32234c-1.19069,-0.03593 -2.35012,-0.25981 -3.47829,-0.67162c-0.80565,-0.32215 -1.51284,-0.79217 -2.12157,-1.41007c-0.60892,-0.61772 -1.04318,-1.33838 -1.30281,-2.162c-0.25962,-0.82362 -0.38046,-1.68309 -0.36249,-2.57839c0.03576,-4.61957 0.46544,-9.16752 1.28906,-13.64389zM321.00444,178.77791l1.98763,-0.45655l0.51018,3.65266l-2.49781,0.61772v5.90899c0,0.9131 -0.08947,1.61139 -0.26843,2.09489c-0.17913,0.4835 -0.51036,0.86845 -0.99368,1.15485c-0.77008,0.4835 -2.16676,0.72525 -4.19006,0.72525c-0.10745,-1.00276 -0.45655,-2.18455 -1.04731,-3.5454c0.57297,0.01797 1.30703,0.02695 2.20216,0.02695c0.17913,0 0.30006,-0.03135 0.36276,-0.09406c0.0627,-0.0627 0.09406,-0.18354 0.09406,-0.36249v-4.94199l-2.17575,0.53713l-0.96672,-3.84078c0.80565,-0.1432 1.85314,-0.34911 3.14247,-0.61772v-4.27037h-2.79347v-3.6796h2.79347v-5.0762h3.8405v5.0762h2.41722v3.6796h-2.41722zM166.73073,175.76993l-0.45655,-4.67329c1.70096,-0.26861 3.41989,-0.49249 5.15679,-0.67162c1.73672,-0.17895 3.47801,-0.29529 5.22389,-0.34901c1.7457,-0.05372 3.487,0.02686 5.22389,0.24175l0.6983,3.6257l-7.06384,5.82841l-2.92741,-3.08885l2.60535,-1.93372c-2.8471,0.05372 -5.66724,0.39393 -8.46043,1.02063zM242.79319,182.48447l0.10753,-4.94199l18.93517,-0.4296l-0.13449,5.04925zM166.35477,190.08544l0.29538,-4.59297c2.61424,0.41181 5.26423,0.60882 7.94998,0.59103c2.9903,-0.05372 5.9805,-0.3492 8.97061,-0.88641l0.18812,4.94199c-3.13349,0.50128 -6.27587,0.74303 -9.42716,0.72525c-2.70372,0 -5.36269,-0.25962 -7.97693,-0.77888zM122.60267,185.81479c0.44757,-0.01778 0.78328,-0.20132 1.00715,-0.55061c0.22369,-0.34911 0.37138,-0.72057 0.44307,-1.11442c0.19692,-1.27137 0.27751,-2.56959 0.24175,-3.89468c-0.17913,-0.23268 -0.42978,-0.41172 -0.75193,-0.53713c-0.94903,-0.23268 -1.71902,-0.0044 -2.30997,0.68482c-0.59076,0.68941 -0.85928,1.47278 -0.80556,2.35012c0.01778,0.37605 0.04456,0.74762 0.08031,1.11469c0.03593,0.36707 0.13449,0.71626 0.29565,1.04759c0.16116,0.33114 0.41181,0.56839 0.75193,0.71177c0.3403,0.1432 0.68949,0.20582 1.04759,0.18785zM97.35587,188.04417c0.07151,-0.80584 0.09837,-1.62955 0.08059,-2.47113c-0.08966,-0.01778 -0.17024,-0.02668 -0.24175,-0.02668c-0.51926,0.01778 -1.05198,0.04464 -1.59819,0.08059c-0.54603,0.03576 -1.06079,0.19243 -1.54429,0.47002c-0.4835,0.27741 -0.72525,0.72057 -0.72525,1.32949c-0.08947,0.64449 0.09406,1.17263 0.55061,1.58444c0.45673,0.41181 0.99845,0.56399 1.62514,0.45655c0.26843,-0.03576 0.55042,-0.08498 0.84599,-0.14769c0.29538,-0.06253 0.53264,-0.2147 0.71177,-0.45655c0.17895,-0.24166 0.27741,-0.51467 0.29538,-0.81904zM153.22106,187.80242c0.07151,-0.85955 0.09837,-1.73699 0.08059,-2.6323c-0.37605,0 -0.74312,0.01348 -1.10122,0.04043c-0.35808,0.02677 -0.71618,0.10286 -1.07426,0.22827c-0.35827,0.12542 -0.63137,0.3492 -0.81931,0.67135c-0.18793,0.32234 -0.2819,0.67153 -0.2819,1.04759c-0.08966,0.53722 0.01329,1.04749 0.30886,1.53081c0.29538,0.4835 0.74744,0.70738 1.35617,0.67162c0.25082,-0.03576 0.50605,-0.10295 0.76568,-0.2016c0.25962,-0.09846 0.44316,-0.27751 0.55061,-0.53713c0.10726,-0.25962 0.17886,-0.53264 0.2148,-0.81904zM132.75508,179.04662l-2.17547,0.32234l-1.20875,-3.86772l2.12185,-0.34901zM327.90711,177.59612v2.28301h1.85314v-2.28301zM329.76025,173.99709v-2.2291h-1.85314v2.2291zM333.5474,177.59612v2.28301h1.74588v-2.28301zM333.5474,173.99709h1.74588v-2.2291h-1.74588z"/></g></g></svg>