<svg version="1.1" xmlns="http://www.w3.org/2000/svg" xmlns:xlink="http://www.w3.org/1999/xlink" width="216.61187" height="25.0121" viewBox="0,0,216.61187,25.0121"><g transform="translate(-138.06581,-166.09703)"><g fill="#ffffff" fill-rule="evenodd" stroke="none" stroke-width="0" stroke-linecap="round" stroke-miterlimit="10"><path d="M164.91854,169.37475l4.10986,0.27755c-0.3699,2.21871 -0.63041,4.44585 -0.78154,6.68143c-0.1513,2.23575 -0.1093,4.46298 0.126,6.68168l1.84063,-0.93284l0.88249,2.52148c0.18486,-0.99179 0.64711,-1.83228 1.38674,-2.52148c0.73963,-0.68919 1.58003,-1.19765 2.52122,-1.52538c0.94136,-0.32773 1.91637,-0.50846 2.92503,-0.5422c-0.11773,-1.36152 -0.25225,-2.73147 -0.40355,-4.10986l-5.82449,0.4539l-0.30234,-4.10986l5.72354,-0.4539l-0.68085,-4.7148l4.4628,-0.3026l0.20165,4.7148l4.84105,-0.37799l0.20165,4.10986l-4.81575,0.40329c0.11773,1.54638 0.21017,3.08442 0.2773,4.6141c2.06758,0.31947 4.10151,0.78171 6.10179,1.38674l-1.56334,4.03421c-1.47908,-0.55459 -2.97503,-1.06727 -4.48785,-1.53803c0,1.02536 -0.05043,1.91628 -0.1513,2.67278c-0.18486,1.12622 -0.69332,2.05071 -1.52538,2.77347c-0.83206,0.72276 -1.80285,1.10935 -2.91238,1.15979c-0.95805,0.0673 -1.89933,-0.07135 -2.82382,-0.41594c-0.92449,-0.3446 -1.66412,-0.92449 -2.21888,-1.73968c-0.55476,-0.81536 -0.85736,-1.71885 -0.90779,-2.71047l-5.89989,3.15172c-0.53789,-2.11801 -0.88671,-4.27803 -1.04644,-6.48004c-0.15973,-2.20201 -0.18073,-4.40402 -0.063,-6.60603c0.11773,-2.20201 0.38668,-4.38724 0.80684,-6.55569zM311.88976,178.77956l-0.22695,-3.27771l6.55569,-0.2773l-0.25225,-2.29453l-7.43792,0.17634l-0.1766,-3.37841l7.28688,-0.3532l-0.22695,-2.19358l4.18551,-0.2773l0.17634,2.26923l6.85828,-0.32764l0.126,3.75666l-6.70673,0.22695l0.17634,2.26923l5.6732,-0.25199l0.1766,3.30302l-5.59755,0.20165c0.06713,0.73963 0.13434,1.58847 0.20165,2.54652c2.35331,0.48746 4.71497,1.21031 7.08498,2.16853l-1.89098,4.1349c-1.74811,-1.15979 -3.45423,-2.03384 -5.11835,-2.62217c-0.01687,0.90762 -0.05887,1.69768 -0.126,2.37018c-0.20173,1.12622 -0.78584,2.00871 -1.75233,2.64747c-0.96666,0.63876 -1.99623,0.97492 -3.08872,1.00849c-0.80693,0.05043 -1.60955,0 -2.40787,-0.1513c-0.79849,-0.1513 -1.54655,-0.44546 -2.24418,-0.88249c-0.69763,-0.43703 -1.24387,-1.02114 -1.63873,-1.75233c-0.39503,-0.73119 -0.5842,-1.5086 -0.5675,-2.33222c-0.06713,-1.27752 0.3699,-2.28188 1.31109,-3.01307c0.94136,-0.73119 1.98358,-1.23131 3.12667,-1.50034c1.14292,-0.26886 2.27749,-0.43694 3.40371,-0.50424c-0.05043,-0.72276 -0.11765,-1.3783 -0.20165,-1.96663zM213.05176,170.13124v3.58031h-6.98428v2.14323h6.30344v3.40397h-6.30344v2.31957h6.63134v3.47962h-6.63134v5.44599h-3.88291v-16.79238h-0.4792c-1.07579,1.93315 -2.16836,3.53005 -3.27771,4.7907c-0.3026,-0.35303 -0.75228,-0.80271 -1.34904,-1.34904c-0.59659,-0.54633 -1.09662,-0.97071 -1.50008,-1.27313c1.10935,-1.10953 2.14314,-2.53413 3.10137,-4.27381c0.95805,-1.73985 1.72281,-3.54262 2.29427,-5.40829l3.63092,0.95814c-0.26903,0.82362 -0.65563,1.81533 -1.15979,2.97512zM332.3634,174.695l-0.20165,-4.16021c3.95013,-0.33633 7.92547,-0.60528 11.92603,-0.80684c-0.084,-0.84049 -0.168,-1.68942 -0.25199,-2.54678l4.6141,-0.2773l0.05035,2.72312c2.01715,0 4.04264,0.01678 6.07649,0.05035l0.10095,4.16021c-2.06758,-0.06713 -4.12673,-0.10913 -6.17744,-0.126c0,1.54655 -0.07565,3.09302 -0.22695,4.63941c0.31947,0.75632 0.53798,1.6556 0.65554,2.69782c0.08417,1.14309 0.06739,2.27775 -0.05035,3.40397c-0.11773,1.12622 -0.29003,2.24401 -0.5169,3.35336c-0.22686,1.10935 -0.49159,2.21036 -0.79419,3.30302l-4.7907,-0.40329c0.52103,-1.27752 0.99171,-2.59713 1.41204,-3.95882c-0.58833,0.42033 -1.21865,0.69771 -1.89098,0.83214c-0.77336,0.2186 -1.51721,0.18082 -2.23153,-0.11335c-0.71432,-0.29416 -1.29,-0.75641 -1.72703,-1.38674c-0.43703,-0.6305 -0.75641,-1.30713 -0.95814,-2.02989c-0.20173,-0.72276 -0.28582,-1.47073 -0.25225,-2.24392c-0.01687,-1.05892 0.19743,-2.08428 0.64289,-3.07607c0.44546,-0.99179 1.11787,-1.79029 2.01723,-2.39548c0.89919,-0.60502 1.89511,-0.93275 2.98777,-0.98319c0.62189,-0.01687 1.19344,0.0167 1.71464,0.10069l-0.10095,-1.66403c-4.01743,0.20173 -8.02642,0.50433 -12.02698,0.90779zM138.41876,174.49335l-0.35294,-4.33681c3.93343,-0.47077 7.9592,-0.87423 12.07733,-1.21039c2.67278,-0.11756 5.29503,-0.11756 7.86677,0l0.126,4.43776c-0.55459,-0.05043 -1.2017,-0.10087 -1.94133,-0.1513c-1.76498,1.07579 -3.40388,2.26079 -4.9167,3.55501c-0.55476,0.48746 -1.08009,1.00857 -1.57599,1.56334c-0.49572,0.55476 -0.92432,1.16831 -1.28578,1.84063c-0.36147,0.67233 -0.55055,1.40352 -0.56724,2.19358c0.03356,0.47059 0.20999,0.85719 0.52929,1.15979c0.31947,0.3026 0.65985,0.54211 1.02114,0.71854c0.36147,0.1766 0.72715,0.33212 1.09705,0.46655c0.36973,0.13443 0.74789,0.26051 1.13448,0.37825c1.17666,0.31929 2.28609,0.53781 3.32832,0.65554l-2.57182,4.38715c-1.42882,-0.35303 -2.86599,-0.84049 -4.3115,-1.46238c-0.68919,-0.31929 -1.35739,-0.67646 -2.00458,-1.07149c-0.64719,-0.39503 -1.22709,-0.86571 -1.73968,-1.41204c-0.51276,-0.54633 -0.82801,-1.19765 -0.94575,-1.95398c-0.168,-1.47925 0.05061,-2.89129 0.6558,-4.23611c0.60502,-1.34465 1.40765,-2.55909 2.40787,-3.64331c1.00005,-1.08422 2.27336,-2.18945 3.81991,-3.31567c-2.35331,0.0673 -4.47967,0.23117 -6.37909,0.49159c-1.89959,0.2606 -3.72344,0.57585 -5.47155,0.94575zM238.21516,174.49335l-0.3532,-4.33681c3.93343,-0.47077 7.95929,-0.87423 12.07758,-1.21039c2.6726,-0.11756 5.29486,-0.11756 7.86677,0l0.126,4.43776c-0.55476,-0.05043 -1.20196,-0.10087 -1.94158,-0.1513c-1.76498,1.07579 -3.40388,2.26079 -4.9167,3.55501c-0.55459,0.48746 -1.07983,1.00857 -1.57573,1.56334c-0.4959,0.55476 -0.92458,1.16831 -1.28604,1.84063c-0.36129,0.67233 -0.55037,1.40352 -0.56724,2.19358c0.03356,0.47059 0.21008,0.85719 0.52955,1.15979c0.31929,0.3026 0.65967,0.54211 1.02114,0.71854c0.36147,0.1766 0.72706,0.33212 1.09679,0.46655c0.36973,0.13443 0.74797,0.26051 1.13474,0.37825c1.17648,0.31929 2.28584,0.53781 3.32806,0.65554l-2.57182,4.38715c-1.42882,-0.35303 -2.86599,-0.84049 -4.3115,-1.46238c-0.68919,-0.31929 -1.35739,-0.67646 -2.00458,-1.07149c-0.64702,-0.39503 -1.22692,-0.86571 -1.73968,-1.41204c-0.51259,-0.54633 -0.82776,-1.19765 -0.94549,-1.95398c-0.16817,-1.47925 0.05035,-2.89129 0.65554,-4.23611c0.6052,-1.34465 1.40782,-2.55909 2.40787,-3.64331c1.00023,-1.08422 2.27353,-2.18945 3.81991,-3.31567c-2.35331,0.0673 -4.47967,0.23117 -6.37909,0.49159c-1.89941,0.2606 -3.72318,0.57585 -5.47129,0.94575zM291.51707,172.80402l-0.07565,-3.65622l5.62259,-0.2773c-0.11756,-0.60502 -0.24364,-1.22692 -0.37825,-1.86568l4.84105,-0.12625c0.1346,0.58833 0.23547,1.18509 0.3026,1.79029l4.00916,-0.1766l0.02504,3.65622l-3.58031,0.17634c0.0673,0.75649 0.14295,1.52969 0.22695,2.31957l3.68126,-0.17634l0.0253,3.65596l-3.42927,0.1766c0.10087,1.88254 0.14295,3.74831 0.12625,5.59729l-6.22804,-0.47894l-0.10069,-2.52148h1.73968v-2.42053l-6.48004,0.3026l-0.126,-3.70631l6.37909,-0.25225c0,-0.168 -0.00835,-0.31929 -0.02504,-0.4539c-0.0673,-0.53789 -0.15982,-1.15144 -0.27755,-1.84063zM215.62359,180.29229l-0.50424,-4.38715c2.00028,-0.65546 4.04256,-1.15548 6.12683,-1.50008c2.08428,-0.3446 4.18542,-0.49168 6.30344,-0.44125c0.99179,0 1.95837,0.2143 2.89973,0.64289c0.94119,0.42859 1.67651,1.08414 2.20597,1.96663c0.52963,0.88249 0.81967,1.83642 0.8701,2.86177c0.05043,1.02536 -0.0673,2.01715 -0.3532,2.97537c-0.42016,1.17666 -1.02527,2.24401 -1.81533,3.20206c-0.79006,0.95805 -1.66833,1.82376 -2.63482,2.59713c-0.96649,0.77319 -1.97928,1.44552 -3.03837,2.01698l-3.75666,-2.59713c0.60502,-0.36973 1.19748,-0.75211 1.77738,-1.14714c0.58007,-0.39503 1.14739,-0.80684 1.70198,-1.23544c0.55476,-0.42859 1.08431,-0.89084 1.58864,-1.38674c0.50416,-0.4959 0.91597,-1.06322 1.23544,-1.70198c0.18486,-0.47059 0.28986,-0.95805 0.31499,-1.46238c0.0253,-0.50433 -0.07548,-0.98757 -0.30234,-1.44973c-0.22703,-0.46233 -0.57163,-0.80693 -1.03379,-1.03379c-0.46233,-0.22703 -0.93723,-0.32368 -1.42469,-0.28995c-1.17666,0.084 -2.33231,0.25208 -3.46697,0.50424c-1.13448,0.25216 -2.26071,0.53368 -3.37867,0.84454c-1.11779,0.31103 -2.22292,0.65141 -3.31541,1.02114zM193.81355,166.09703l3.63066,1.15979c-0.68902,1.84898 -1.47899,3.59718 -2.36992,5.2446v17.97747h-3.80726v-12.17828c-0.2186,0.26886 -0.58007,0.67224 -1.0844,1.21013c-0.168,-0.50433 -0.46629,-1.19352 -0.89488,-2.06758c-0.42877,-0.87406 -0.8028,-1.53803 -1.12209,-1.99193c1.12622,-1.12605 2.19358,-2.52535 3.20206,-4.1979c1.00866,-1.67255 1.82394,-3.39132 2.44583,-5.1563zM263.30291,171.44233l4.68975,0.65554c-0.5212,2.50461 -0.76493,5.31173 -0.73119,8.42136l1.99167,-2.87416l3.65622,1.96663l-6.12709,6.93368l-3.07607,-1.33639c-0.28573,-0.87406 -0.46225,-1.79855 -0.52955,-2.77347c-0.168,-1.84898 -0.22678,-3.71474 -0.17634,-5.59729c0.05043,-1.88272 0.1513,-3.68135 0.3026,-5.3959zM277.90171,172.07283l4.2862,-0.85745c0.40346,1.93315 0.79849,3.89986 1.18509,5.90014c0.3866,2.26914 0.68919,4.47115 0.90779,6.60603l-4.66471,0.47894c-0.20173,-2.00028 -0.43703,-4.06777 -0.70589,-6.20248c-0.3026,-2.01715 -0.63876,-3.99221 -1.00849,-5.92519zM287.86111,183.82225l3.00042,-2.42053c1.07579,1.00866 2.19358,1.95845 3.35336,2.84938c1.42882,1.02536 2.96685,1.86576 4.6141,2.52122c-0.48746,0.55476 -0.96227,1.12209 -1.42443,1.70198c-0.46233,0.57989 -0.87001,1.18922 -1.22304,1.82798c-1.66412,-0.90762 -3.25258,-1.92454 -4.7654,-3.05077c-1.31109,-1.00866 -2.49609,-2.15175 -3.55501,-3.42927zM343.00365,183.99885c0.3866,-0.01687 0.69332,-0.18495 0.92019,-0.50424c0.22703,-0.31947 0.36577,-0.66406 0.4162,-1.03379c0.20173,-1.21022 0.27738,-2.42887 0.22695,-3.65596c-0.18504,-0.2353 -0.42877,-0.40338 -0.73119,-0.50424c-0.87406,-0.2186 -1.58847,-0.0043 -2.14323,0.64289c-0.55476,0.64719 -0.80693,1.3826 -0.75649,2.20623c0,0.35303 0.01687,0.69763 0.05061,1.03379c0.03356,0.33616 0.126,0.65967 0.2773,0.97053c0.1513,0.31103 0.39081,0.53376 0.71854,0.66819c0.32773,0.1346 0.66811,0.19347 1.02114,0.1766zM161.94317,178.32566l-2.01698,0.6305l-1.48769,-4.18551l1.86593,-0.68085zM318.94969,186.09148c0.0673,-0.75632 0.09252,-1.52951 0.07565,-2.31957c-0.084,-0.01687 -0.15965,-0.0253 -0.22695,-0.0253c-0.48746,0.01687 -0.98757,0.04208 -1.50034,0.07565c-0.51259,0.03374 -0.99584,0.18082 -1.44973,0.44125c-0.45372,0.2606 -0.68059,0.67663 -0.68059,1.24809c-0.08417,0.6052 0.08804,1.10109 0.51664,1.48769c0.42877,0.3866 0.93731,0.52946 1.52564,0.42859c0.25216,-0.03356 0.5169,-0.07978 0.79419,-0.13865c0.2773,-0.05887 0.50003,-0.20173 0.66819,-0.42859c0.168,-0.22686 0.26043,-0.48324 0.2773,-0.76915zM158.66546,179.38475l-1.94133,0.63024l-1.51299,-4.05925l1.81559,-0.68085zM178.00462,185.86479c0.06713,-0.80693 0.09226,-1.63064 0.07539,-2.47113c-0.35286,0 -0.69737,0.01265 -1.03353,0.03795c-0.33633,0.02513 -0.67258,0.09656 -1.00875,0.2143c-0.33616,0.11756 -0.59246,0.32764 -0.76889,0.63024c-0.1766,0.3026 -0.2649,0.63041 -0.2649,0.98344c-0.084,0.50416 0.01265,0.98319 0.28995,1.43708c0.27747,0.4539 0.70193,0.66406 1.27339,0.6305c0.2353,-0.03374 0.47481,-0.09682 0.71854,-0.18925c0.24373,-0.09243 0.41603,-0.26051 0.5169,-0.50424c0.10087,-0.24373 0.16817,-0.50003 0.2019,-0.76889z"/></g></g></svg>