<svg version="1.1" xmlns="http://www.w3.org/2000/svg" xmlns:xlink="http://www.w3.org/1999/xlink" width="310.17578" height="29.83746" viewBox="0,0,310.17578,29.83746"><g transform="translate(-84.91211,-165.08127)"><g fill="#ffffff" fill-rule="evenodd" stroke="none" stroke-width="0" stroke-linecap="round" stroke-miterlimit="10"><path d="M310.16548,175.23299l4.44324,1.05944c-1.29487,4.00191 -3.02122,7.51338 -5.17906,10.5344c0.72578,1.82438 1.44181,2.73657 2.1481,2.73657c0.58858,0 0.95146,-1.7361 1.08866,-5.20829c1.13778,1.15746 2.37369,1.99121 3.70772,2.50125c-0.21574,1.9421 -0.53946,3.43292 -0.97115,4.47247c-0.43149,1.03975 -0.96603,1.74604 -1.60362,2.11887c-0.63759,0.37263 -1.50559,0.55895 -2.60399,0.55895c-1.90293,0 -3.54099,-1.15736 -4.9142,-3.47209c-1.35352,1.35352 -2.8346,2.55016 -4.44324,3.58991c-0.33346,-0.47086 -0.82883,-1.08886 -1.4861,-1.85401c-0.65708,-0.76495 -1.22104,-1.35342 -1.6919,-1.76543c2.19721,-1.19664 4.10988,-2.70715 5.73801,-4.53153c-0.96121,-3.17791 -1.63797,-7.14055 -2.03028,-11.88792h-7.82735v2.88362h7.38592c-0.01969,0.70629 -0.02953,1.21632 -0.02953,1.5301c-0.03917,3.29582 -0.12254,5.64992 -0.25009,7.0623c-0.12756,1.41238 -0.36781,2.354 -0.72075,2.82486c-0.5494,0.72578 -1.30471,1.17695 -2.26592,1.35352c-0.66692,0.11772 -1.81454,0.17657 -3.44287,0.17657c-0.05886,-1.3929 -0.43159,-2.71709 -1.11819,-3.97258c-0.47066,3.68814 -1.41228,6.60129 -2.82486,8.73944c-0.39232,-0.45117 -0.99063,-1.01022 -1.79495,-1.67714c-0.80432,-0.66712 -1.45165,-1.11829 -1.942,-1.35352c0.6866,-1.09861 1.22114,-2.47674 1.60362,-4.13439c0.38267,-1.65765 0.60826,-3.09464 0.67676,-4.31096c0.0687,-1.21612 0.10305,-2.67762 0.10305,-4.38449v-9.03353h12.18231c-0.05886,-1.3929 -0.08829,-2.77595 -0.08829,-4.14916h4.61982c-0.03917,1.5303 -0.02933,2.91335 0.02953,4.14916h3.38381c-1.09861,-0.84349 -2.09909,-1.53994 -3.00143,-2.08934l2.64829,-2.61876c2.13836,1.15746 3.70772,2.20696 4.7081,3.14848l-1.50057,1.55962h3.17801v4.2962h-9.18087c0.19606,2.33442 0.51967,4.64924 0.97085,6.94449c0.94172,-1.74604 1.70687,-3.6784 2.29544,-5.79707zM203.99771,174.9389l-0.02953,-8.1805l4.88467,-0.26456l-0.08829,9.91639l7.20935,-5.79707l3.91352,1.32429c-0.37263,2.0793 -0.72568,4.15378 -1.05913,6.22343c-0.33366,2.06966 -0.59852,4.13439 -0.79458,6.1942c-0.05886,0.39232 0,0.7552 0.17657,1.08866c0.17657,0.33346 0.4806,0.49045 0.91209,0.47096c0.43169,-0.01969 0.85343,-0.11289 1.26524,-0.27962c0.412,-0.16673 0.81416,-0.34822 1.20648,-0.54448c1.29487,-0.6866 2.57005,-1.41238 3.82554,-2.17733l0.97085,5.06125c-1.74584,1.15726 -3.61924,2.00075 -5.62019,2.53047c-1.23581,0.35315 -2.47664,0.3433 -3.72249,-0.02953c-1.24565,-0.37263 -2.22644,-1.09348 -2.94238,-2.16256c-0.71613,-1.06928 -0.98591,-2.27084 -0.80934,-3.60467c0.19626,-2.47182 0.47096,-4.96322 0.82411,-7.47421l-5.38486,4.7081l-0.11782,12.6825l-4.56106,0.11782l-0.02923,-8.97507c-1.54978,1.88324 -3.01128,3.82534 -4.38449,5.82629l-3.26629,-3.50162c2.39327,-2.80528 4.88467,-5.54185 7.47421,-8.20972l-7.35639,-3.97228l1.32399,-4.44354zM278.70934,189.88701h2.32467c0.45117,0 0.74546,-0.206 0.88286,-0.618c0.1372,-0.4118 0.23523,-1.36316 0.29409,-2.85409c0.84349,0.64723 2.148,1.19654 3.91352,1.64791c-0.21574,2.23619 -0.65215,3.75644 -1.30923,4.56076c-0.65728,0.80432 -1.77055,1.20648 -3.33981,1.20648h-3.44287c-1.92241,0 -3.21226,-0.35797 -3.86953,-1.0739c-0.65708,-0.71613 -0.98561,-2.03541 -0.98561,-3.95782v-5.26735h-3.17801c-0.11772,1.09861 -0.28444,2.05991 -0.50019,2.88392c-0.21594,0.8238 -0.55433,1.65263 -1.01514,2.48648c-0.46102,0.83365 -1.04467,1.56435 -1.75096,2.19209c-0.70629,0.62775 -1.62833,1.21632 -2.7661,1.76573c-1.13778,0.5492 -2.48156,1.02981 -4.03134,1.44181c-0.21574,-0.58858 -0.57371,-1.27518 -1.0739,-2.05981c-0.50019,-0.78483 -0.98571,-1.41258 -1.45657,-1.88324c1.58895,-0.31397 2.88854,-0.69163 3.89876,-1.13296c1.01042,-0.44133 1.78531,-0.97095 2.32467,-1.58885c0.53956,-0.6181 0.91229,-1.22627 1.11819,-1.82448c0.2061,-0.59842 0.36801,-1.35865 0.48573,-2.28068h-6.8562v-4.11933h27.15965v4.11933h-7.91534v5.20859c0,0.51003 0.05886,0.82873 0.17657,0.95608c0.11772,0.12756 0.42175,0.19134 0.91209,0.19134zM348.71286,175.76271l-0.23533,-4.85515c4.60997,-0.39232 9.24937,-0.70619 13.9182,-0.94162c-0.09803,-0.98089 -0.19606,-1.97153 -0.29409,-2.9719l5.38486,-0.32392l0.05876,3.17801c2.3541,0 4.71794,0.01969 7.09153,0.05906l0.11782,4.85515c-2.41296,-0.07854 -4.81607,-0.12756 -7.20935,-0.14704c0,1.8047 -0.08829,3.60939 -0.26486,5.41409c0.37283,0.88286 0.62785,1.93246 0.76505,3.14878c0.09823,1.33384 0.07864,2.65793 -0.05876,3.97228c-0.1372,1.31435 -0.33828,2.61886 -0.60324,3.91352c-0.26476,1.29487 -0.57371,2.57979 -0.92686,3.85477l-5.59097,-0.47066c0.60826,-1.49092 1.15757,-3.03086 1.64791,-4.61982c-0.6866,0.49035 -1.42222,0.81406 -2.20686,0.97115c-0.90235,0.25492 -1.77045,0.21072 -2.6043,-0.13258c-0.83365,-0.3433 -1.50549,-0.88276 -2.01552,-1.61838c-0.51003,-0.73562 -0.88276,-1.52517 -1.11819,-2.36866c-0.23543,-0.84369 -0.33356,-1.71671 -0.29439,-2.61906c-0.01949,-1.23581 0.23071,-2.43244 0.75058,-3.58991c0.51967,-1.15726 1.30431,-2.08904 2.3539,-2.79533c1.04959,-0.70629 2.21188,-1.08886 3.48686,-1.14772c0.72598,-0.01949 1.393,0.01979 2.00106,0.11782l-0.11782,-1.942c-4.68852,0.23523 -9.36719,0.58827 -14.03602,1.05913zM145.79382,170.14252l4.20791,-3.50162c1.39269,2.15784 2.80507,4.28626 4.23714,6.38524c1.13778,1.58895 2.45213,3.02102 3.94305,4.2962c2.29524,-1.47124 4.66893,-2.81502 7.12106,-4.03134l3.50162,4.67857c-2.02064,0.74546 -4.01175,1.56947 -5.97334,2.47202c-1.96178,0.90235 -3.82544,1.97143 -5.59097,3.20723c-0.37263,0.29429 -0.73552,0.59832 -1.08866,0.91209c-0.35315,0.31397 -0.67194,0.6622 -0.95638,1.04467c-0.28444,0.38267 -0.41682,0.81918 -0.39714,1.30953c0.05886,0.33346 0.22067,0.59832 0.48542,0.79458c0.26476,0.19606 0.55412,0.33828 0.8681,0.42667c0.31377,0.08819 0.63739,0.16171 0.97085,0.22057c3.02122,0.43169 5.91478,-0.00964 8.68069,-1.32399l0.47096,5.29658c-3.02122,0.72578 -6.07177,1.00038 -9.15165,0.8238c-0.96121,-0.05886 -1.90765,-0.18632 -2.83932,-0.38237c-0.93188,-0.19626 -1.82941,-0.51013 -2.69258,-0.94162c-0.86318,-0.43169 -1.5547,-1.05461 -2.07458,-1.86878c-0.51987,-0.81396 -0.76013,-1.71139 -0.72075,-2.69228c0.03917,-0.78463 0.24999,-1.51543 0.63247,-2.19239c0.38267,-0.67676 0.82903,-1.29959 1.33906,-1.86848c0.51003,-0.56889 1.05441,-1.10835 1.63315,-1.61838c0.57853,-0.51003 1.18167,-1.01022 1.80942,-1.50057c-1.07892,-1.02006 -2.11857,-2.08924 -3.11895,-3.20754c-1.88324,-2.13816 -3.64877,-4.38428 -5.29658,-6.73839zM229.3627,175.52738l-0.4122,-5.06125c4.59049,-0.5492 9.28885,-1.01996 14.09508,-1.41228c3.11905,-0.1374 6.17924,-0.1374 9.18057,0l0.14734,5.17876c-0.64743,-0.05886 -1.40274,-0.11772 -2.26592,-0.17657c-2.05981,1.25549 -3.97248,2.63855 -5.73801,4.14916c-0.64723,0.56889 -1.26021,1.17695 -1.83895,1.82418c-0.57873,0.64743 -1.07902,1.36347 -1.50087,2.1481c-0.42165,0.78483 -0.64231,1.63817 -0.662,2.56c0.03917,0.5494 0.24517,1.00068 0.618,1.35382c0.37263,0.35294 0.76987,0.63247 1.19171,0.83857c0.42165,0.2059 0.84831,0.38729 1.28,0.54418c0.43149,0.15709 0.87282,0.30423 1.32399,0.44143c1.37321,0.37283 2.66797,0.62785 3.8843,0.76505l-3.00143,5.12031c-1.6675,-0.412 -3.34474,-0.98099 -5.03172,-1.70697c-0.80432,-0.37263 -1.58413,-0.78945 -2.33944,-1.25047c-0.75531,-0.46102 -1.43207,-1.01032 -2.03028,-1.64791c-0.59842,-0.63759 -0.96623,-1.39772 -1.10343,-2.28038c-0.19626,-1.72635 0.05876,-3.37416 0.76505,-4.94343c0.70629,-1.56947 1.64299,-2.98687 2.8101,-4.25221c1.16731,-1.26514 2.65331,-2.55488 4.45801,-3.86923c-2.74642,0.07834 -5.22798,0.26958 -7.44468,0.57371c-2.2167,0.30413 -4.34511,0.67194 -6.38524,1.10343zM319.75826,175.52738l-0.4122,-5.06125c4.59049,-0.5492 9.28885,-1.01996 14.09508,-1.41228c3.11905,-0.1374 6.17924,-0.1374 9.18057,0l0.14734,5.17876c-0.64743,-0.05886 -1.40274,-0.11772 -2.26592,-0.17657c-2.05981,1.25549 -3.97248,2.63855 -5.73801,4.14916c-0.64723,0.56889 -1.26021,1.17695 -1.83895,1.82418c-0.57873,0.64743 -1.07902,1.36347 -1.50087,2.1481c-0.42165,0.78483 -0.64231,1.63817 -0.662,2.56c0.03917,0.5494 0.24517,1.00068 0.618,1.35382c0.37263,0.35294 0.76987,0.63247 1.19171,0.83857c0.42165,0.2059 0.84831,0.38729 1.28,0.54418c0.43149,0.15709 0.87282,0.30423 1.32399,0.44143c1.37321,0.37283 2.66797,0.62785 3.8843,0.76505l-3.00143,5.12031c-1.6675,-0.412 -3.34474,-0.98099 -5.03172,-1.70697c-0.80432,-0.37263 -1.58413,-0.78945 -2.33944,-1.25047c-0.75531,-0.46102 -1.43207,-1.01032 -2.03028,-1.64791c-0.59842,-0.63759 -0.96623,-1.39772 -1.10343,-2.28038c-0.19626,-1.72635 0.05876,-3.37416 0.76505,-4.94343c0.70629,-1.56947 1.64299,-2.98687 2.8101,-4.25221c1.16731,-1.26514 2.65331,-2.55488 4.45801,-3.86923c-2.74642,0.07834 -5.22798,0.26958 -7.44468,0.57371c-2.2167,0.30413 -4.34511,0.67194 -6.38524,1.10343zM119.22235,168.58289l6.0324,0.618c-0.62775,1.88324 -1.19664,3.76648 -1.70667,5.64972c-0.66712,2.55016 -1.30471,5.08073 -1.91277,7.59172c0.60806,-0.43149 1.28974,-0.71593 2.04505,-0.85333c0.75531,-0.1372 1.51543,-0.17637 2.28038,-0.11751c1.00058,0.17637 1.84909,0.62262 2.54554,1.33876c0.69645,0.71593 1.26042,1.51533 1.6919,2.39819c0.2746,0.56889 0.77971,1.03965 1.51533,1.41228c0.73562,0.37283 1.39772,0.48563 1.98629,0.33838c0.58858,-0.14704 1.13788,-0.36771 1.64791,-0.662c0.70609,-0.43149 1.34358,-0.95136 1.91247,-1.55962c0.56909,-0.60806 1.09881,-1.25539 1.58915,-1.942l5.44362,2.91315c-1.05924,1.3929 -2.28038,2.61404 -3.66343,3.66343c-1.38305,1.04959 -2.73175,1.86376 -4.04611,2.44249c-1.31435,0.57873 -2.85429,0.87784 -4.61982,0.89733c-1.05924,-0.05886 -2.01552,-0.37765 -2.86885,-0.95638c-0.85333,-0.57853 -1.61346,-1.26021 -2.28038,-2.04505c-0.66712,-0.78463 -1.54998,-2.0793 -2.64859,-3.884c-1.05924,0.19606 -1.942,0.85323 -2.64829,1.97153c-0.74546,1.19664 -1.22607,2.6286 -1.44181,4.2959l-4.82562,-1.20618c0.56889,-3.53125 1.12794,-7.07215 1.67714,-10.62268c0.58858,-3.90388 1.35362,-7.79792 2.29514,-11.68212zM280.32772,172.46719h-17.03745v3.50162h-4.44324v-7.62125h10.65221v-2.70735h4.7081v2.70735h10.79926v7.62125h-4.67887zM85.11821,175.96881l-0.2061,-4.97296l6.32648,-0.11782l1.38305,-4.85515l4.9142,0.4119l-1.17725,4.32573l3.8843,-0.05906l-0.52972,5.09078l-4.64934,0.05876l-3.14848,13.59459l-5.12,-0.50019l3.08972,-12.91783zM101.50813,176.52776l4.47277,0.11782l0.35315,5.59097c2.39327,0.39232 4.76696,0.94152 7.12106,1.64761l-1.82448,4.67887c-1.72635,-0.64743 -3.47229,-1.24575 -5.23782,-1.79495c0,1.19664 -0.05886,2.23629 -0.17657,3.11895c-0.21574,1.31435 -0.80914,2.39327 -1.78019,3.23676c-0.97105,0.84369 -2.10391,1.29497 -3.39857,1.35382c-0.92203,0.07834 -1.82941,-0.00502 -2.72211,-0.25009c-0.89251,-0.24527 -1.68206,-0.68178 -2.36866,-1.30953c-0.6866,-0.62775 -1.17705,-1.38305 -1.47134,-2.26592c-0.29429,-0.88266 -0.44143,-1.77517 -0.44143,-2.67752c0.03937,-1.29487 0.49547,-2.39347 1.36829,-3.29582c0.87302,-0.90235 1.88826,-1.56445 3.04573,-1.98629c1.15746,-0.42165 2.3541,-0.6619 3.58991,-0.72075c-0.15689,-1.8049 -0.33346,-3.61954 -0.52972,-5.44392zM174.18947,175.61566l-0.50019,-5.12c1.86355,-0.29429 3.7468,-0.53956 5.64972,-0.73582c1.90293,-0.19606 3.81067,-0.32352 5.72324,-0.38237c1.91277,-0.05886 3.82052,0.02943 5.72324,0.26486l0.76505,3.97228l-7.73876,6.38554l-3.20754,-3.38411l2.85439,-2.11857c-3.11925,0.05886 -6.20897,0.43159 -9.26916,1.11819zM173.77757,191.2996l0.32362,-5.03172c2.86413,0.45117 5.76744,0.66692 8.70991,0.64723c3.27614,-0.05886 6.55227,-0.38257 9.82841,-0.97115l0.2058,5.41439c-3.43302,0.5492 -6.87579,0.81406 -10.3283,0.79458c-2.96216,0 -5.87531,-0.28444 -8.73944,-0.85333zM393.43998,183.35473h-3.76648l-1.23601,-9.53402l-0.2058,-5.00249h6.62057l-0.2058,5.00249zM279.44485,174.02681v3.94275h-15.21297v-3.94275zM103.80327,174.35043l3.85477,-6.14991l4.32573,2.26561l-4.20791,5.88505zM387.96683,188.41568c0,-0.94152 0.33838,-1.73107 1.01514,-2.36866c0.67676,-0.63759 1.52517,-0.95638 2.54524,-0.95638c1.02006,0 1.86848,0.31879 2.54524,0.95638c0.67696,0.63759 1.01544,1.42714 1.01544,2.36866c0,0.96141 -0.33356,1.75106 -1.00068,2.36897c-0.66692,0.6179 -1.52025,0.92686 -2.56,0.92686c-1.03975,0 -1.89308,-0.30895 -2.56,-0.92686c-0.66692,-0.6179 -1.00038,-1.40756 -1.00038,-2.36897zM361.1305,186.62072c0.45117,-0.01949 0.80924,-0.21564 1.0742,-0.58848c0.26476,-0.37263 0.42657,-0.77479 0.48542,-1.20648c0.23543,-1.41238 0.32372,-2.8346 0.26486,-4.26667c-0.21574,-0.2746 -0.50019,-0.47076 -0.85333,-0.58848c-1.02006,-0.25492 -1.85381,-0.00482 -2.50125,0.75028c-0.64743,0.75531 -0.94172,1.61356 -0.88286,2.57477c0,0.412 0.01969,0.81416 0.05906,1.20648c0.03917,0.39232 0.14704,0.76997 0.32362,1.13296c0.17657,0.36299 0.4561,0.62293 0.83857,0.77981c0.38247,0.15689 0.77971,0.22549 1.19171,0.2058zM297.6005,180.94177h-3.08972c-0.05866,1.72615 -0.18611,3.35438 -0.38237,4.88467c0.80432,0.07834 1.52035,0.11751 2.1481,0.11751c0.39232,0 0.69635,-0.1373 0.91209,-0.4119c0.21574,-0.33346 0.35304,-1.86355 0.4119,-4.59029zM256.81674,180.00015l-2.3542,0.73552l-1.7359,-4.88467l2.17733,-0.79458zM347.21229,180.00015l-2.3542,0.73552l-1.7359,-4.88467l2.17733,-0.79458zM252.9915,181.23586l-2.26592,0.73582l-1.76543,-4.73763l2.11857,-0.79458zM343.38706,181.23586l-2.26592,0.73582l-1.76543,-4.73763l2.11857,-0.79458zM102.12614,188.82788c0.07854,-0.96141 0.10797,-1.93246 0.08829,-2.91315c-0.43169,0.01949 -0.84369,0.03907 -1.23601,0.05876c-0.39232,0.01969 -0.78463,0.10305 -1.17695,0.25009c-0.39232,0.14704 -0.69143,0.39714 -0.89733,0.75028c-0.2061,0.35315 -0.29931,0.72588 -0.27962,1.11819c-0.11772,0.60826 -0.00984,1.17715 0.32362,1.70667c0.33346,0.52972 0.82391,0.76515 1.47134,0.70629c0.29429,-0.03917 0.58365,-0.11269 0.8681,-0.22057c0.28444,-0.10807 0.48552,-0.30433 0.60324,-0.58878c0.11772,-0.28444 0.19616,-0.57371 0.23533,-0.8678z"/></g></g></svg>