<svg version="1.1" xmlns="http://www.w3.org/2000/svg" xmlns:xlink="http://www.w3.org/1999/xlink" width="72.23118" height="72.2454" viewBox="0,0,72.23118,72.2454"><g transform="translate(-203.88441,-143.8773)"><g fill="#ffffff" fill-rule="evenodd" stroke="none" stroke-miterlimit="10"><path d="M235.30087,155.65353c-10.83733,0 -19.63285,8.79552 -19.63285,19.63285c0,10.83733 8.79552,19.63285 19.63285,19.63285c10.75881,0 19.63285,-8.79552 19.63285,-19.63285c0,-10.83733 -8.87404,-19.63285 -19.63285,-19.63285M274.40164,206.07069c2.28526,2.2774 2.28526,6.04692 0,8.32432c-1.17011,1.17796 -2.66222,1.72768 -4.15431,1.72768c-1.57063,0 -3.06273,-0.54972 -4.16217,-1.72768l-11.01796,-10.95513c-1.28007,-1.26436 -3.21194,-1.43713 -4.79041,-0.57328c-6.81652,3.69883 -15.133,5.04957 -23.81856,2.58368c-11.20642,-3.17267 -19.97053,-12.82418 -22.04376,-24.28976c-4.10719,-22.75839 16.28741,-42.13209 39.25784,-36.20297c8.70914,2.246 16.17746,8.4971 19.95483,16.65651c4.7276,10.19338 3.6517,20.58308 -0.74606,28.72679c-0.86385,1.57847 -0.69108,3.50249 0.57328,4.77471l10.94727,10.95513"/></g></g></svg>