<svg version="1.1" xmlns="http://www.w3.org/2000/svg" xmlns:xlink="http://www.w3.org/1999/xlink" width="74.00029" height="73.99994" viewBox="0,0,74.00029,73.99994"><g transform="translate(-202.99986,-143.00003)"><g fill="#ffffff" fill-rule="evenodd" stroke="none" stroke-miterlimit="10"><path d="M272.77061,161.95919c-3.47851,7.16368 -8.63454,15.42662 -13.50009,21.55005c-4.07399,5.15696 -7.3419,8.18179 -10.46456,9.65731c-0.3631,0.22871 -0.71894,0.30248 -1.16192,0.30248c-0.29048,0 -0.58096,-0.07378 -0.94406,-0.22871c-0.65358,-0.21395 -1.23454,-0.73038 -1.52502,-1.39437c-0.87144,-1.99934 -2.10598,-3.68881 -3.76899,-5.02416c-1.67753,-1.2542 -3.56565,-2.21329 -5.73699,-2.72972c-0.66084,-0.14755 -1.31442,-0.58283 -1.67753,-1.2542c-0.3631,-0.59021 -0.50108,-1.32797 -0.3631,-2.05836c0.87144,-3.39371 3.12267,-7.37763 7.04416,-12.32064c7.705,-9.8934 23.10047,-24.5675 30.57309,-25.38641c2.03336,-0.29511 3.19529,0.36888 3.92149,0.95909c1.89539,1.62308 3.78351,5.17172 -2.39647,17.92763zM241.40306,201.13808c0.43572,3.68881 -0.50834,7.30385 -2.76683,10.18112c-1.95348,2.57479 -4.71305,4.3528 -7.83571,5.09056c-0.14524,0.07378 -0.3631,0.14755 -0.50834,0.14755l-0.73346,0.07378c-1.37252,0.22133 -2.67968,0.36888 -3.99411,0.36888c-10.45004,0 -17.79194,-7.0899 -20.68948,-11.73043c-1.09656,-1.84441 -2.75957,-5.23812 -1.30716,-7.37763c0.3631,-0.51643 1.37252,-1.62308 3.55113,-1.18042c6.89891,1.47553 9.368,-1.62308 9.81098,-2.21329c4.64769,-6.12343 13.28949,-7.23007 19.23708,-2.65595c2.91207,2.28706 4.79293,5.607 5.23591,9.29581z"/></g></g></svg>