<svg version="1.1" xmlns="http://www.w3.org/2000/svg" xmlns:xlink="http://www.w3.org/1999/xlink" width="198.46739" height="29.79543" viewBox="0,0,198.46739,29.79543"><g transform="translate(-140.7663,-165.10228)"><g fill="#ffffff" fill-rule="evenodd" stroke="none" stroke-width="0" stroke-linecap="round" stroke-miterlimit="10"><path d="M171.54805,174.60586l-0.02999,-8.30825l4.96096,-0.269l-0.08967,10.07156l7.32193,-5.8876l3.97464,1.34498c-0.37845,2.11177 -0.73701,4.21865 -1.07567,6.32062c-0.33867,2.10198 -0.60766,4.19896 -0.80699,6.29094c-0.05978,0.39844 0,0.767 0.17933,1.10567c0.17933,0.33867 0.48811,0.498 0.92634,0.47801c0.43843,-0.01979 0.86676,-0.11435 1.285,-0.28368c0.41844,-0.16933 0.82688,-0.35366 1.22532,-0.55299c1.31509,-0.69733 2.61018,-1.43444 3.88528,-2.21133l0.98601,5.13998c-1.7731,1.17554 -3.67576,2.03231 -5.70796,2.5703c-1.25511,0.35866 -2.51531,0.34866 -3.78062,-0.02999c-1.2651,-0.37845 -2.26121,-1.11066 -2.98833,-2.19664c-0.72732,-1.08577 -1.00131,-2.30599 -0.82198,-3.66066c0.19932,-2.51042 0.47832,-5.04073 0.83698,-7.59093l-5.46896,4.78163l-0.11966,12.88056l-4.63229,0.11935l-0.02968,-9.11493c-1.57398,1.91265 -3.0583,3.88508 -4.45296,5.91728l-3.3173,-3.55631c2.43065,-2.84909 4.96096,-5.6284 7.59093,-8.33793l-7.47127,-4.03462l1.34467,-4.51263zM288.51876,180.28384l-0.269,-3.88498l7.76995,-0.32867l-0.29868,-2.71964l-8.81625,0.20932l-0.20932,-4.00463l8.63692,-0.41834l-0.269,-2.59998l4.96096,-0.32898l0.20932,2.68965l8.12861,-0.38834l0.14965,4.45296l-7.94959,0.269l0.20932,2.68965l6.72396,-0.29899l0.20932,3.91497l-6.6346,0.239c0.07977,0.87666 0.15944,1.88286 0.239,3.01862c2.78931,0.57777 5.58861,1.43444 8.39792,2.56999l-2.24132,4.90128c-2.07219,-1.37486 -4.0945,-2.41096 -6.06693,-3.10829c-0.01979,1.07598 -0.06957,2.01242 -0.14934,2.8093c-0.23911,1.33488 -0.93144,2.38087 -2.07699,3.13797c-1.14555,0.7571 -2.36587,1.15555 -3.66097,1.19533c-0.95622,0.05978 -1.90755,0 -2.85398,-0.17933c-0.94643,-0.17933 -1.83308,-0.52799 -2.65996,-1.04599c-0.82667,-0.518 -1.47412,-1.21033 -1.94234,-2.07699c-0.46822,-0.86666 -0.69233,-1.7881 -0.67234,-2.76432c-0.07977,-1.51421 0.43823,-2.70464 1.55399,-3.5713c1.11556,-0.86666 2.35078,-1.45943 3.70565,-1.77831c1.35487,-0.31867 2.69975,-0.51789 4.03462,-0.59767c-0.05978,-0.85666 -0.13955,-1.63366 -0.23931,-2.33099zM196.53217,175.11386l-0.23931,-4.66228l7.94959,-0.41834l1.70333,-4.12398l4.66228,0.59767l-1.52431,3.25732l5.43927,-0.29868l-0.23931,4.66197l-7.44128,0.38865l-1.25531,2.65966c1.57398,0.31888 2.99853,0.98632 4.27363,2.00232c1.71353,-0.69733 3.48174,-1.10077 5.30462,-1.21033c1.82309,-0.10956 3.65107,-0.04478 5.48395,0.19433l-0.11935,4.15397c-2.53041,-0.31867 -5.02094,-0.21901 -7.47158,0.29899c0.85687,1.05578 1.71363,2.12167 2.5703,3.19765l-4.87129,1.97233c-0.61756,-1.016 -1.30489,-1.99222 -2.06199,-2.92865c-0.43843,0.43823 -0.7672,0.94123 -0.98632,1.50901c-0.21911,0.56798 -0.23401,1.14575 -0.04468,1.73332c0.18912,0.58777 0.55268,1.0311 1.09067,1.32998c0.59777,0.2591 1.22032,0.41354 1.86767,0.46332c0.64755,0.04978 1.29509,0.06467 1.94264,0.04468c0.64755,-0.01979 1.30009,-0.06957 1.95764,-0.14934l-0.11966,4.78163c-2.47043,0.45822 -4.92097,0.37855 -7.35162,-0.239c-1.71353,-0.45822 -2.86418,-1.47432 -3.45195,-3.04831c-0.58777,-1.57398 -0.65244,-3.15297 -0.19402,-4.73695c0.45822,-1.58378 1.22522,-3.00332 2.301,-4.25863c-1.97243,-0.87666 -4.03452,-1.23522 -6.18628,-1.07567l2.68965,-6.42528zM312.78525,175.44253l-0.239,-4.93097c4.68197,-0.39844 9.39392,-0.71722 14.13587,-0.95633c-0.09976,-0.99621 -0.19943,-2.00232 -0.29899,-3.01832l5.46896,-0.32898l0.05967,3.22764c2.39086,0 4.79173,0.01989 7.20259,0.05967l0.11935,4.93127c-2.45064,-0.07977 -4.89129,-0.12965 -7.32193,-0.14965c0,1.83308 -0.08967,3.66607 -0.269,5.49895c0.37865,0.89665 0.63775,1.96253 0.7773,3.19765c0.09956,1.35487 0.07957,2.69975 -0.05998,4.03462c-0.13934,1.33488 -0.34356,2.65976 -0.61266,3.97464c-0.26889,1.31509 -0.58267,2.62008 -0.94133,3.91497l-5.67828,-0.47801c0.61776,-1.51421 1.17564,-3.0782 1.67365,-4.69196c-0.69733,0.498 -1.44443,0.82667 -2.24132,0.98601c-0.91644,0.2591 -1.7981,0.21432 -2.64497,-0.13434c-0.84667,-0.34866 -1.529,-0.89655 -2.047,-1.64366c-0.518,-0.74711 -0.89655,-1.54899 -1.13566,-2.40566c-0.23911,-0.85687 -0.33877,-1.74352 -0.29899,-2.65996c-0.01979,-1.25511 0.23431,-2.47043 0.76231,-3.64597c0.52799,-1.17554 1.32488,-2.12187 2.39066,-2.83899c1.06598,-0.71732 2.24642,-1.10587 3.54131,-1.16565c0.73731,-0.01999 1.41475,0.01989 2.03231,0.11966l-0.11966,-1.97263c-4.76153,0.23911 -9.51327,0.59777 -14.25522,1.07598zM234.90454,185.18512v-18.37951h17.09451v18.37951h-4.54262v-1.31499h-1.94264v10.31057h-4.21365v-10.31057h-2.0623v1.31499zM259.291,168.86791l6.3653,0.35866c-0.47801,1.95243 -0.92623,4.01443 -1.34467,6.18597c-0.41844,2.17175 -0.72722,4.3534 -0.92634,6.54494c-0.07977,0.7571 0.02979,1.49432 0.32867,2.21164c0.29888,0.71712 0.78199,1.27 1.44933,1.65865c0.66754,0.38845 1.36987,0.59267 2.10698,0.61266c0.73711,0.01979 1.46433,-0.07987 2.18165,-0.29899c0.99621,-0.37845 1.93264,-0.83667 2.8093,-1.37466c0.87645,-0.53799 1.74311,-1.10087 2.59998,-1.68864c0.85666,-0.58777 1.69344,-1.19543 2.51032,-1.82299c0.81688,-0.62755 1.5441,-1.20033 2.18165,-1.71833l2.74932,5.64829c-1.21532,0.79689 -2.50532,1.58888 -3.86998,2.37597c-1.36487,0.78689 -2.74963,1.51411 -4.15428,2.18165c-1.40445,0.66734 -2.85388,1.18034 -4.3483,1.539c-1.33488,0.27889 -2.66476,0.39844 -3.98964,0.35866c-1.32488,-0.03999 -2.61487,-0.28909 -3.86998,-0.74731c-0.89665,-0.35846 -1.68364,-0.88145 -2.36098,-1.56899c-0.67733,-0.68733 -1.16044,-1.48922 -1.44933,-2.40566c-0.28889,-0.91644 -0.42344,-1.87277 -0.40365,-2.86898c0.03999,-5.14019 0.5182,-10.2007 1.43464,-15.18155zM231.55756,178.64018l2.21133,-0.508l0.56798,4.06431l-2.77931,0.68733v6.57493c0,1.016 -0.09966,1.793 -0.29899,2.33099c-0.19912,0.53799 -0.56767,0.96632 -1.10567,1.285c-0.85666,0.53799 -2.41076,0.80699 -4.66228,0.80699c-0.11935,-1.11576 -0.5078,-2.43075 -1.16534,-3.94496c0.63755,0.01999 1.45443,0.02999 2.45064,0.02999c0.19912,0 0.33357,-0.03489 0.40334,-0.10466c0.06977,-0.06977 0.10466,-0.20422 0.10466,-0.40334v-5.49895l-2.42065,0.59767l-1.07598,-4.27363c0.89665,-0.15934 2.06219,-0.38845 3.49663,-0.68733v-4.75164h-3.10798v-4.0943h3.10798v-5.64829h4.27363v5.64829h2.68965v4.0943h-2.68965zM141.2743,175.2932l-0.508,-5.19996c1.89266,-0.29888 3.80531,-0.54799 5.73795,-0.74731c1.93264,-0.19912 3.87019,-0.32857 5.81262,-0.38834c1.94264,-0.05978 3.88018,0.02989 5.81262,0.269l0.777,4.03432l-7.85962,6.48526l-3.25763,-3.43696l2.89897,-2.15166c-3.16776,0.05978 -6.30573,0.43833 -9.41392,1.13566zM140.85597,191.22206l0.32867,-5.1106c2.90886,0.45822 5.85751,0.67744 8.84594,0.65765c3.3273,-0.05978 6.6546,-0.38855 9.9819,-0.98632l0.20901,5.49895c-3.48664,0.55778 -6.98317,0.82678 -10.48959,0.80699c-3.00842,0 -5.96706,-0.28889 -8.87593,-0.86666zM325.39681,186.47012c0.45822,-0.01979 0.82188,-0.21901 1.09098,-0.59767c0.26889,-0.37845 0.43323,-0.78689 0.493,-1.22532c0.23911,-1.43444 0.32877,-2.87887 0.269,-4.3333c-0.21911,-0.27889 -0.508,-0.47811 -0.86666,-0.59767c-1.03599,-0.2591 -1.88276,-0.0051 -2.54031,0.762c-0.65734,0.7671 -0.95612,1.63876 -0.89634,2.61498c0,0.41844 0.01989,0.82688 0.05967,1.22532c0.03978,0.39844 0.14934,0.78199 0.32867,1.15065c0.17933,0.36845 0.46322,0.63245 0.85167,0.79199c0.38865,0.15934 0.79209,0.22901 1.21033,0.20901zM296.88638,188.95075c0.07977,-0.89665 0.10966,-1.81319 0.08967,-2.74963c-0.09956,-0.01979 -0.18922,-0.02968 -0.269,-0.02968c-0.57777,0.01979 -1.17044,0.04968 -1.778,0.08967c-0.60776,0.03978 -1.18054,0.21411 -1.71833,0.523c-0.53799,0.30868 -0.80699,0.80178 -0.80699,1.47932c-0.09956,0.71712 0.10466,1.30479 0.61266,1.76301c0.508,0.45822 1.11066,0.62755 1.80799,0.508c0.29888,-0.03978 0.61266,-0.09456 0.94133,-0.16433c0.32867,-0.06957 0.59267,-0.2389 0.79199,-0.508c0.19932,-0.26889 0.30888,-0.57267 0.32867,-0.91134zM239.23785,177.3252v2.54031h2.0623v-2.54031zM241.30014,173.32056v-2.48033h-2.0623v2.48033zM245.51379,177.3252v2.54031h1.94264v-2.54031zM245.51379,173.32056h1.94264v-2.48033h-1.94264z"/></g></g></svg>